<?xml version="1.0" standalone="no"?>
<!DOCTYPE svg PUBLIC "-//W3C//DTD SVG 1.1//EN" "http://www.w3.org/Graphics/SVG/1.1/DTD/svg11.dtd" >
<svg xmlns="http://www.w3.org/2000/svg" xmlns:xlink="http://www.w3.org/1999/xlink" version="1.1">
<metadata>
Created by FontForge 20201107 at Fri Aug 23 16:06:30 2019
 By 
Copyright (c) 2019 by Latinotype. All rights reserved. Desktop use is strictly prohibited.
</metadata>
<defs>
<font id="BrandingSF-SemiLight" horiz-adv-x="0" >
  <font-face 
    font-family="Branding SF SemiLight"
    font-weight="400"
    font-stretch="normal"
    units-per-em="2048"
    panose-1="0 0 5 0 0 0 0 0 0 0"
    ascent="1638"
    descent="-410"
    x-height="961"
    cap-height="1323"
    bbox="-1329 -428 4520 1716"
    underline-thickness="0"
    underline-position="0"
    unicode-range="U+0020-FB02"
  />
<missing-glyph horiz-adv-x="1085" 
d="M102 1495h881v-1495h-881v1495zM236 1423l307 -587l307 587h-614zM498 748l-314 598v-1196zM590 748l311 -598v1196zM543 659l-307 -587h614z" />
    <glyph glyph-name="uniFB01" unicode="fi" horiz-adv-x="1058" 
d="M887 961v-961q-25 -6 -56 -6q-29 0 -57 6v868h-450v-870q-25 -6 -56 -6q-29 0 -53 6v870h-143q-6 25 -6 47.5t6 45.5h143v12q0 188 113.5 286.5t261.5 98.5q184 0 293 -109q-4 -23 -23.5 -46t-44.5 -32q-100 84 -229 84q-109 0 -185.5 -65.5t-76.5 -204.5v-24h563z" />
    <glyph glyph-name="uniFB02" unicode="fl" horiz-adv-x="1091" 
d="M614.5 1356q163.5 0 305.5 -74v-1282q-25 -6 -58 -6q-27 0 -55 6l-6 1214q-90 39 -189 39q-125 0 -206.5 -66.5t-81.5 -207.5v-21l264 -2q6 -16 6 -47q0 -29 -6 -45l-264 2v-868q-25 -6 -56 -6q-29 0 -53 6v868h-143q-6 25 -6 45q0 23 6 47h143v9q0 193 118 291t281.5 98
z" />
    <glyph glyph-name=".notdef" horiz-adv-x="1085" 
d="M102 1495h881v-1495h-881v1495zM236 1423l307 -587l307 587h-614zM498 748l-314 598v-1196zM590 748l311 -598v1196zM543 659l-307 -587h614z" />
    <glyph glyph-name="glyph1" 
 />
    <glyph glyph-name="glyph2" horiz-adv-x="681" 
 />
    <glyph glyph-name="space" unicode=" " horiz-adv-x="518" 
 />
    <glyph glyph-name="exclam" unicode="!" horiz-adv-x="491" 
d="M246 303q-8 0 -33 4q-29 522 -29 1028q31 6 61.5 6t61.5 -6q-4 -582 -31 -1028q-20 -4 -30 -4zM246 -20q-35 0 -60.5 24.5t-25.5 61.5q0 35 24.5 59.5t61.5 24.5q35 0 59.5 -25t24.5 -59q0 -37 -24.5 -61.5t-59.5 -24.5z" />
    <glyph glyph-name="quotedbl" unicode="&#x22;" horiz-adv-x="614" 
d="M188 958q-16 0 -28 7l-33 389q33 14 61.5 14t61.5 -14l-33 -389q-17 -7 -29 -7zM426 958q-16 0 -29 7l-32 389q33 14 61.5 14t60.5 -14l-32 -389q-17 -7 -29 -7z" />
    <glyph glyph-name="numbersign" unicode="#" horiz-adv-x="1337" 
d="M1237 840h-201l-123 -371h203q4 -53 -31 -96h-202l-131 -393q-57 -18 -107 0l131 393h-385l-131 -393q-57 -18 -106 0l131 393h-217q-6 55 30 96h217l123 371h-219q-6 47 31 96h219l133 399q59 16 107 0l-134 -399h386l133 399q59 16 106 0l-133 -399h201q6 -47 -31 -96z
M807 469l123 371h-385l-123 -371h385z" />
    <glyph glyph-name="dollar" unicode="$" horiz-adv-x="1046" 
d="M954 420q0 -154 -103 -244t-273 -100v-180q-20 -6 -45 -6.5t-48 6.5v180q-250 14 -389 135q14 57 70 86q119 -106 319 -119v445q-375 33 -374 301q0 133 101 220t273 99v172q29 4 47 4q16 0 46 -4v-172q205 -10 342 -108q-8 -61 -58 -88q-131 84 -284 92v-406
q376 -43 376 -313zM221 942q0 -86 61.5 -133t202.5 -66v396q-125 -8 -194.5 -60.5t-69.5 -136.5zM578 178q125 8 194.5 68.5t69.5 150.5q0 92 -56.5 146.5t-207.5 70.5v-436z" />
    <glyph glyph-name="percent" unicode="%" horiz-adv-x="1497" 
d="M358 709q-131 0 -208.5 85t-77.5 214q0 131 77.5 215t208.5 84q129 0 207 -84t78 -215q0 -129 -78 -214t-207 -85zM233 -96l879 1356q61 14 111 0l-879 -1356q-70 -12 -111 0zM358.5 797q92.5 0 140.5 58t48 153q0 92 -48 152.5t-140.5 60.5t-141.5 -60.5t-49 -152.5
q0 -94 49 -152.5t141.5 -58.5zM1139 -20q-131 0 -209 85t-78 214q0 131 77 215t210 84q129 0 206.5 -84t77.5 -215q0 -129 -77.5 -214t-206.5 -85zM1139 68q92 0 140 58t48 153q0 92 -48 152.5t-140 60.5t-141.5 -60.5t-49.5 -152.5q0 -94 49.5 -152.5t141.5 -58.5z" />
    <glyph glyph-name="ampersand" unicode="&#x26;" horiz-adv-x="1251" 
d="M1192 694.5q0 -26.5 -6 -51.5h-217v-534q-182 -129 -402 -129q-213 0 -331.5 96t-118.5 274q0 129 68.5 217t187.5 129q-201 78 -201 295q0 150 105.5 243t269.5 93q203 0 317 -100q-14 -53 -61 -84q-104 88 -254 88q-121 0 -193.5 -64.5t-72.5 -175t80.5 -178.5
t248.5 -68h574q6 -24 6 -50.5zM856 160v483h-266q-174 0 -267.5 -77t-93.5 -208t88.5 -205.5t251.5 -74.5q166 0 287 82z" />
    <glyph glyph-name="quotesingle" unicode="'" horiz-adv-x="376" 
d="M188 958q-12 0 -28 5l-33 389q27 14 61.5 14t61.5 -14l-33 -389q-21 -5 -29 -5z" />
    <glyph glyph-name="parenleft" unicode="(" horiz-adv-x="530" 
d="M352 -356q-238 406 -237 874q2 463 237 875q25 6 52.5 -4.5t35.5 -30.5q-197 -373 -198 -840q0 -461 198 -840q-8 -20 -35.5 -30t-52.5 -4z" />
    <glyph glyph-name="parenright" unicode=")" horiz-adv-x="530" 
d="M178 -356q-25 -6 -52.5 4t-35.5 30q199 379 199 840q-2 461 -199 840q8 20 36 30.5t52 4.5q236 -412 238 -875q0 -468 -238 -874z" />
    <glyph glyph-name="asterisk" unicode="*" horiz-adv-x="694" 
d="M397 1100l156 -72q-14 -61 -64 -88l-118 129q-12 -8 -23 -8l-20 -174q-61 -6 -103 33l84 153q-12 12 -16 21l-170 -35q-25 57 0 108l170 -32q4 12 14 20l-86 154q43 41 105 34l20 -174q14 0 23 -6l118 127q51 -31 64 -86l-154 -74q2 -4 2 -14t-2 -16z" />
    <glyph glyph-name="plus" unicode="+" horiz-adv-x="1021" 
d="M924 503.5q0 -20.5 -4 -48.5h-361v-359q-29 -4 -49 -4q-23 0 -51 4v359h-361q-4 29 -4 49t4 49h361v360q29 4 51 5q20 0 49 -5v-360h361q4 -29 4 -49.5z" />
    <glyph glyph-name="comma" unicode="," horiz-adv-x="428" 
d="M129 -289q-16 0 -30.5 12.5t-16.5 26.5q74 94 74 283q0 82 -19 153q31 12 74 13q33 0 59 -11q12 -29 13 -94q0 -117 -48.5 -220.5t-105.5 -162.5z" />
    <glyph glyph-name="hyphen" unicode="-" horiz-adv-x="800" 
d="M154 465q-6 25 -7 49q0 23 7 45h493q6 -23 6 -45q0 -25 -6 -49h-493z" />
    <glyph glyph-name="period" unicode="." horiz-adv-x="454" 
d="M227 -23q-41 0 -70.5 29t-29.5 70t29.5 70.5t70.5 29.5t70 -29.5t29 -70.5q0 -39 -30 -69t-69 -30z" />
    <glyph glyph-name="slash" unicode="/" horiz-adv-x="1040" 
d="M102.5 -381q-20.5 0 -53.5 8l832 1743q25 6 53 6q29 0 55 -6l-829 -1743q-37 -8 -57.5 -8z" />
    <glyph glyph-name="zero" unicode="0" horiz-adv-x="1198" 
d="M600 -27q-233 0 -356 184.5t-123 504t123 504t356.5 184.5t355 -183.5t121.5 -504.5q0 -317 -123 -503t-354 -186zM600 80q356 0 356 582q0 580 -356 579q-358 0 -358 -579q0 -582 358 -582z" />
    <glyph glyph-name="one" unicode="1" horiz-adv-x="673" 
d="M434 1333q25 0 39 -6v-1327q-27 -6 -57 -6q-27 0 -54 6v1174l-270 -142q-43 39 -49 98l354 197q14 6 37 6z" />
    <glyph glyph-name="two" unicode="2" horiz-adv-x="1034" 
d="M942 109q6 -18 6 -52q0 -39 -6 -57h-836q-6 18 -6 43q0 59 54 111q379 354 497.5 507.5t118.5 299.5q0 123 -78 201.5t-217 78.5q-180 0 -319 -147q-47 16 -68 69q61 78 165.5 132.5t225.5 54.5q180 0 294 -102.5t114 -286.5q0 -119 -81 -252.5t-161 -217t-297 -290.5
q-49 -49 -76 -74l-24 -21l28 3h666z" />
    <glyph glyph-name="three" unicode="3" horiz-adv-x="1034" 
d="M459 -25q-125 0 -217 39t-144 90q12 55 62 89q135 -115 299 -115q156 0 254 81t98 234q0 166 -102.5 247t-323.5 81h-37q0 4 -1 11t-1 11q0 33 33 74l340 383h-608q-8 27 -9 60q0 31 9 55h763q6 -84 -43 -139l-331 -363q182 -8 302 -105.5t120 -304t-134 -317.5
t-329 -111z" />
    <glyph glyph-name="four" unicode="4" horiz-adv-x="999" 
d="M942 420q0 -31 -6 -58h-154v-362q-27 -6 -53 -6q-29 0 -53 6v362h-592q-47 98 14 222l400 776q49 -10 98 -43l-385 -756q-29 -57 -27 -94h492v334q33 4 53 4q16 0 53 -4v-334h154q6 -24 6 -47z" />
    <glyph glyph-name="five" unicode="5" horiz-adv-x="1036" 
d="M465 -29q-201 0 -342 119q12 55 63 86q117 -104 279 -104q168 0 261 90t93 244q0 156 -89 238.5t-267 82.5q-68 0 -155 -27.5t-115 -27.5q-18 0 -39 8v635h716q6 -27 7 -58q0 -29 -7 -55h-608v-409q94 45 213 45q221 0 339 -111t118 -317q0 -201 -126 -320t-341 -119z
" />
    <glyph glyph-name="six" unicode="6" horiz-adv-x="1069" 
d="M578 791q172 0 284.5 -103.5t112.5 -294t-121 -307.5t-305 -117q-195 0 -314.5 135.5t-119.5 374.5q0 188 63.5 345t170 261.5t232.5 170t265 94.5q33 -33 33 -99q-229 -51 -406.5 -193.5t-228.5 -398.5q141 132 334 132zM557 70q137 0 223 85t86 238q0 141 -89 214
t-212 73q-199 0 -336 -145q-2 -18 -2 -56q0 -190 92.5 -299.5t237.5 -109.5z" />
    <glyph glyph-name="seven" unicode="7" horiz-adv-x="946" 
d="M891 1315q8 -10 8 -41q0 -55 -39 -139l-584 -1164q-61 10 -94 56l590 1175h-709q-6 27 -6 58q0 27 6 55h828z" />
    <glyph glyph-name="eight" unicode="8" horiz-adv-x="1091" 
d="M731 682q240 -121 240 -336q0 -190 -125 -281.5t-303 -91.5q-186 0 -306 81t-120 263q0 223 241 400q-96 51 -145 119.5t-49 173.5q0 150 109.5 245t277.5 95q174 0 279.5 -90.5t105.5 -239.5q0 -188 -205 -338zM270 1022q0 -102 73 -159.5t226 -114.5q55 -20 70 -27
q193 133 192 293q0 109 -76.5 171t-203.5 62q-125 0 -203 -63.5t-78 -161.5zM543 76q141 0 231 62.5t90 197.5q0 115 -84 182.5t-239 122.5q-23 8 -92 35q-223 -147 -224 -348q0 -131 89.5 -191.5t228.5 -60.5z" />
    <glyph glyph-name="nine" unicode="9" horiz-adv-x="1069" 
d="M508 1350q203 0 320.5 -165t117.5 -470q0 -178 -39 -312.5t-102.5 -215.5t-157.5 -131t-190.5 -68.5t-214.5 -18.5q-12 25 -13 60q0 14 4 43q129 0 221.5 20.5t179.5 73.5t138 162.5t64 275.5q-154 -111 -336 -110q-184 0 -298 108.5t-114 308.5q0 193 117 316t303 123z
M502 596q184 0 338 115v4q0 260 -91.5 397t-244.5 137q-137 0 -224 -90t-87 -248q0 -156 89 -235.5t220 -79.5z" />
    <glyph glyph-name="colon" unicode=":" horiz-adv-x="491" 
d="M246 696q-41 0 -70 30t-29 71t29 69.5t70 28.5t69.5 -28.5t28.5 -69.5t-28.5 -71t-69.5 -30zM246 2q-41 0 -70 29.5t-29 70.5t29 70t70 29t69.5 -29t28.5 -70t-28.5 -70.5t-69.5 -29.5z" />
    <glyph glyph-name="semicolon" unicode=";" horiz-adv-x="536" 
d="M266 637q-41 0 -71.5 30.5t-30.5 73.5t30.5 73t71.5 30q43 0 74 -30t31 -73t-31 -73.5t-74 -30.5zM203 -289q-35 0 -47 39q74 94 73 283q0 82 -18 153q31 12 74 13q33 0 59 -11q12 -29 12 -94q0 -117 -48 -220.5t-105 -162.5z" />
    <glyph glyph-name="less" unicode="&#x3c;" horiz-adv-x="1163" 
d="M225 473l815 -340q-6 -51 -36 -94l-914 379q-10 35 -10 61q0 33 8 64l916 377q31 -41 34 -95l-813 -338l-26 -6z" />
    <glyph glyph-name="equal" unicode="=" horiz-adv-x="1097" 
d="M158 608q-6 25 -6 51q0 25 6 50h782q6 -25 6 -50q0 -27 -6 -51h-782zM158 242q-6 25 -6 49q0 27 6 51h782q6 -25 6 -51q0 -25 -6 -49h-782z" />
    <glyph glyph-name="greater" unicode="&#x3e;" horiz-adv-x="1163" 
d="M1073 543q8 -31 8 -64q0 -27 -10 -61l-913 -379q-31 43 -37 94l815 340l29 8l-29 6l-813 338q6 53 35 95z" />
    <glyph glyph-name="question" unicode="?" horiz-adv-x="854" 
d="M352 317q-18 0 -28 2q-23 135 -23 263h14q152 0 241 93t89 251q0 147 -82 229t-221 82q-127 0 -223 -72q-45 29 -53 78q106 102 276 103q188 0 302 -112t114 -308q0 -176 -99.5 -295t-257.5 -146q-6 -55 -20 -166q-9 -2 -29 -2zM356.5 -20q-34.5 0 -60.5 24.5t-26 61
t24.5 60.5t61.5 24q35 0 59.5 -24t24.5 -60.5t-24.5 -61t-59 -24.5z" />
    <glyph glyph-name="at" unicode="@" horiz-adv-x="1701" 
d="M858 1298q328 0 533.5 -207.5t205.5 -529.5q0 -201 -85 -311.5t-222 -110.5q-160 0 -205 142q-94 -113 -251 -113q-147 0 -241.5 95t-94.5 267q0 176 110.5 287t278.5 111q156 0 278 -92v-445q0 -158 140 -158q80 -2 131 83t51 245q0 268 -175 451.5t-453.5 183.5
t-457 -189.5t-178.5 -469.5q0 -283 168 -466.5t457 -183.5q158 0 297 68q39 -35 39 -96q-152 -76 -336 -76q-336 0 -536.5 214t-200.5 540q0 319 211.5 540t535.5 221zM834 264q160 0 233 129v381q-84 57 -182 57q-123 0 -202 -81.5t-79 -221.5q0 -123 64 -193.5t166 -70.5z
" />
    <glyph glyph-name="A" unicode="A" horiz-adv-x="1214" 
d="M662 1315l516 -1305q-27 -16 -72 -16q-35 0 -51 4l-154 399h-590l-147 -397q-25 -6 -47 -6q-41 0 -72 16l500 1305q25 8 59 8q33 0 58 -8zM348 496h514l-231 598l-31 94l-31 -94z" />
    <glyph glyph-name="B" unicode="B" horiz-adv-x="1175" 
d="M803 692q266 -66 266 -325q0 -188 -132 -290t-378 -102q-223 0 -362 27v1294q172 31 346 31q227 0 345 -87t118 -251q0 -215 -203 -297zM549 1227q-145 0 -240 -13v-483h250q336 0 336 258q0 111 -89 174.5t-257 63.5zM553 78q401 0 401 282q0 268 -376 269h-269v-533
q115 -18 244 -18z" />
    <glyph glyph-name="C" unicode="C" horiz-adv-x="1228" 
d="M743 -29q-285 0 -458.5 192.5t-173.5 493.5t182 496t463 195q231 0 393 -123q-10 -61 -62 -90q-150 104 -331 104q-231 0 -379 -160.5t-148 -421.5q0 -258 143.5 -417.5t370.5 -159.5q223 0 363 119q51 -31 59 -88q-168 -140 -422 -140z" />
    <glyph glyph-name="D" unicode="D" horiz-adv-x="1380" 
d="M545 1333q342 0 532.5 -183t190.5 -484q0 -303 -192.5 -493.5t-518.5 -190.5q-205 0 -360 22v1303q174 26 348 26zM559 86q279 0 434.5 156.5t155.5 419.5q0 258 -155.5 411.5t-448.5 153.5q-139 0 -236 -13v-1114q113 -14 250 -14z" />
    <glyph glyph-name="E" unicode="E" horiz-adv-x="1110" 
d="M1010 104q8 -23 8 -49q0 -33 -8 -55h-813v1315h788q8 -23 8 -55q0 -29 -8 -52h-676v-475h609q8 -23 8 -51.5t-8 -52.5h-609v-525h701z" />
    <glyph glyph-name="F" unicode="F" horiz-adv-x="1042" 
d="M985 1208h-674v-518h598q8 -25 9 -53q0 -27 -9 -51h-598v-586q-41 -8 -57 -8t-57 8v1315h788q6 -29 6 -55q0 -27 -6 -52z" />
    <glyph glyph-name="G" unicode="G" horiz-adv-x="1335" 
d="M770 649h432v-573q-195 -104 -444 -105q-285 0 -466 188.5t-181 495.5q0 309 188 501t467 192q260 0 424 -121q-12 -66 -62 -94q-164 106 -362 106q-233 0 -384 -157.5t-151 -426.5q0 -260 138.5 -417.5t390.5 -157.5q195 0 327 61v400h-317q-8 27 -8 55t8 53z" />
    <glyph glyph-name="H" unicode="H" horiz-adv-x="1409" 
d="M1157.5 1323q18.5 0 54.5 -8v-1315q-37 -8 -53 -8q-20 0 -61 8v623h-787v-623q-41 -8 -59 -8q-14 0 -55 8v1315q25 8 55 8q35 0 59 -8v-588h787v588q41 8 59.5 8z" />
    <glyph glyph-name="I" unicode="I" horiz-adv-x="507" 
d="M254 -8q-16 0 -57 8v1315q27 8 57 8q33 0 57 -8v-1315q-37 -8 -57 -8z" />
    <glyph glyph-name="J" unicode="J" horiz-adv-x="790" 
d="M274 -33q-86 0 -151.5 34t-95.5 71q16 49 73 82q80 -80 174 -80q219 0 220 241v1000q18 8 55 8q33 0 57 -8v-998q0 -176 -94.5 -263t-237.5 -87z" />
    <glyph glyph-name="K" unicode="K" horiz-adv-x="1183" 
d="M573 709l592 -701q-39 -12 -98 -12l-47 2l-535 641q-74 -51 -174 -119v-520q-37 -8 -59 -8q-18 0 -55 8v1315q37 8 55 8q23 0 59 -8v-668q221 143 369.5 290.5t304.5 379.5q16 4 55 4q45 0 72 -8q-234 -362 -539 -604z" />
    <glyph glyph-name="L" unicode="L" horiz-adv-x="978" 
d="M938 104q8 -25 8 -49q0 -31 -8 -55h-741v1315q41 8 55 8q18 0 59 -8v-1211h627z" />
    <glyph glyph-name="M" unicode="M" horiz-adv-x="1611" 
d="M1348 1321q27 0 67 -10v-1311q-37 -8 -55 -8q-16 0 -57 8v958l8 140l-23 -60l-422 -911q-31 -6 -53 -6q-20 0 -51 6l-438 913l-23 54l6 -136v-958q-33 -8 -55 -8q-14 0 -55 8v1309q33 14 73 14q16 0 39 -6l488 -1010l24 -59l23 59l463 1010q25 4 41 4z" />
    <glyph glyph-name="N" unicode="N" horiz-adv-x="1396" 
d="M1145 1325q18 0 55 -8v-1309q-43 -12 -100 -12l-766 1081l-29 53l2 -61v-1069q-25 -8 -55.5 -8t-54.5 8v1305q51 29 104 16l766 -1083l27 -45l-2 65v1059q37 8 53 8z" />
    <glyph glyph-name="O" unicode="O" horiz-adv-x="1495" 
d="M748 -27q-283 0 -460 194.5t-177 491.5q0 295 177 492t459.5 197t459.5 -193.5t177 -495.5q0 -293 -177.5 -489.5t-458.5 -196.5zM747.5 80q235.5 0 377 161.5t141.5 417.5q0 260 -141.5 421t-376.5 161q-238 0 -378.5 -160.5t-140.5 -421.5q0 -256 141.5 -417.5
t377 -161.5z" />
    <glyph glyph-name="P" unicode="P" horiz-adv-x="1142" 
d="M555 1337q250 0 380 -108.5t132 -298.5q0 -199 -133 -318.5t-377 -119.5q-150 0 -248 14v-506q-25 -8 -57 -8q-31 0 -55 8v1292q151 45 358 45zM555 594q201 0 296 88t95 248q0 139 -99 221t-294 82q-127 0 -244 -23v-602q92 -18 246 -14z" />
    <glyph glyph-name="Q" unicode="Q" horiz-adv-x="1495" 
d="M995 20q264 -59 394 -258q-29 -43 -101 -63q-184 274 -553 274q-279 4 -451.5 198t-172.5 488.5t177 491.5t459.5 197t459.5 -193.5t177 -495.5q0 -219 -104.5 -391t-284.5 -248zM229 659q0 -256 141.5 -417.5t377 -161.5t377 161.5t141.5 417.5q0 260 -141.5 421
t-376.5 161q-238 0 -378.5 -161t-140.5 -421z" />
    <glyph glyph-name="R" unicode="R" horiz-adv-x="1169" 
d="M739 555l346 -547q-39 -12 -86 -12q-31 0 -43 2l-335 534q-20 -2 -64 -2q-143 0 -248 11v-541q-25 -8 -57 -8q-31 0 -55 8v1294q176 43 370 43q229 0 350 -102t123 -283q-2 -152 -83 -254t-218 -143zM309 647q82 -12 248 -12q186 0 276.5 85t92.5 228q-2 133 -93.5 210
t-267.5 77q-127 0 -256 -23v-565z" />
    <glyph glyph-name="S" unicode="S" horiz-adv-x="1071" 
d="M520 -29q-268 0 -434 166q16 55 72 86q137 -143 362 -143q162 0 248 72.5t86 197.5q0 109 -74.5 173.5t-257.5 109.5q-86 20 -147.5 43.5t-121.5 64.5t-92 106.5t-32 153.5q0 150 111.5 247.5t296.5 97.5q250 0 407 -132q-10 -63 -63 -90q-152 115 -344 115
q-135 0 -215 -65.5t-80 -165.5q0 -104 72.5 -160.5t232.5 -95.5q211 -53 315.5 -142.5t104.5 -257.5q0 -176 -120 -278.5t-327 -102.5z" />
    <glyph glyph-name="T" unicode="T" horiz-adv-x="1093" 
d="M1059 1262q0 -27 -8 -52h-449v-1212q-29 -6 -57 -6q-29 0 -56 6v1212h-448q-8 25 -8 52q0 29 8 53h1010q8 -24 8 -53z" />
    <glyph glyph-name="U" unicode="U" horiz-adv-x="1376" 
d="M696 -29q-231 0 -373.5 145.5t-142.5 395.5v803q41 8 58 8q23 0 59 -8v-803q0 -193 105.5 -311.5t293.5 -118.5q182 0 283.5 118.5t101.5 311.5v803q41 8 60 8q20 0 53 -8v-803q0 -248 -135.5 -394.5t-362.5 -146.5z" />
    <glyph glyph-name="V" unicode="V" horiz-adv-x="1234" 
d="M1114 1327q35 0 68 -14q-164 -655 -502 -1313q-29 -6 -59.5 -6t-59.5 6q-311 573 -510 1313q35 14 72 14q29 0 51 -8q168 -659 451 -1208q311 639 438 1208q24 8 51 8z" />
    <glyph glyph-name="W" unicode="W" horiz-adv-x="1847" 
d="M1724.5 1325q28.5 0 65.5 -12q-172 -752 -412 -1313q-27 -10 -67 -10q-33 0 -60 10l-288 944l-25 105l-31 -107l-317 -942q-41 -8 -62 -8q-27 0 -67 8q-217 512 -393 1313q37 14 73 14q31 0 52 -6q121 -631 335 -1204l23 88l328 991q23 8 57.5 8t56.5 -8l310 -987l22 -90
q223 580 350 1200q21 6 49.5 6z" />
    <glyph glyph-name="X" unicode="X" horiz-adv-x="1169" 
d="M662 666l468 -658q-41 -12 -79 -12q-23 0 -56 4l-415 586l-420 -586q-20 -4 -49 -4q-39 0 -80 12l479 658l-440 649q45 10 92 10q31 0 41 -2l389 -575l391 575q10 2 41 2q53 0 88 -10z" />
    <glyph glyph-name="Y" unicode="Y" horiz-adv-x="1163" 
d="M1120 1313l-479 -781v-532q-37 -8 -59 -8q-18 0 -56 8v535l-493 778q37 12 78 12q23 0 47 -4l407 -641l23 -47l22 47l391 641q14 4 53 4t66 -12z" />
    <glyph glyph-name="Z" unicode="Z" horiz-adv-x="1144" 
d="M1067 100q8 -25 8 -47q0 -29 -8 -53h-979q-10 27 -10 59q0 47 35 88l778 1027l33 40l-834 -2q-8 31 -8 52q0 27 8 51h957q8 -25 8 -60q0 -49 -35 -90l-776 -1022l-35 -43h858z" />
    <glyph glyph-name="bracketleft" unicode="[" horiz-adv-x="583" 
d="M309 -268h199q12 -53 0 -103h-313v1778h313q12 -49 0 -102h-199v-1573z" />
    <glyph glyph-name="backslash" unicode="\" horiz-adv-x="1017" 
d="M913 -326q-29 0 -55 7l-805 1667q29 6 56 6q29 0 53 -6l805 -1667q-25 -7 -54 -7z" />
    <glyph glyph-name="bracketright" unicode="]" horiz-adv-x="583" 
d="M76 1407h313v-1778h-313q-12 49 0 103h198v1573h-198q-12 53 0 102z" />
    <glyph glyph-name="asciicircum" unicode="^" horiz-adv-x="1030" 
d="M174 698q-51 8 -84 47l371 641q55 12 106 0l373 -641q-33 -39 -82 -47l-344 588z" />
    <glyph glyph-name="underscore" unicode="_" horiz-adv-x="892" 
d="M8 -168q-8 23 -8 49.5t8 44.5h879q6 -20 6 -44.5t-6 -49.5h-879z" />
    <glyph glyph-name="grave" unicode="`" horiz-adv-x="462" 
d="M381 1077l-332 223q25 70 74 95l291 -271q-4 -29 -33 -47z" />
    <glyph glyph-name="a" unicode="a" horiz-adv-x="1019" 
d="M481 989q176 0 286 -89t110 -273v-564q-160 -88 -394 -88q-195 0 -296 85t-101 225q0 143 108.5 222t278.5 79q162 0 293 -64v101q0 129 -77 194.5t-212 65.5q-160 0 -289 -95q-47 23 -57 76q47 45 139 85t211 40zM203 293q0 -98 72.5 -156.5t209.5 -58.5q160 0 281 49
v287q-131 70 -293 69q-127 0 -198.5 -50t-71.5 -140z" />
    <glyph glyph-name="b" unicode="b" horiz-adv-x="1136" 
d="M553 989q209 0 345 -133t136 -360q0 -242 -141 -380.5t-365 -138.5q-201 0 -366 84l2 1287q27 6 55 6q31 0 57 -6v-441q123 82 277 82zM528 84q180 0 285 107.5t105 297.5q0 176 -100.5 284t-274.5 108q-158 0 -267 -86l-2 -658q98 -53 254 -53z" />
    <glyph glyph-name="c" unicode="c" horiz-adv-x="991" 
d="M586 -25q-213 0 -348.5 136.5t-135.5 369.5q0 227 139.5 367.5t344.5 140.5q195 0 317 -110q-16 -53 -65 -84q-113 90 -252 90q-170 0 -268.5 -117t-98.5 -287q0 -174 97.5 -286.5t269.5 -112.5q150 0 268 96q49 -29 64 -82q-135 -121 -332 -121z" />
    <glyph glyph-name="d" unicode="d" horiz-adv-x="1136" 
d="M918 1354q29 0 57 -6v-1285q-166 -88 -367 -88q-221 0 -363.5 132.5t-142.5 368t148.5 373.5t359.5 138q154 0 252 -53v414q25 6 56 6zM608 82q139 -2 254 47v686q-94 66 -250 66q-172 0 -283.5 -112t-111.5 -292q0 -184 109.5 -289.5t281.5 -105.5z" />
    <glyph glyph-name="e" unicode="e" horiz-adv-x="1071" 
d="M979 541q0 -29 -6 -80h-754q4 -174 100.5 -277.5t255.5 -103.5q168 0 304 106q47 -23 61 -77q-158 -133 -365 -134q-211 0 -342 134.5t-131 369.5q0 227 132.5 368.5t324.5 141.5q182 0 300 -119.5t120 -328.5zM223 557h635q0 152 -82 241t-217 89q-139 0 -230.5 -93.5
t-105.5 -236.5z" />
    <glyph glyph-name="f" unicode="f" horiz-adv-x="647" 
d="M520 1368q82 0 142.5 -27.5t87.5 -56.5q-14 -55 -62 -80q-82 61 -170 62q-82 0 -138 -52.5t-56 -164.5v-86l284 -2q8 -18 8 -46q0 -25 -8 -47l-284 2v-870q-25 -6 -56 -6q-29 0 -53 6v870h-143q-6 25 -6 45q0 27 6 48h143v71q0 164 92 249t213 85z" />
    <glyph glyph-name="g" unicode="g" horiz-adv-x="1130" 
d="M606 989q217 0 363 -125v-848q0 -182 -120 -296.5t-308 -114.5q-270 0 -416 166q18 57 76 77q121 -141 340 -141q147 0 230 85t83 224v99q-125 -76 -258 -76q-215 0 -355.5 126t-140.5 343q0 215 145.5 348t360.5 133zM604 141q135 0 250 84v580q-94 78 -248 78
q-170 0 -278.5 -104.5t-108.5 -270.5q0 -172 105.5 -269.5t279.5 -97.5z" />
    <glyph glyph-name="h" unicode="h" horiz-adv-x="1155" 
d="M598 989q199 0 300 -110.5t101 -278.5v-600q-29 -6 -57.5 -6t-56.5 6v565q0 315 -310 316q-150 0 -292 -97v-784q-29 -6 -57.5 -6t-57.5 6v1348q29 6 57.5 6t57.5 -6v-453q149 94 315 94z" />
    <glyph glyph-name="i" unicode="i" horiz-adv-x="456" 
d="M229.5 1159q-36.5 0 -64.5 26.5t-28 63.5t26.5 63.5t65.5 26.5q37 0 62.5 -26.5t25.5 -63.5q0 -39 -25.5 -64.5t-62 -25.5zM229 -6q-29 0 -57 6v961q27 6 57.5 6t55.5 -6v-961q-25 -6 -56 -6z" />
    <glyph glyph-name="j" unicode="j" horiz-adv-x="485" 
d="M258 1155q-37 0 -64.5 26.5t-27.5 63.5t26.5 63.5t65.5 26.5q37 0 62.5 -26.5t25.5 -63.5q0 -39 -25.5 -64.5t-62.5 -25.5zM23 -401q-154 0 -234 84q14 53 64 79q86 -61 157 -61q82 0 136.5 56.5t54.5 174.5v1029q29 6 55 6q31 0 59 -6v-1029q0 -162 -88.5 -247.5
t-203.5 -85.5z" />
    <glyph glyph-name="k" unicode="k" horiz-adv-x="968" 
d="M496 508l456 -504q-37 -10 -80 -10q-35 0 -55 4l-411 448q-49 -33 -125 -73v-373q-25 -6 -56 -6q-29 0 -57 6v1348q29 6 57 6q31 0 56 -6v-856q145 76 278 201.5t209 267.5q18 4 59 4q39 0 62 -9q-133 -249 -393 -448z" />
    <glyph glyph-name="l" unicode="l" horiz-adv-x="456" 
d="M227 -6q-27 0 -55 6v1348q29 6 55 6q33 0 58 -6v-1348q-25 -6 -58 -6z" />
    <glyph glyph-name="m" unicode="m" horiz-adv-x="1761" 
d="M1225 989q182 0 283.5 -107.5t97.5 -269.5v-612q-29 -6 -57.5 -6t-57.5 6v571q4 137 -64.5 224.5t-222.5 87.5q-158 0 -286 -121q25 -72 24 -150v-612q-25 -6 -55 -6q-33 0 -58 6v571q0 139 -66.5 225.5t-217.5 86.5q-141 0 -271 -82v-801q-29 -6 -57.5 -6t-56.5 6v850
q168 139 403 139q205 0 309 -141q152 141 353 141z" />
    <glyph glyph-name="n" unicode="n" horiz-adv-x="1148" 
d="M584 989q205 0 307 -108.5t102 -280.5v-600q-27 -6 -57.5 -6t-56.5 6v567q0 315 -310 316q-164 0 -295 -84v-799q-29 -6 -57.5 -6t-56.5 6v850q178 139 424 139z" />
    <glyph glyph-name="o" unicode="o" horiz-adv-x="1173" 
d="M584 -23q-211 0 -347.5 142.5t-136.5 363.5q0 217 140.5 362.5t349.5 145.5q211 0 347 -145.5t136 -362.5t-140 -361.5t-349 -144.5zM588 84q168 0 269 112.5t101 286.5q0 172 -101 286t-269 114t-269.5 -114t-101.5 -286q0 -174 101.5 -286.5t269.5 -112.5z" />
    <glyph glyph-name="p" unicode="p" horiz-adv-x="1136" 
d="M545 989q215 0 352 -132t137 -365q0 -242 -140 -378.5t-345 -136.5q-164 0 -275 52v-412q-29 -6 -57 -6q-29 0 -55 6l-2 1233q172 139 385 139zM545 84q166 0 270.5 108.5t104.5 299.5q0 178 -104.5 283.5t-270.5 105.5q-150 0 -273 -84l2 -652q107 -61 271 -61z" />
    <glyph glyph-name="q" unicode="q" horiz-adv-x="1136" 
d="M606 989q115 0 214.5 -40t156.5 -99l-2 -1233q-29 -6 -57 -6q-31 0 -56 6v434q-119 -74 -268 -74q-217 0 -354.5 131.5t-137.5 367t146.5 374.5t357.5 139zM596 84q168 0 266 86l2 623q-106 88 -258 88q-170 0 -278.5 -112t-108.5 -292q0 -182 104.5 -287.5t272.5 -105.5
z" />
    <glyph glyph-name="r" unicode="r" horiz-adv-x="761" 
d="M735 958q4 -59 -28 -100q-80 23 -181 23q-150 0 -252 -66v-815q-25 -6 -57 -6q-29 0 -57 6v866q152 123 377 123q114 0 198 -31z" />
    <glyph glyph-name="s" unicode="s" horiz-adv-x="921" 
d="M444 -23q-225 0 -356 117q18 57 66 84q119 -100 290 -100q137 0 205 50t68 132q0 78 -59.5 120t-211.5 66q-160 25 -246.5 85.5t-86.5 183.5t100 198.5t264 75.5q209 0 324 -88q-8 -51 -49 -88q-123 74 -285 74q-117 0 -179.5 -42t-62.5 -118q0 -74 55.5 -110.5
t186.5 -59.5q182 -31 272 -93.5t90 -191.5q0 -135 -103.5 -215t-281.5 -80z" />
    <glyph glyph-name="t" unicode="t" horiz-adv-x="784" 
d="M721 147q41 -27 51 -81q-104 -88 -252 -89q-133 0 -218 76t-85 234v581h-168q-6 25 -6 47.5t6 45.5h168v258q25 6 55.5 6t55.5 -6v-258h387q6 -23 6 -45.5t-6 -47.5h-387v-553q0 -238 200 -237q91 -1 193 69z" />
    <glyph glyph-name="u" unicode="u" horiz-adv-x="1134" 
d="M915.5 967q30.5 0 57.5 -6v-900q-201 -88 -420 -88q-199 0 -298 100.5t-99 276.5v611q27 6 57 6q29 0 57 -6v-564q0 -158 66.5 -237.5t243.5 -79.5q143 0 278 55v826q27 6 57.5 6z" />
    <glyph glyph-name="v" unicode="v" horiz-adv-x="997" 
d="M500 -8q-33 0 -58 6q-113 188 -221 451.5t-172 506.5q27 10 72 11q18 0 47 -4q53 -211 149.5 -447.5t174.5 -380.5q10 -25 10 -26h2q0 2 10 26q238 465 320 828q29 4 47 4q41 0 65 -11q-80 -399 -393 -958q-24 -6 -53 -6z" />
    <glyph glyph-name="w" unicode="w" horiz-adv-x="1474" 
d="M1352 965q45 0 67 -9q-49 -238 -155.5 -510t-210.5 -448q-20 -6 -58 -6q-31 0 -55 6q-102 195 -201 475q-72 -246 -196 -475q-23 -6 -62 -6q-31 0 -55 6q-113 188 -215 450.5t-160 507.5q23 8 72 9q12 0 26.5 -1t18.5 -1q49 -215 142 -458t169 -386q2 -4 8 -23h2
q0 14 7 23q115 242 194 504q-51 168 -90 333q18 8 72 9q10 0 24.5 -1t20.5 -1q47 -223 129 -464t151 -380q6 -10 9 -23h2q0 10 6 23q207 416 293 844q4 0 20.5 1t24.5 1z" />
    <glyph glyph-name="x" unicode="x" horiz-adv-x="954" 
d="M547 492l366 -488q-29 -12 -59 -12q-47 0 -68 4l-313 424l-305 -424q-16 -4 -53 -4q-35 0 -64 12l355 488l-343 462q27 10 74 11q16 2 49 -2l297 -402l273 402q33 4 53 2q35 0 65 -11z" />
    <glyph glyph-name="y" unicode="y" horiz-adv-x="1009" 
d="M891 967q31 0 67 -13q-113 -492 -350 -895q-150 -250 -354 -473q-59 12 -82 70q174 188 281 362q-127 199 -234.5 451t-163.5 487q31 10 70 11q23 0 51 -4q92 -403 330 -826l14 -24l12 24q229 416 310 826q24 4 49 4z" />
    <glyph glyph-name="z" unicode="z" horiz-adv-x="946" 
d="M866 96q8 -20 8 -47q0 -25 -8 -49h-778q-8 25 -8 47q0 61 51 119l569 672l27 26h-631l-2 21q-4 18 -4 28q0 4 6 48h750q4 -25 4 -41q0 -66 -49 -123l-545 -645l-53 -56h663z" />
    <glyph glyph-name="braceleft" unicode="{" horiz-adv-x="638" 
d="M494 -262h71q10 -51 0 -103h-71q-125 0 -184.5 73t-59.5 192v397q0 170 -127 170h-64q-10 31 -10 55.5t10 55.5h64q127 0 127 170v389q0 121 59.5 195.5t184.5 74.5h71q10 -49 0 -102h-71q-68 0 -98.5 -40t-30.5 -128v-389q0 -162 -95 -226q94 -66 95 -225v-397
q0 -84 30.5 -123t98.5 -39z" />
    <glyph glyph-name="bar" unicode="|" horiz-adv-x="487" 
d="M193 -358v1751q49 16 102 0v-1751q-57 -16 -102 0z" />
    <glyph glyph-name="braceright" unicode="}" horiz-adv-x="638" 
d="M580 578q10 -31 10 -55.5t-10 -55.5h-64q-127 0 -127 -170v-397q0 -117 -60.5 -191t-183.5 -74h-71q-12 51 0 103h71q68 0 98.5 39t30.5 123v397q0 160 95 225q-94 63 -95 226v389q0 88 -30.5 128t-98.5 40h-71q-12 53 0 102h71q123 0 183.5 -76t60.5 -194v-389
q0 -170 127 -170h64z" />
    <glyph glyph-name="asciitilde" unicode="~" horiz-adv-x="1116" 
d="M231 352q-55 6 -84 51q78 145 240 146q59 0 175 -41t167 -41q104 0 156 96q57 -6 86 -53q-35 -72 -99.5 -112t-142.5 -40q-70 0 -182.5 41t-159.5 41q-105 0 -156 -88z" />
    <glyph glyph-name="uni00A0" unicode="&#xa0;" horiz-adv-x="518" 
 />
    <glyph glyph-name="exclamdown" unicode="&#xa1;" horiz-adv-x="464" 
d="M231 813q-35 0 -59.5 24.5t-24.5 59.5q0 37 25 60.5t59 23.5q37 0 61.5 -23.5t24.5 -60.5q0 -35 -24.5 -59.5t-61.5 -24.5zM231.5 -362q-30.5 0 -61.5 6q4 508 31 1011q20 4 30 4q8 0 33 -4q29 -522 29 -1011q-31 -6 -61.5 -6z" />
    <glyph glyph-name="cent" unicode="&#xa2;" horiz-adv-x="1011" 
d="M913 268q-123 -109 -301 -116v-211q-14 -4 -47 -4q-31 0 -47 4v215q-188 20 -302 144t-114 335q0 201 117 330t299 151v221q18 6 47 6t47 -6v-217q184 -8 299 -114q-16 -53 -65 -82q-100 86 -234 94v-762q139 6 242 92q47 -31 59 -80zM219 635q0 -152 79 -253t220 -122
v752q-141 -20 -220 -125t-79 -252z" />
    <glyph glyph-name="sterling" unicode="&#xa3;" horiz-adv-x="1079" 
d="M979 104q8 -25 8 -49q0 -29 -8 -55h-819q0 109 72.5 255t72.5 253q0 25 -4 65h-205q-4 33 -4 52q0 16 4 49h185q-6 16 -30 72.5t-33 101.5t-9 108q0 166 111.5 278t302.5 112q205 0 350 -121q-12 -59 -66 -86q-127 104 -284 104q-143 0 -222 -82t-79 -192
q0 -61 11 -108.5t32.5 -99.5t31.5 -87h373q6 -25 6 -49q0 -27 -6 -52h-354q2 -20 2 -65q0 -66 -22.5 -136.5t-57.5 -150.5t-47 -117h688z" />
    <glyph glyph-name="currency" unicode="&#xa4;" horiz-adv-x="1263" 
d="M1106 653q0 -162 -102 -295l112 -114q-37 -55 -84 -82l-112 114q-129 -96 -287 -96q-160 0 -287 96l-115 -114q-51 31 -81 82l112 116q-102 129 -102 293q0 166 100 293l-115 119q37 55 84 84l115 -119q127 98 289 98t287 -98l114 117q49 -31 84 -82l-114 -117
q102 -127 102 -295zM630.5 289q151.5 0 258 106.5t106.5 260t-106.5 260t-258 106.5t-257 -106.5t-105.5 -260t105.5 -260t257 -106.5z" />
    <glyph glyph-name="yen" unicode="&#xa5;" horiz-adv-x="1103" 
d="M895 551h-287v-152h287q6 -20 6 -45q0 -23 -6 -47h-287v-307q-25 -6 -57 -6q-29 0 -59 6v307h-289q-6 25 -6 47.5t6 44.5h289v152h-289q-6 23 -6 45t6 45h256l-398 659q35 10 68 11q29 0 53 -4l357 -598l18 -37l16 37l361 598q14 4 51 4q31 0 62 -11l-402 -659h250
q6 -20 6 -45q0 -22 -6 -45z" />
    <glyph glyph-name="brokenbar" unicode="&#xa6;" horiz-adv-x="485" 
d="M190 678v715q53 18 105 0v-715q-52 -18 -105 0zM190 -358v716q53 14 105 0v-716q-60 -16 -105 0z" />
    <glyph glyph-name="section" unicode="&#xa7;" horiz-adv-x="1101" 
d="M559 258l-299 272q-168 152 -168 357q0 195 135 329t332 134q205 0 391 -136q-10 -63 -63 -88q-82 59 -152.5 87t-175.5 28q-152 0 -254 -102.5t-102 -254t131 -270.5l301 -272q-21 -57 -76 -84zM543 -223q-211 0 -389 135q8 63 63 88q80 -59 150.5 -87t175.5 -28
q154 0 256 101.5t102 253.5q0 156 -129 274l-301 274q18 55 78 84l299 -272q162 -145 162 -360q0 -195 -134 -329t-333 -134z" />
    <glyph glyph-name="dieresis" unicode="&#xa8;" horiz-adv-x="686" 
d="M139 1149q-37 0 -61.5 23.5t-24.5 60.5q0 35 24.5 59.5t61.5 24.5q35 0 59.5 -24.5t24.5 -59.5q0 -37 -24.5 -60.5t-59.5 -23.5zM549 1149q-37 0 -61.5 23.5t-24.5 60.5q0 35 24.5 59.5t61.5 24.5q35 0 59.5 -24.5t24.5 -59.5q0 -37 -24.5 -60.5t-59.5 -23.5z" />
    <glyph glyph-name="copyright" unicode="&#xa9;" horiz-adv-x="1544" 
d="M774.5 -49q-276.5 0 -469 198.5t-192.5 481.5q0 285 192.5 483.5t469 198.5t467 -199t190.5 -483q0 -283 -190.5 -481.5t-467 -198.5zM774 35q238 0 406 175t168 421q0 248 -168 422t-406 174q-242 0 -408.5 -173t-166.5 -423q0 -248 166.5 -422t408.5 -174zM788 236
q-168 0 -273 105t-105 288q0 178 107.5 285.5t270.5 107.5q162 0 265 -94q-12 -51 -58 -78q-90 76 -207 76q-133 0 -206.5 -85t-73.5 -212q0 -129 72.5 -213t207.5 -84q129 0 218 80q45 -27 53 -78q-111 -98 -271 -98z" />
    <glyph glyph-name="ordfeminine" unicode="&#xaa;" horiz-adv-x="778" 
d="M387 1362q252 0 252 -250v-354q-123 -57 -268 -58q-121 0 -188.5 55.5t-67.5 145.5q0 96 71.5 151.5t186.5 55.5q100 0 174 -37v53q0 145 -168 150q-104 2 -193 -66q-45 20 -51 68q115 86 252 86zM215 907q0 -61 45 -94t121 -33q98 0 166 31v172q-78 43 -168 43
q-78 0 -121 -32t-43 -87z" />
    <glyph glyph-name="guillemotleft" unicode="&#xab;" horiz-adv-x="872" 
d="M362 217l-272 305l272 314q37 -8 54 -45l-185 -267l185 -266q-13 -33 -54 -41zM680 217l-272 305l272 314q37 -8 53 -45l-184 -267l184 -266q-12 -33 -53 -41z" />
    <glyph glyph-name="registered" unicode="&#xae;" horiz-adv-x="1544" 
d="M774.5 1522q276.5 0 467 -199t190.5 -483q0 -283 -190.5 -481.5t-467 -198.5t-469 198.5t-192.5 481.5q0 285 192.5 483.5t469 198.5zM774 244q238 0 407 175t169 421q0 248 -169 422t-407 174q-242 0 -408.5 -173t-166.5 -423q0 -248 166.5 -422t408.5 -174zM1063 1008
q0 -84 -45 -142.5t-123 -85.5l195 -336q-33 -8 -54 -8q-35 0 -45 2l-186 326q-12 -2 -35 -2q-96 0 -160 10v-328q-10 -6 -43 -6q-29 0 -45 6v775q111 27 244 26q147 0 222 -63t75 -174zM610 856q59 -12 160 -12q203 2 203 160q0 160 -207 159q-78 0 -156 -10v-297z" />
    <glyph glyph-name="macron" unicode="&#xaf;" horiz-adv-x="641" 
d="M61 1165q-6 16 -6 47q0 25 6 48h519q8 -23 8 -47.5t-8 -47.5h-519z" />
    <glyph glyph-name="degree" unicode="&#xb0;" horiz-adv-x="675" 
d="M338 920q-96 0 -165 68.5t-69 166.5q0 96 69 165t165 69t164.5 -69t68.5 -165q0 -98 -68.5 -166.5t-164.5 -68.5zM340 997q63 0 108.5 47.5t45.5 110.5q0 66 -45.5 111t-108.5 45q-66 0 -111 -45t-45 -111q0 -63 45 -110.5t111 -47.5z" />
    <glyph glyph-name="plusminus" unicode="&#xb1;" horiz-adv-x="1110" 
d="M506 571h-363q-4 29 -4 49.5t4 49.5h361v323q33 4 51 4q20 0 49 -4v-323h361q6 -23 6 -49.5t-6 -49.5h-361v-323q-25 -4 -49 -4q-20 0 -49 4v323zM143 96h820q6 -23 6 -51.5t-6 -48.5h-820q-6 23 -6 49q0 28 6 51z" />
    <glyph glyph-name="acute" unicode="&#xb4;" horiz-adv-x="440" 
d="M82 1077q-27 16 -35 47l293 271q49 -27 74 -95z" />
    <glyph glyph-name="paragraph" unicode="&#xb6;" horiz-adv-x="1173" 
d="M580 1333q225 0 391 -57v-1643q-25 -8 -58 -8q-31 0 -57 8v859q-133 -20 -268 -21q-258 0 -392.5 119t-134.5 317q0 197 133.5 311.5t385.5 114.5zM590 575q162 0 266 19v602q-135 33 -274 33q-199 0 -299.5 -84t-100.5 -238q0 -156 103.5 -244t304.5 -88zM543 293
q25 8 57 8q31 0 55 -8v-658q-37 -8 -55 -8q-20 0 -57 8v658z" />
    <glyph glyph-name="periodcentered" unicode="&#xb7;" horiz-adv-x="466" 
d="M233.5 582q-38.5 0 -65.5 26.5t-27 65.5t27 65.5t65.5 26.5t66.5 -26.5t28 -65.5t-28 -65.5t-66.5 -26.5z" />
    <glyph glyph-name="cedilla" unicode="&#xb8;" horiz-adv-x="466" 
d="M215 12h82l-35 -92q156 -29 156 -141q0 -88 -67.5 -127t-153.5 -39q-88 0 -129 22q6 45 30 74q41 -18 97 -18q53 0 86.5 20.5t33.5 59.5q0 45 -39.5 65.5t-119.5 24.5z" />
    <glyph glyph-name="ordmasculine" unicode="&#xba;" horiz-adv-x="856" 
d="M426 700q-141 0 -230.5 90.5t-89.5 240t91.5 240.5t232.5 91t230.5 -91t89.5 -241q0 -147 -92.5 -238.5t-231.5 -91.5zM428 791q102 0 161.5 64.5t59.5 175t-59.5 175t-161.5 64.5q-100 0 -161.5 -65.5t-61.5 -174t60.5 -174t162.5 -65.5z" />
    <glyph glyph-name="guillemotright" unicode="&#xbb;" horiz-adv-x="872" 
d="M195 217q-43 8 -56 41l185 264l-185 269q16 37 56 45l270 -314zM512 217q-43 8 -55 41l184 264l-184 269q16 37 55 45l270 -314z" />
    <glyph glyph-name="onequarter" unicode="&#xbc;" horiz-adv-x="1509" 
d="M1149 1346q55 12 111 0l-971 -1442q-57 -16 -111 0zM268 541v661l-157 -80q-31 27 -41 78q190 102 225 111q16 4 37 4q23 0 43 -4v-770q-33 -4 -53.5 -4t-53.5 4zM1438 209q0 -16 -4 -49h-80v-162q-16 -2 -49 -2q-31 0 -48 2v162h-372q-29 70 8 141l262 498q53 -2 94 -41
l-231 -441q-20 -45 -19 -65h258v231q16 2 48 2q33 0 49 -2v-231h82q2 -14 2 -43z" />
    <glyph glyph-name="onehalf" unicode="&#xbd;" horiz-adv-x="1515" 
d="M1133 1346q57 12 112 0l-971 -1442q-55 -16 -112 0zM260 541v661l-158 -82q-31 27 -41 80q143 78 184.5 96.5t82.5 18.5q18 0 39 -4v-770q-33 -4 -53.5 -4t-53.5 4zM1427 92q8 -16 9 -49q0 -25 -9 -43h-509q-4 12 -5 27q0 35 35 69q205 205 271.5 294t66.5 163
q0 59 -38 97t-107 38q-102 0 -170 -76q-45 14 -56 62q90 106 226 106q111 0 179.5 -58t68.5 -163q0 -94 -63.5 -181t-215.5 -241l-31 -31l-26 -18l41 4h333z" />
    <glyph glyph-name="threequarters" unicode="&#xbe;" horiz-adv-x="1583" 
d="M1257 1346q55 12 111 0l-971 -1442q-55 -14 -110 0zM330 625q84 0 138 44t54 122q0 166 -219 165h-43q-6 10 -6 21q0 27 16 45l172 203h-344q-4 33 -4 45q0 20 4 45h484q10 -45 -23 -82l-176 -199q106 -8 172 -67.5t66 -171.5q0 -121 -85 -187.5t-206 -66.5
q-147 0 -240 82q12 47 49 73q89 -71 191 -71zM1516 209q0 -16 -5 -49h-79v-162q-16 -2 -50 -2q-31 0 -47 2v162h-372q-29 70 8 141l264 498q51 -2 92 -41l-229 -441q-23 -43 -21 -65h258v231q16 2 47 2q33 0 50 -2v-231h81q3 -14 3 -43z" />
    <glyph glyph-name="questiondown" unicode="&#xbf;" horiz-adv-x="839" 
d="M485 817q-35 0 -59.5 24.5t-24.5 59.5q0 37 25 61.5t59.5 24.5t60 -24.5t25.5 -61.5q0 -35 -24.5 -59.5t-61.5 -24.5zM502 -344q-184 0 -300 112.5t-116 299.5q0 162 100.5 274.5t257.5 138.5q2 45 19 168q4 0 14 1t17 1q4 0 13 -1t15 -1q20 -141 23 -264h-17
q-152 0 -240.5 -86t-88.5 -231q0 -137 83 -220.5t220 -83.5q127 0 225 72q45 -31 51 -78q-106 -102 -276 -102z" />
    <glyph glyph-name="Agrave" unicode="&#xc0;" horiz-adv-x="1214" 
d="M778 1442q-2 -33 -24 -51l-369 168q2 70 59 104zM662 1315l516 -1305q-27 -16 -72 -16q-35 0 -51 4l-154 399h-590l-147 -397q-25 -6 -47 -6q-41 0 -72 16l500 1305q25 8 59 8q33 0 58 -8zM348 496h514l-231 598l-31 94l-31 -94z" />
    <glyph glyph-name="Aacute" unicode="&#xc1;" horiz-adv-x="1214" 
d="M446 1391q-25 20 -26 51l334 221q57 -33 59 -104zM662 1315l516 -1305q-27 -16 -72 -16q-35 0 -51 4l-154 399h-590l-147 -397q-25 -6 -47 -6q-41 0 -72 16l500 1305q25 8 59 8q33 0 58 -8zM348 496h514l-231 598l-31 94l-31 -94z" />
    <glyph glyph-name="Acircumflex" unicode="&#xc2;" horiz-adv-x="1214" 
d="M381 1389q-33 18 -41 59l223 197q43 12 84 0l223 -195q-12 -41 -41 -61l-229 163zM662 1315l516 -1305q-27 -16 -72 -16q-35 0 -51 4l-154 399h-590l-147 -397q-25 -6 -47 -6q-41 0 -72 16l500 1305q25 8 59 8q33 0 58 -8zM348 496h514l-231 598l-31 94l-31 -94z" />
    <glyph glyph-name="Atilde" unicode="&#xc3;" horiz-adv-x="1214" 
d="M477 1518q-96 0 -123 -91q-55 0 -86 31q49 158 205 158q51 0 139 -43t123 -43q94 0 121 90q61 0 86 -31q-49 -158 -201 -157q-55 0 -143 43t-121 43zM662 1315l516 -1305q-27 -16 -72 -16q-35 0 -51 4l-154 399h-590l-147 -397q-25 -6 -47 -6q-41 0 -72 16l500 1305
q25 8 59 8q33 0 58 -8zM348 496h514l-231 598l-31 94l-31 -94z" />
    <glyph glyph-name="Adieresis" unicode="&#xc4;" horiz-adv-x="1214" 
d="M406 1452q-37 0 -62 23.5t-25 60.5q0 35 25 58.5t62 23.5q33 0 56 -23.5t23 -58.5q0 -37 -22 -60.5t-57 -23.5zM807 1452q-35 0 -58.5 23.5t-23.5 60.5q0 35 23.5 58.5t58.5 23.5q33 0 57.5 -24.5t24.5 -57.5q0 -37 -23.5 -60.5t-58.5 -23.5zM662 1315l516 -1305
q-27 -16 -72 -16q-35 0 -51 4l-154 399h-590l-147 -397q-25 -6 -47 -6q-41 0 -72 16l500 1305q25 8 59 8q33 0 58 -8zM348 496h514l-231 598l-31 94l-31 -94z" />
    <glyph glyph-name="Aring" unicode="&#xc5;" horiz-adv-x="1214" 
d="M606 1341q-78 0 -133 55.5t-55 133.5t55 132t133 54t132.5 -55t54.5 -131q0 -78 -54.5 -133.5t-132.5 -55.5zM606 1638q-45 0 -74.5 -31.5t-29.5 -76.5t29.5 -77t74.5 -32t74 32t29 77t-29 76.5t-74 31.5zM662 1315l516 -1305q-27 -16 -72 -16q-35 0 -51 4l-154 399h-590
l-147 -397q-25 -6 -47 -6q-41 0 -72 16l500 1305q25 8 59 8q33 0 58 -8zM348 496h514l-231 598l-31 94l-31 -94z" />
    <glyph glyph-name="AE" unicode="&#xc6;" horiz-adv-x="1638" 
d="M1540 106q6 -29 6 -51q0 -27 -6 -55h-719v545h-381l-321 -547q-16 -4 -47 -4q-35 0 -74 14l768 1307h745q8 -37 9 -55q0 -14 -9 -52h-575v-557h514q8 -37 8 -53t-8 -53h-514v-439h604zM504 651h317v471l4 84l-45 -86z" />
    <glyph glyph-name="Ccedilla" unicode="&#xc7;" horiz-adv-x="1228" 
d="M750 -80q156 -29 155 -141q0 -88 -67.5 -127t-153.5 -39q-88 0 -129 22q6 45 31 74q41 -18 96 -18q53 0 87 20.5t34 59.5q0 45 -40 65.5t-120 24.5l45 112q-262 20 -419.5 210t-157.5 474q0 301 182 496t463 195q231 0 393 -123q-10 -61 -62 -90q-150 104 -331 104
q-231 0 -379 -160.5t-148 -421.5q0 -258 143.5 -417.5t370.5 -159.5q223 0 363 119q51 -31 59 -88q-156 -131 -395 -140z" />
    <glyph glyph-name="Egrave" unicode="&#xc8;" horiz-adv-x="1110" 
d="M784 1442q-2 -33 -24 -51l-369 168q2 70 60 104zM1010 104q8 -23 8 -49q0 -33 -8 -55h-813v1315h788q8 -23 8 -55q0 -29 -8 -52h-676v-475h609q8 -23 8 -51.5t-8 -52.5h-609v-525h701z" />
    <glyph glyph-name="Eacute" unicode="&#xc9;" horiz-adv-x="1110" 
d="M453 1391q-25 20 -27 51l334 221q57 -33 59 -104zM1010 104q8 -23 8 -49q0 -33 -8 -55h-813v1315h788q8 -23 8 -55q0 -29 -8 -52h-676v-475h609q8 -23 8 -51.5t-8 -52.5h-609v-525h701z" />
    <glyph glyph-name="Ecircumflex" unicode="&#xca;" horiz-adv-x="1110" 
d="M387 1389q-33 18 -41 59l223 197q43 12 84 0l224 -195q-12 -41 -41 -61l-230 163zM1010 104q8 -23 8 -49q0 -33 -8 -55h-813v1315h788q8 -23 8 -55q0 -29 -8 -52h-676v-475h609q8 -23 8 -51.5t-8 -52.5h-609v-525h701z" />
    <glyph glyph-name="Edieresis" unicode="&#xcb;" horiz-adv-x="1110" 
d="M412 1452q-37 0 -61.5 23.5t-24.5 60.5q0 35 24.5 58.5t61.5 23.5q33 0 56.5 -23.5t23.5 -58.5q0 -37 -22.5 -60.5t-57.5 -23.5zM813 1452q-35 0 -58.5 23.5t-23.5 60.5q0 35 23.5 58.5t58.5 23.5t58.5 -24.5t23.5 -57.5q0 -37 -23.5 -60.5t-58.5 -23.5zM1010 104
q8 -23 8 -49q0 -33 -8 -55h-813v1315h788q8 -23 8 -55q0 -29 -8 -52h-676v-475h609q8 -23 8 -51.5t-8 -52.5h-609v-525h701z" />
    <glyph glyph-name="Igrave" unicode="&#xcc;" horiz-adv-x="507" 
d="M365 1399l-304 164q6 68 64 98l268 -217q-1 -27 -28 -45zM254 -8q-16 0 -57 8v1315q27 8 57 8q33 0 57 -8v-1315q-37 -8 -57 -8z" />
    <glyph glyph-name="Iacute" unicode="&#xcd;" horiz-adv-x="507" 
d="M131 1395q-27 16 -29 45l269 217q57 -29 63 -98zM254 -8q-16 0 -57 8v1315q27 8 57 8q33 0 57 -8v-1315q-37 -8 -57 -8z" />
    <glyph glyph-name="Icircumflex" unicode="&#xce;" horiz-adv-x="507" 
d="M74 1395q-39 16 -47 49l188 201q41 10 78 0l188 -193q-10 -35 -47 -55l-184 153zM254 -8q-16 0 -57 8v1315q27 8 57 8q33 0 57 -8v-1315q-37 -8 -57 -8z" />
    <glyph glyph-name="Idieresis" unicode="&#xcf;" horiz-adv-x="507" 
d="M104.5 1440q-34.5 0 -59.5 24.5t-25 59.5t25 58.5t59.5 23.5t58 -23.5t23.5 -58.5t-23.5 -59.5t-58 -24.5zM409.5 1440q-34.5 0 -59 24.5t-24.5 59.5t24.5 58.5t59.5 23.5q33 0 57.5 -25t24.5 -57q0 -35 -24 -59.5t-58.5 -24.5zM254 -8q-16 0 -57 8v1315q27 8 57 8
q33 0 57 -8v-1315q-37 -8 -57 -8z" />
    <glyph glyph-name="Eth" unicode="&#xd0;" horiz-adv-x="1380" 
d="M545 1333q342 0 532.5 -183t190.5 -484q0 -303 -192.5 -493.5t-518.5 -190.5q-205 0 -360 22v608h-154q-8 29 -8 47q0 20 8 50h154v598q174 26 348 26zM559 86q279 0 434.5 156.5t155.5 419.5q0 258 -155.5 411.5t-448.5 153.5q-139 0 -236 -13v-505h240q8 -29 8 -47
q0 -16 -8 -50h-240v-512q113 -14 250 -14z" />
    <glyph glyph-name="Ntilde" unicode="&#xd1;" horiz-adv-x="1396" 
d="M573 1518q-96 0 -122 -91q-55 0 -86 31q49 158 204 158q53 0 141.5 -43t120.5 -43q94 0 121 90q61 0 86 -31q-49 -158 -200 -157q-55 0 -143.5 43t-121.5 43zM1145 1325q18 0 55 -8v-1309q-43 -12 -100 -12l-766 1081l-29 53l2 -61v-1069q-25 -8 -55.5 -8t-54.5 8v1305
q51 29 104 16l766 -1083l27 -45l-2 65v1059q37 8 53 8z" />
    <glyph glyph-name="Ograve" unicode="&#xd2;" horiz-adv-x="1495" 
d="M895 1391l-369 168q2 70 60 104l334 -221q-2 -33 -25 -51zM748 -27q-283 0 -460 194.5t-177 491.5q0 295 177 492t459.5 197t459.5 -193.5t177 -495.5q0 -293 -177.5 -489.5t-458.5 -196.5zM747.5 80q235.5 0 377 161.5t141.5 417.5q0 260 -141.5 421t-376.5 161
q-238 0 -378.5 -160.5t-140.5 -421.5q0 -256 141.5 -417.5t377 -161.5z" />
    <glyph glyph-name="Oacute" unicode="&#xd3;" horiz-adv-x="1495" 
d="M588 1391q-25 20 -27 51l334 221q57 -33 59 -104zM748 -27q-283 0 -460 194.5t-177 491.5q0 295 177 492t459.5 197t459.5 -193.5t177 -495.5q0 -293 -177.5 -489.5t-458.5 -196.5zM747.5 80q235.5 0 377 161.5t141.5 417.5q0 260 -141.5 421t-376.5 161
q-238 0 -378.5 -160.5t-140.5 -421.5q0 -256 141.5 -417.5t377 -161.5z" />
    <glyph glyph-name="Ocircumflex" unicode="&#xd4;" horiz-adv-x="1495" 
d="M522 1389q-33 18 -41 59l224 197q43 12 83 0l224 -195q-12 -41 -41 -61l-230 163zM748 -27q-283 0 -460 194.5t-177 491.5q0 295 177 492t459.5 197t459.5 -193.5t177 -495.5q0 -293 -177.5 -489.5t-458.5 -196.5zM747.5 80q235.5 0 377 161.5t141.5 417.5
q0 260 -141.5 421t-376.5 161q-238 0 -378.5 -160.5t-140.5 -421.5q0 -256 141.5 -417.5t377 -161.5z" />
    <glyph glyph-name="Otilde" unicode="&#xd5;" horiz-adv-x="1495" 
d="M496 1427q-55 0 -86 31q49 158 204 158q53 0 141.5 -43t121.5 -43q94 0 120 90q61 0 86 -31q-49 -158 -200 -157q-55 0 -143.5 43t-121.5 43q-95 -1 -122 -91zM748 -27q-283 0 -460 194.5t-177 491.5q0 295 177 492t459.5 197t459.5 -193.5t177 -495.5
q0 -293 -177.5 -489.5t-458.5 -196.5zM747.5 80q235.5 0 377 161.5t141.5 417.5q0 260 -141.5 421t-376.5 161q-238 0 -378.5 -160.5t-140.5 -421.5q0 -256 141.5 -417.5t377 -161.5z" />
    <glyph glyph-name="Odieresis" unicode="&#xd6;" horiz-adv-x="1495" 
d="M547 1452q-37 0 -61.5 23.5t-24.5 60.5q0 35 24.5 58.5t61.5 23.5q33 0 56.5 -23.5t23.5 -58.5q0 -37 -22.5 -60.5t-57.5 -23.5zM948 1452q-35 0 -58.5 23.5t-23.5 60.5q0 35 23.5 58.5t58.5 23.5t58.5 -24.5t23.5 -57.5q0 -37 -23.5 -60.5t-58.5 -23.5zM748 -27
q-283 0 -460 194.5t-177 491.5q0 295 177 492t459.5 197t459.5 -193.5t177 -495.5q0 -293 -177.5 -489.5t-458.5 -196.5zM747.5 80q235.5 0 377 161.5t141.5 417.5q0 260 -141.5 421t-376.5 161q-238 0 -378.5 -160.5t-140.5 -421.5q0 -256 141.5 -417.5t377 -161.5z" />
    <glyph glyph-name="multiply" unicode="&#xd7;" horiz-adv-x="940" 
d="M805 760l-262 -262l262 -265q-27 -43 -72 -71l-262 264l-262 -262q-41 23 -72 69l262 263l-262 262q27 45 72 71l262 -262l262 262q43 -24 72 -69z" />
    <glyph glyph-name="Oslash" unicode="&#xd8;" horiz-adv-x="1495" 
d="M1384 1280l-147 -162q147 -186 147 -459q0 -293 -178 -489.5t-458 -196.5q-246 0 -416 152l-142 -156q-59 20 -73 74l143 158q-150 184 -149 458q0 295 177 492t460 197q246 0 419 -154l142 154q52 -17 75 -68zM229 659q0 -221 109 -374l756 827q-139 129 -346 129
q-238 0 -378.5 -161t-140.5 -421zM1266 659q0 223 -105 375l-755 -829q137 -125 342 -125q236 0 377 161.5t141 417.5z" />
    <glyph glyph-name="Ugrave" unicode="&#xd9;" horiz-adv-x="1376" 
d="M848 1391l-369 168q2 70 60 104l333 -221q-1 -33 -24 -51zM696 -29q-231 0 -373.5 145.5t-142.5 395.5v803q41 8 58 8q23 0 59 -8v-803q0 -193 105.5 -311.5t293.5 -118.5q182 0 283.5 118.5t101.5 311.5v803q41 8 60 8q20 0 53 -8v-803q0 -248 -135.5 -394.5
t-362.5 -146.5z" />
    <glyph glyph-name="Uacute" unicode="&#xda;" horiz-adv-x="1376" 
d="M541 1391q-25 20 -27 51l334 221q57 -33 59 -104zM696 -29q-231 0 -373.5 145.5t-142.5 395.5v803q41 8 58 8q23 0 59 -8v-803q0 -193 105.5 -311.5t293.5 -118.5q182 0 283.5 118.5t101.5 311.5v803q41 8 60 8q20 0 53 -8v-803q0 -248 -135.5 -394.5t-362.5 -146.5z" />
    <glyph glyph-name="Ucircumflex" unicode="&#xdb;" horiz-adv-x="1376" 
d="M475 1389q-33 18 -41 59l223 197q43 12 84 0l224 -195q-12 -41 -41 -61l-230 163zM696 -29q-231 0 -373.5 145.5t-142.5 395.5v803q41 8 58 8q23 0 59 -8v-803q0 -193 105.5 -311.5t293.5 -118.5q182 0 283.5 118.5t101.5 311.5v803q41 8 60 8q20 0 53 -8v-803
q0 -248 -135.5 -394.5t-362.5 -146.5z" />
    <glyph glyph-name="Udieresis" unicode="&#xdc;" horiz-adv-x="1376" 
d="M500 1452q-37 0 -61.5 23.5t-24.5 60.5q0 35 24.5 58.5t61.5 23.5q33 0 56.5 -23.5t23.5 -58.5q0 -37 -22.5 -60.5t-57.5 -23.5zM901 1452q-35 0 -58.5 23.5t-23.5 60.5q0 35 23.5 58.5t58.5 23.5q33 0 57.5 -24.5t24.5 -57.5q0 -37 -23.5 -60.5t-58.5 -23.5zM696 -29
q-231 0 -373.5 145.5t-142.5 395.5v803q41 8 58 8q23 0 59 -8v-803q0 -193 105.5 -311.5t293.5 -118.5q182 0 283.5 118.5t101.5 311.5v803q41 8 60 8q20 0 53 -8v-803q0 -248 -135.5 -394.5t-362.5 -146.5z" />
    <glyph glyph-name="Yacute" unicode="&#xdd;" horiz-adv-x="1163" 
d="M422 1391q-25 20 -27 51l334 221q57 -33 59 -104zM1120 1313l-479 -781v-532q-37 -8 -59 -8q-18 0 -56 8v535l-493 778q37 12 78 12q23 0 47 -4l407 -641l23 -47l22 47l391 641q14 4 53 4t66 -12z" />
    <glyph glyph-name="Thorn" unicode="&#xde;" horiz-adv-x="1103" 
d="M541 1073q236 0 359.5 -108.5t123.5 -297t-126 -307t-353 -118.5q-133 0 -232 12v-254q-37 -8 -57 -8q-18 0 -59 8v1315q41 8 59 8q20 0 57 -8v-266q117 24 228 24zM543 344q182 0 271 86t89 238q0 139 -92 220t-272 81q-117 0 -226 -23v-586q115 -18 230 -16z" />
    <glyph glyph-name="germandbls" unicode="&#xdf;" horiz-adv-x="1163" 
d="M819 551q137 -57 200.5 -119.5t63.5 -171.5q0 -131 -87 -207t-230 -76q-98 0 -174 35t-117 80q10 57 66 82q92 -96 225 -96q102 0 153.5 45t51.5 123q0 72 -44 111.5t-159 86.5q-63 27 -98 45.5t-77 50t-61.5 73.5t-19.5 100q0 125 93 192.5t229 67.5q25 0 49 -4
q-2 156 -79 248t-220.5 92t-223 -82t-79.5 -232v-995q-27 -6 -56 -6t-57 6v995q0 193 120 305.5t296 112.5q184 0 297.5 -117.5t113.5 -337.5q0 -55 -10 -96q-70 14 -149 15q-98 0 -154.5 -40t-56.5 -110q0 -61 41.5 -96t152.5 -80z" />
    <glyph glyph-name="agrave" unicode="&#xe0;" horiz-adv-x="1019" 
d="M657 1124q-4 -29 -32 -47l-332 223q25 70 74 95zM481 989q176 0 286 -89t110 -273v-564q-160 -88 -394 -88q-195 0 -296 85t-101 225q0 143 108.5 222t278.5 79q162 0 293 -64v101q0 129 -77 194.5t-212 65.5q-160 0 -289 -95q-47 23 -57 76q47 45 139 85t211 40z
M203 293q0 -98 72.5 -156.5t209.5 -58.5q160 0 281 49v287q-131 70 -293 69q-127 0 -198.5 -50t-71.5 -140z" />
    <glyph glyph-name="aacute" unicode="&#xe1;" horiz-adv-x="1019" 
d="M346 1077q-27 16 -35 47l293 271q49 -27 74 -95zM481 989q176 0 286 -89t110 -273v-564q-160 -88 -394 -88q-195 0 -296 85t-101 225q0 143 108.5 222t278.5 79q162 0 293 -64v101q0 129 -77 194.5t-212 65.5q-160 0 -289 -95q-47 23 -57 76q47 45 139 85t211 40z
M203 293q0 -98 72.5 -156.5t209.5 -58.5q160 0 281 49v287q-131 70 -293 69q-127 0 -198.5 -50t-71.5 -140z" />
    <glyph glyph-name="acircumflex" unicode="&#xe2;" horiz-adv-x="1019" 
d="M285 1087q-41 16 -56 60l224 231q41 10 82 0l221 -231q-18 -47 -60 -64l-207 193zM481 989q176 0 286 -89t110 -273v-564q-160 -88 -394 -88q-195 0 -296 85t-101 225q0 143 108.5 222t278.5 79q162 0 293 -64v101q0 129 -77 194.5t-212 65.5q-160 0 -289 -95
q-47 23 -57 76q47 45 139 85t211 40zM203 293q0 -98 72.5 -156.5t209.5 -58.5q160 0 281 49v287q-131 70 -293 69q-127 0 -198.5 -50t-71.5 -140z" />
    <glyph glyph-name="atilde" unicode="&#xe3;" horiz-adv-x="1019" 
d="M365 1235q-84 0 -113 -92q-57 0 -88 31q49 158 192 157q57 0 146.5 -43t124.5 -43q82 0 112 90q53 0 84 -30q-20 -74 -71.5 -115t-116.5 -41q-57 0 -146 43t-124 43zM481 989q176 0 286 -89t110 -273v-564q-160 -88 -394 -88q-195 0 -296 85t-101 225q0 143 108.5 222
t278.5 79q162 0 293 -64v101q0 129 -77 194.5t-212 65.5q-160 0 -289 -95q-47 23 -57 76q47 45 139 85t211 40zM203 293q0 -98 72.5 -156.5t209.5 -58.5q160 0 281 49v287q-131 70 -293 69q-127 0 -198.5 -50t-71.5 -140z" />
    <glyph glyph-name="adieresis" unicode="&#xe4;" horiz-adv-x="1019" 
d="M291 1149q-37 0 -61.5 23.5t-24.5 60.5q0 35 24.5 59.5t61.5 24.5q35 0 59.5 -24.5t24.5 -59.5q0 -37 -24.5 -60.5t-59.5 -23.5zM700 1149q-37 0 -61.5 23.5t-24.5 60.5q0 35 25 59.5t61 24.5q35 0 59.5 -24.5t24.5 -59.5q0 -37 -24.5 -60.5t-59.5 -23.5zM481 989
q176 0 286 -89t110 -273v-564q-160 -88 -394 -88q-195 0 -296 85t-101 225q0 143 108.5 222t278.5 79q162 0 293 -64v101q0 129 -77 194.5t-212 65.5q-160 0 -289 -95q-47 23 -57 76q47 45 139 85t211 40zM203 293q0 -98 72.5 -156.5t209.5 -58.5q160 0 281 49v287
q-131 70 -293 69q-127 0 -198.5 -50t-71.5 -140z" />
    <glyph glyph-name="aring" unicode="&#xe5;" horiz-adv-x="1019" 
d="M496 1044q-78 0 -133.5 55.5t-55.5 133.5t55.5 133t133 55t132 -55t54.5 -133t-55 -133.5t-131 -55.5zM496 1343q-45 0 -76 -32.5t-31 -77.5q0 -43 31 -76t76 -33q47 0 76.5 32t29.5 77t-29.5 77.5t-76.5 32.5zM481 989q176 0 286 -89t110 -273v-564q-160 -88 -394 -88
q-195 0 -296 85t-101 225q0 143 108.5 222t278.5 79q162 0 293 -64v101q0 129 -77 194.5t-212 65.5q-160 0 -289 -95q-47 23 -57 76q47 45 139 85t211 40zM203 293q0 -98 72.5 -156.5t209.5 -58.5q160 0 281 49v287q-131 70 -293 69q-127 0 -198.5 -50t-71.5 -140z" />
    <glyph glyph-name="ae" unicode="&#xe6;" horiz-adv-x="1638" 
d="M412 -25q-152 0 -239 78t-87 215q0 135 103.5 212t283.5 77l264 2v78q0 125 -73.5 184.5t-198.5 59.5q-152 0 -281 -99q-41 25 -59 80q139 127 344 127q289 0 350 -233q43 109 137.5 171t204.5 62q176 0 276.5 -125t100.5 -340q0 -41 -2 -63h-684v-6q0 -172 90 -273.5
t232 -101.5q72 0 132 20.5t83.5 37t66.5 50.5q45 -27 62 -86q-166 -127 -344 -127q-313 0 -390 279q-39 -135 -142 -207t-230 -72zM854 559h567q0 139 -64.5 232.5t-191.5 93.5q-131 0 -217 -93.5t-94 -232.5zM418 76q55 0 107.5 18.5t102.5 59.5t79.5 117.5t29.5 181.5v8
h-264q-268 -2 -268 -193q-2 -90 56.5 -141t156.5 -51z" />
    <glyph glyph-name="ccedilla" unicode="&#xe7;" horiz-adv-x="991" 
d="M594 -80q156 -29 156 -141q0 -88 -68 -127t-154 -39q-88 0 -129 22q6 45 31 74q41 -18 96 -18q53 0 87 20.5t34 59.5q0 45 -40 65.5t-120 24.5l45 116q-193 16 -311.5 150.5t-118.5 353.5q0 227 139.5 367.5t344.5 140.5q195 0 317 -110q-16 -53 -65 -84q-113 90 -252 90
q-170 0 -268.5 -117t-98.5 -287q0 -174 97.5 -286.5t269.5 -112.5q150 0 268 96q49 -29 64 -82q-125 -111 -304 -121z" />
    <glyph glyph-name="egrave" unicode="&#xe8;" horiz-adv-x="1071" 
d="M719 1124q-4 -29 -33 -47l-332 223q25 70 74 95zM979 541q0 -29 -6 -80h-754q4 -174 100.5 -277.5t255.5 -103.5q168 0 304 106q47 -23 61 -77q-158 -133 -365 -134q-211 0 -342 134.5t-131 369.5q0 227 132.5 368.5t324.5 141.5q182 0 300 -119.5t120 -328.5zM223 557
h635q0 152 -82 241t-217 89q-139 0 -230.5 -93.5t-105.5 -236.5z" />
    <glyph glyph-name="eacute" unicode="&#xe9;" horiz-adv-x="1071" 
d="M408 1077q-27 16 -35 47l293 271q49 -27 73 -95zM979 541q0 -29 -6 -80h-754q4 -174 100.5 -277.5t255.5 -103.5q168 0 304 106q47 -23 61 -77q-158 -133 -365 -134q-211 0 -342 134.5t-131 369.5q0 227 132.5 368.5t324.5 141.5q182 0 300 -119.5t120 -328.5zM223 557
h635q0 152 -82 241t-217 89q-139 0 -230.5 -93.5t-105.5 -236.5z" />
    <glyph glyph-name="ecircumflex" unicode="&#xea;" horiz-adv-x="1071" 
d="M346 1087q-41 16 -55 60l223 231q41 10 82 0l221 -231q-18 -47 -59 -64l-207 193zM979 541q0 -29 -6 -80h-754q4 -174 100.5 -277.5t255.5 -103.5q168 0 304 106q47 -23 61 -77q-158 -133 -365 -134q-211 0 -342 134.5t-131 369.5q0 227 132.5 368.5t324.5 141.5
q182 0 300 -119.5t120 -328.5zM223 557h635q0 152 -82 241t-217 89q-139 0 -230.5 -93.5t-105.5 -236.5z" />
    <glyph glyph-name="edieresis" unicode="&#xeb;" horiz-adv-x="1071" 
d="M350 1149q-37 0 -61.5 23.5t-24.5 60.5q0 35 24.5 59.5t61.5 24.5q35 0 59.5 -24.5t24.5 -59.5q0 -37 -24.5 -60.5t-59.5 -23.5zM760 1149q-37 0 -61.5 23.5t-24.5 60.5q0 35 24.5 59.5t61.5 24.5q35 0 59.5 -24.5t24.5 -59.5q0 -37 -24.5 -60.5t-59.5 -23.5zM979 541
q0 -29 -6 -80h-754q4 -174 100.5 -277.5t255.5 -103.5q168 0 304 106q47 -23 61 -77q-158 -133 -365 -134q-211 0 -342 134.5t-131 369.5q0 227 132.5 368.5t324.5 141.5q182 0 300 -119.5t120 -328.5zM223 557h635q0 152 -82 241t-217 89q-139 0 -230.5 -93.5
t-105.5 -236.5z" />
    <glyph glyph-name="igrave" unicode="&#xec;" horiz-adv-x="456" 
d="M336 1077l-301 244q20 68 88 92l254 -291q-8 -31 -41 -45zM229 -6q-29 0 -57 6v961q27 6 57.5 6t55.5 -6v-961q-25 -6 -56 -6z" />
    <glyph glyph-name="iacute" unicode="&#xed;" horiz-adv-x="456" 
d="M113 1077q-33 14 -41 45l256 291q68 -27 88 -92zM229 -6q-29 0 -57 6v961q27 6 57.5 6t55.5 -6v-961q-25 -6 -56 -6z" />
    <glyph glyph-name="icircumflex" unicode="&#xee;" horiz-adv-x="456" 
d="M51 1100q-37 12 -51 47l186 235q39 6 74 -2l182 -233q-12 -35 -49 -47l-172 180zM229 -6q-29 0 -57 6v961q27 6 57.5 6t55.5 -6v-961q-25 -6 -56 -6z" />
    <glyph glyph-name="idieresis" unicode="&#xef;" horiz-adv-x="456" 
d="M65.5 1149q-34.5 0 -60 23.5t-25.5 58.5t24.5 58.5t61.5 23.5q35 0 57 -23.5t22 -58.5t-22.5 -58.5t-57 -23.5zM379 1149q-35 0 -59.5 23.5t-24.5 58.5t24.5 58.5t59.5 23.5t58.5 -23.5t23.5 -58.5t-23.5 -58.5t-58.5 -23.5zM229 -6q-29 0 -57 6v961q27 6 57.5 6t55.5 -6
v-961q-25 -6 -56 -6z" />
    <glyph glyph-name="eth" unicode="&#xf0;" horiz-adv-x="1112" 
d="M666 1196q338 -238 338 -741q0 -211 -127 -345.5t-332 -134.5q-195 0 -318 127t-123 330q0 199 128 329t313 130q195 0 315 -127q-76 236 -289 364l-178 -127q-20 16 -28 29q-14 20 -17 37l146 104q-86 41 -201 70q-4 68 43 109q147 -45 258 -107l151 109q10 -6 29 -29
q12 -16 17 -37zM553 78q156 0 244 99t88 263q0 154 -91.5 252.5t-238.5 98.5q-152 0 -244 -98.5t-92 -260.5q0 -158 91 -256t243 -98z" />
    <glyph glyph-name="ntilde" unicode="&#xf1;" horiz-adv-x="1148" 
d="M438 1235q-84 0 -112 -92q-57 0 -88 31q49 158 192 157q57 0 146.5 -43t123.5 -43q82 0 113 90q53 0 84 -30q-20 -74 -71.5 -115t-116.5 -41q-57 0 -146.5 43t-124.5 43zM584 989q205 0 307 -108.5t102 -280.5v-600q-27 -6 -57.5 -6t-56.5 6v567q0 315 -310 316
q-164 0 -295 -84v-799q-29 -6 -57.5 -6t-56.5 6v850q178 139 424 139z" />
    <glyph glyph-name="ograve" unicode="&#xf2;" horiz-adv-x="1173" 
d="M719 1077l-332 223q25 70 74 95l291 -271q-4 -29 -33 -47zM584 -23q-211 0 -347.5 142.5t-136.5 363.5q0 217 140.5 362.5t349.5 145.5q211 0 347 -145.5t136 -362.5t-140 -361.5t-349 -144.5zM588 84q168 0 269 112.5t101 286.5q0 172 -101 286t-269 114t-269.5 -114
t-101.5 -286q0 -174 101.5 -286.5t269.5 -112.5z" />
    <glyph glyph-name="oacute" unicode="&#xf3;" horiz-adv-x="1173" 
d="M440 1077q-27 16 -34 47l292 271q49 -27 74 -95zM584 -23q-211 0 -347.5 142.5t-136.5 363.5q0 217 140.5 362.5t349.5 145.5q211 0 347 -145.5t136 -362.5t-140 -361.5t-349 -144.5zM588 84q168 0 269 112.5t101 286.5q0 172 -101 286t-269 114t-269.5 -114t-101.5 -286
q0 -174 101.5 -286.5t269.5 -112.5z" />
    <glyph glyph-name="ocircumflex" unicode="&#xf4;" horiz-adv-x="1173" 
d="M379 1087q-41 16 -55 60l223 231q41 10 82 0l221 -231q-18 -47 -59 -64l-207 193zM584 -23q-211 0 -347.5 142.5t-136.5 363.5q0 217 140.5 362.5t349.5 145.5q211 0 347 -145.5t136 -362.5t-140 -361.5t-349 -144.5zM588 84q168 0 269 112.5t101 286.5q0 172 -101 286
t-269 114t-269.5 -114t-101.5 -286q0 -174 101.5 -286.5t269.5 -112.5z" />
    <glyph glyph-name="otilde" unicode="&#xf5;" horiz-adv-x="1173" 
d="M346 1143q-57 0 -88 31q49 158 193 157q57 0 146 -43t124 -43q82 0 113 90q53 0 84 -30q-20 -74 -71.5 -115t-117.5 -41q-57 0 -146 43t-124 43q-84 0 -113 -92zM584 -23q-211 0 -347.5 142.5t-136.5 363.5q0 217 140.5 362.5t349.5 145.5q211 0 347 -145.5t136 -362.5
t-140 -361.5t-349 -144.5zM588 84q168 0 269 112.5t101 286.5q0 172 -101 286t-269 114t-269.5 -114t-101.5 -286q0 -174 101.5 -286.5t269.5 -112.5z" />
    <glyph glyph-name="odieresis" unicode="&#xf6;" horiz-adv-x="1173" 
d="M385 1149q-37 0 -61.5 23.5t-24.5 60.5q0 35 24.5 59.5t61.5 24.5q35 0 59.5 -24.5t24.5 -59.5q0 -37 -24.5 -60.5t-59.5 -23.5zM795 1149q-37 0 -61.5 23.5t-24.5 60.5q0 35 24.5 59.5t61.5 24.5q35 0 59.5 -24.5t24.5 -59.5q0 -37 -24.5 -60.5t-59.5 -23.5zM584 -23
q-211 0 -347.5 142.5t-136.5 363.5q0 217 140.5 362.5t349.5 145.5q211 0 347 -145.5t136 -362.5t-140 -361.5t-349 -144.5zM588 84q168 0 269 112.5t101 286.5q0 172 -101 286t-269 114t-269.5 -114t-101.5 -286q0 -174 101.5 -286.5t269.5 -112.5z" />
    <glyph glyph-name="divide" unicode="&#xf7;" horiz-adv-x="1093" 
d="M547 705q-39 0 -67.5 27.5t-28.5 66.5q0 41 28.5 68.5t67.5 27.5t67.5 -27.5t28.5 -68.5q0 -39 -28.5 -66.5t-67.5 -27.5zM137 434q-6 25 -6 49.5t6 48.5h819q6 -23 7 -49q0 -25 -7 -49h-819zM547 74q-39 0 -67.5 27.5t-28.5 66.5q0 41 28.5 68.5t67.5 27.5t67.5 -27.5
t28.5 -68.5q0 -39 -28.5 -66.5t-67.5 -27.5z" />
    <glyph glyph-name="oslash" unicode="&#xf8;" horiz-adv-x="1179" 
d="M1075 956l-117 -131q117 -139 117 -342q0 -217 -140 -361.5t-349 -144.5q-172 0 -299 99l-119 -131q-49 18 -62 63l117 129q-121 141 -121 346q0 217 140.5 362.5t351.5 145.5q176 0 303 -104l115 127q49 -19 63 -58zM219 483q0 -154 80 -262l524 582q-96 80 -233 80
q-168 0 -269.5 -114t-101.5 -286zM961 483q0 147 -78 258l-523 -581q92 -76 230 -76q168 0 269.5 112.5t101.5 286.5z" />
    <glyph glyph-name="ugrave" unicode="&#xf9;" horiz-adv-x="1134" 
d="M733 1124q-4 -29 -33 -47l-331 223q25 70 73 95zM915.5 967q30.5 0 57.5 -6v-900q-201 -88 -420 -88q-199 0 -298 100.5t-99 276.5v611q27 6 57 6q29 0 57 -6v-564q0 -158 66.5 -237.5t243.5 -79.5q143 0 278 55v826q27 6 57.5 6z" />
    <glyph glyph-name="uacute" unicode="&#xfa;" horiz-adv-x="1134" 
d="M422 1077q-27 16 -35 47l293 271q49 -27 74 -95zM915.5 967q30.5 0 57.5 -6v-900q-201 -88 -420 -88q-199 0 -298 100.5t-99 276.5v611q27 6 57 6q29 0 57 -6v-564q0 -158 66.5 -237.5t243.5 -79.5q143 0 278 55v826q27 6 57.5 6z" />
    <glyph glyph-name="ucircumflex" unicode="&#xfb;" horiz-adv-x="1134" 
d="M360 1087q-41 16 -55 60l223 231q41 10 82 0l221 -231q-18 -47 -59 -64l-207 193zM915.5 967q30.5 0 57.5 -6v-900q-201 -88 -420 -88q-199 0 -298 100.5t-99 276.5v611q27 6 57 6q29 0 57 -6v-564q0 -158 66.5 -237.5t243.5 -79.5q143 0 278 55v826q27 6 57.5 6z" />
    <glyph glyph-name="udieresis" unicode="&#xfc;" horiz-adv-x="1134" 
d="M365 1149q-37 0 -61.5 23.5t-24.5 60.5q0 35 24.5 59.5t61.5 24.5q35 0 59.5 -24.5t24.5 -59.5q0 -37 -24.5 -60.5t-59.5 -23.5zM774 1149q-37 0 -61.5 23.5t-24.5 60.5q0 35 24.5 59.5t61.5 24.5q35 0 59.5 -24.5t24.5 -59.5q0 -37 -24.5 -60.5t-59.5 -23.5zM915.5 967
q30.5 0 57.5 -6v-900q-201 -88 -420 -88q-199 0 -298 100.5t-99 276.5v611q27 6 57 6q29 0 57 -6v-564q0 -158 66.5 -237.5t243.5 -79.5q143 0 278 55v826q27 6 57.5 6z" />
    <glyph glyph-name="yacute" unicode="&#xfd;" horiz-adv-x="1009" 
d="M365 1077q-27 16 -35 47l293 271q49 -27 73 -95zM891 967q31 0 67 -13q-113 -492 -350 -895q-150 -250 -354 -473q-59 12 -82 70q174 188 281 362q-127 199 -234.5 451t-163.5 487q31 10 70 11q23 0 51 -4q92 -403 330 -826l14 -24l12 24q229 416 310 826q24 4 49 4z" />
    <glyph glyph-name="thorn" unicode="&#xfe;" horiz-adv-x="1144" 
d="M555 989q213 0 350 -130t137 -363q0 -238 -140 -378.5t-349 -140.5q-154 0 -272 50v-410q-25 -6 -56 -6q-29 0 -57 6v1731q29 6 57 6q31 0 56 -6v-426q135 67 274 67zM553 84q164 0 269.5 108.5t105.5 296.5q0 184 -103.5 288t-269.5 104q-152 0 -274 -72v-666
q106 -59 272 -59z" />
    <glyph glyph-name="ydieresis" unicode="&#xff;" horiz-adv-x="1009" 
d="M307 1149q-37 0 -61.5 23.5t-24.5 60.5q0 35 24.5 59.5t61.5 24.5q35 0 59.5 -24.5t24.5 -59.5q0 -37 -24.5 -60.5t-59.5 -23.5zM717 1149q-37 0 -61.5 23.5t-24.5 60.5q0 35 24.5 59.5t61.5 24.5q35 0 59.5 -24.5t24.5 -59.5q0 -37 -24.5 -60.5t-59.5 -23.5zM891 967
q31 0 67 -13q-113 -492 -350 -895q-150 -250 -354 -473q-59 12 -82 70q174 188 281 362q-127 199 -234.5 451t-163.5 487q31 10 70 11q23 0 51 -4q92 -403 330 -826l14 -24l12 24q229 416 310 826q24 4 49 4z" />
    <glyph glyph-name="Amacron" unicode="&#x100;" horiz-adv-x="1214" 
d="M870 1475h-530q-6 25 -6 49t6 45h530q6 -14 7 -45q-1 -33 -7 -49zM662 1315l516 -1305q-27 -16 -72 -16q-35 0 -51 4l-154 399h-590l-147 -397q-25 -6 -47 -6q-41 0 -72 16l500 1305q25 8 59 8q33 0 58 -8zM348 496h514l-231 598l-31 94l-31 -94z" />
    <glyph glyph-name="amacron" unicode="&#x101;" horiz-adv-x="1019" 
d="M754 1165h-518q-6 16 -7 47q0 25 7 48h518q8 -23 8 -47.5t-8 -47.5zM481 989q176 0 286 -89t110 -273v-564q-160 -88 -394 -88q-195 0 -296 85t-101 225q0 143 108.5 222t278.5 79q162 0 293 -64v101q0 129 -77 194.5t-212 65.5q-160 0 -289 -95q-47 23 -57 76
q47 45 139 85t211 40zM203 293q0 -98 72.5 -156.5t209.5 -58.5q160 0 281 49v287q-131 70 -293 69q-127 0 -198.5 -50t-71.5 -140z" />
    <glyph glyph-name="Abreve" unicode="&#x102;" horiz-adv-x="1214" 
d="M604.5 1413q-108.5 0 -182.5 63.5t-84 161.5q41 16 86 11q14 -68 64.5 -106t117.5 -38q70 0 122 39t60 105q43 6 82 -11q-6 -94 -81.5 -159.5t-184 -65.5zM662 1315l516 -1305q-27 -16 -72 -16q-35 0 -51 4l-154 399h-590l-147 -397q-25 -6 -47 -6q-41 0 -72 16l500 1305
q25 8 59 8q33 0 58 -8zM348 496h514l-231 598l-31 94l-31 -94z" />
    <glyph glyph-name="abreve" unicode="&#x103;" horiz-adv-x="1019" 
d="M493.5 1096q-116.5 0 -187 70.5t-79.5 185.5q39 16 84 10q27 -176 185 -176q76 0 125 46t57 130q49 4 82 -10q-4 -111 -77 -183.5t-189.5 -72.5zM481 989q176 0 286 -89t110 -273v-564q-160 -88 -394 -88q-195 0 -296 85t-101 225q0 143 108.5 222t278.5 79
q162 0 293 -64v101q0 129 -77 194.5t-212 65.5q-160 0 -289 -95q-47 23 -57 76q47 45 139 85t211 40zM203 293q0 -98 72.5 -156.5t209.5 -58.5q160 0 281 49v287q-131 70 -293 69q-127 0 -198.5 -50t-71.5 -140z" />
    <glyph glyph-name="Aogonek" unicode="&#x104;" horiz-adv-x="1214" 
d="M1157 -244q43 -27 43 -75q-68 -55 -162 -56q-72 0 -118 39t-46 109q0 61 50.5 122.5t130.5 104.5l-154 397h-590l-147 -397q-25 -6 -47 -6q-41 0 -72 16l500 1305q25 8 59 8q33 0 58 -8l516 -1305q-4 -4 -9 -4q-184 -102 -184 -201q0 -43 24.5 -62t57.5 -19q53 -1 90 32z
M348 496h514l-231 598l-31 94l-31 -94z" />
    <glyph glyph-name="aogonek" unicode="&#x105;" horiz-adv-x="1019" 
d="M852 -240q45 -20 45 -69q-70 -66 -170 -66q-70 0 -114 39t-44 107q0 113 129 229q-109 -25 -215 -25q-195 0 -296 85t-101 225q0 143 108.5 222t278.5 79q162 0 293 -64v101q0 129 -77 194.5t-212 65.5q-160 0 -289 -95q-47 23 -57 76q47 45 139 85t211 40q176 0 286 -89
t110 -273v-564q-82 -59 -139.5 -131.5t-57.5 -130.5q0 -39 22.5 -58t55.5 -19q53 -1 94 36zM203 293q0 -98 72.5 -156.5t209.5 -58.5q160 0 281 49v287q-131 70 -293 69q-127 0 -198.5 -50t-71.5 -140z" />
    <glyph glyph-name="Cacute" unicode="&#x106;" horiz-adv-x="1228" 
d="M563 1391q-25 20 -26 51l333 221q57 -33 60 -104zM743 -29q-285 0 -458.5 192.5t-173.5 493.5t182 496t463 195q231 0 393 -123q-10 -61 -62 -90q-150 104 -331 104q-231 0 -379 -160.5t-148 -421.5q0 -258 143.5 -417.5t370.5 -159.5q223 0 363 119q51 -31 59 -88
q-168 -140 -422 -140z" />
    <glyph glyph-name="cacute" unicode="&#x107;" horiz-adv-x="991" 
d="M420 1077q-27 16 -35 47l293 271q49 -27 74 -95zM586 -25q-213 0 -348.5 136.5t-135.5 369.5q0 227 139.5 367.5t344.5 140.5q195 0 317 -110q-16 -53 -65 -84q-113 90 -252 90q-170 0 -268.5 -117t-98.5 -287q0 -174 97.5 -286.5t269.5 -112.5q150 0 268 96
q49 -29 64 -82q-135 -121 -332 -121z" />
    <glyph glyph-name="Cdotaccent" unicode="&#x10a;" horiz-adv-x="1228" 
d="M725 1452q-37 0 -62.5 24.5t-25.5 61.5t25.5 62.5t62.5 25.5q35 0 60.5 -25.5t25.5 -62.5t-25.5 -61.5t-60.5 -24.5zM743 -29q-285 0 -458.5 192.5t-173.5 493.5t182 496t463 195q231 0 393 -123q-10 -61 -62 -90q-150 104 -331 104q-231 0 -379 -160.5t-148 -421.5
q0 -258 143.5 -417.5t370.5 -159.5q223 0 363 119q51 -31 59 -88q-168 -140 -422 -140z" />
    <glyph glyph-name="cdotaccent" unicode="&#x10b;" horiz-adv-x="991" 
d="M569 1157q-37 0 -64.5 26.5t-27.5 63.5t26.5 63.5t65.5 26.5q37 0 62.5 -26.5t25.5 -63.5q0 -39 -25.5 -64.5t-62.5 -25.5zM586 -25q-213 0 -348.5 136.5t-135.5 369.5q0 227 139.5 367.5t344.5 140.5q195 0 317 -110q-16 -53 -65 -84q-113 90 -252 90
q-170 0 -268.5 -117t-98.5 -287q0 -174 97.5 -286.5t269.5 -112.5q150 0 268 96q49 -29 64 -82q-135 -121 -332 -121z" />
    <glyph glyph-name="Ccaron" unicode="&#x10c;" horiz-adv-x="1228" 
d="M682 1399l-223 194q12 39 43 62l227 -166l219 166q33 -23 41 -62l-223 -194q-43 -12 -84 0zM743 -29q-285 0 -458.5 192.5t-173.5 493.5t182 496t463 195q231 0 393 -123q-10 -61 -62 -90q-150 104 -331 104q-231 0 -379 -160.5t-148 -421.5q0 -258 143.5 -417.5
t370.5 -159.5q223 0 363 119q51 -31 59 -88q-168 -140 -422 -140z" />
    <glyph glyph-name="ccaron" unicode="&#x10d;" horiz-adv-x="991" 
d="M526 1094l-217 229q14 49 56 66l206 -195l207 190q43 -18 58 -61l-228 -229q-41 -10 -82 0zM586 -25q-213 0 -348.5 136.5t-135.5 369.5q0 227 139.5 367.5t344.5 140.5q195 0 317 -110q-16 -53 -65 -84q-113 90 -252 90q-170 0 -268.5 -117t-98.5 -287
q0 -174 97.5 -286.5t269.5 -112.5q150 0 268 96q49 -29 64 -82q-135 -121 -332 -121z" />
    <glyph glyph-name="Dcaron" unicode="&#x10e;" horiz-adv-x="1380" 
d="M664 1399q-43 -12 -84 0l-224 194q12 39 43 62l228 -166l219 166q33 -23 41 -62zM545 1333q342 0 532.5 -183t190.5 -484q0 -303 -192.5 -493.5t-518.5 -190.5q-205 0 -360 22v1303q174 26 348 26zM559 86q279 0 434.5 156.5t155.5 419.5q0 258 -155.5 411.5
t-448.5 153.5q-139 0 -236 -13v-1114q113 -14 250 -14z" />
    <glyph glyph-name="dcaron" unicode="&#x10f;" horiz-adv-x="1144" 
d="M1225 1370q10 -31 10 -86q0 -78 -26.5 -151.5t-67.5 -116.5q-31 2 -47 28q41 72 41 195q0 78 -21 129q18 12 60 12q26 0 51 -10zM862 1348q25 6 56 6q29 0 57 -6v-1285q-166 -88 -367 -88q-221 0 -363.5 132.5t-142.5 368t148.5 373.5t359.5 138q154 0 252 -53v414z
M608 82q139 -2 254 47v686q-94 66 -250 66q-172 0 -283.5 -112t-111.5 -292q0 -184 109.5 -289.5t281.5 -105.5z" />
    <glyph glyph-name="Dcroat" unicode="&#x110;" horiz-adv-x="1380" 
d="M545 1333q342 0 532.5 -183t190.5 -484q0 -303 -192.5 -493.5t-518.5 -190.5q-205 0 -360 22v608h-154q-8 29 -8 47q0 20 8 50h154v598q174 26 348 26zM559 86q279 0 434.5 156.5t155.5 419.5q0 258 -155.5 411.5t-448.5 153.5q-139 0 -236 -13v-505h240q8 -29 8 -47
q0 -16 -8 -50h-240v-512q113 -14 250 -14z" />
    <glyph glyph-name="dcroat" unicode="&#x111;" horiz-adv-x="1136" 
d="M1149 1178q0 -20 -6 -45h-168v-1070q-166 -88 -367 -88q-221 0 -363.5 132.5t-142.5 368t148.5 373.5t359.5 138q154 0 252 -53v199h-198q-6 23 -6.5 45t6.5 47h198v123q25 6 56 6q29 0 57 -6v-123h168q6 -20 6 -47zM608 82q139 -2 254 47v686q-94 66 -250 66
q-172 0 -283.5 -112t-111.5 -292q0 -184 109.5 -289.5t281.5 -105.5z" />
    <glyph glyph-name="Emacron" unicode="&#x112;" horiz-adv-x="1110" 
d="M877 1475h-531q-6 25 -6 49t6 45h531q6 -14 6 -45q0 -33 -6 -49zM1010 104q8 -23 8 -49q0 -33 -8 -55h-813v1315h788q8 -23 8 -55q0 -29 -8 -52h-676v-475h609q8 -23 8 -51.5t-8 -52.5h-609v-525h701z" />
    <glyph glyph-name="emacron" unicode="&#x113;" horiz-adv-x="1071" 
d="M813 1165h-518q-6 16 -6 47q0 25 6 48h518q8 -23 8 -47.5t-8 -47.5zM979 541q0 -29 -6 -80h-754q4 -174 100.5 -277.5t255.5 -103.5q168 0 304 106q47 -23 61 -77q-158 -133 -365 -134q-211 0 -342 134.5t-131 369.5q0 227 132.5 368.5t324.5 141.5q182 0 300 -119.5
t120 -328.5zM223 557h635q0 152 -82 241t-217 89q-139 0 -230.5 -93.5t-105.5 -236.5z" />
    <glyph glyph-name="Edotaccent" unicode="&#x116;" horiz-adv-x="1110" 
d="M612 1452q-37 0 -62.5 24.5t-25.5 61.5t25.5 62.5t62.5 25.5q35 0 60.5 -25.5t25.5 -62.5t-25.5 -61.5t-60.5 -24.5zM1010 104q8 -23 8 -49q0 -33 -8 -55h-813v1315h788q8 -23 8 -55q0 -29 -8 -52h-676v-475h609q8 -23 8 -51.5t-8 -52.5h-609v-525h701z" />
    <glyph glyph-name="edotaccent" unicode="&#x117;" horiz-adv-x="1071" 
d="M555 1157q-37 0 -64.5 26.5t-27.5 63.5t26.5 63.5t65.5 26.5q37 0 62.5 -26.5t25.5 -63.5q0 -39 -25.5 -64.5t-62.5 -25.5zM979 541q0 -29 -6 -80h-754q4 -174 100.5 -277.5t255.5 -103.5q168 0 304 106q47 -23 61 -77q-158 -133 -365 -134q-211 0 -342 134.5t-131 369.5
q0 227 132.5 368.5t324.5 141.5q182 0 300 -119.5t120 -328.5zM223 557h635q0 152 -82 241t-217 89q-139 0 -230.5 -93.5t-105.5 -236.5z" />
    <glyph glyph-name="Eogonek" unicode="&#x118;" horiz-adv-x="1110" 
d="M973 -244q43 -31 43 -75q-66 -57 -162 -58q-72 0 -118 40t-46 110q0 131 199 227h-692v1315h788q8 -23 8 -55q0 -29 -8 -52h-676v-475h609q8 -23 8 -51.5t-8 -52.5h-609v-525h701q8 -23 8 -49q0 -33 -8 -55q-84 -33 -146.5 -84t-62.5 -111q0 -43 24.5 -62t57.5 -19
q47 -1 90 32z" />
    <glyph glyph-name="eogonek" unicode="&#x119;" horiz-adv-x="1071" 
d="M979 541q0 -29 -6 -80h-754q4 -174 100.5 -277.5t255.5 -103.5q168 0 304 106q47 -23 61 -77q-45 -37 -70 -52q-80 -59 -134 -128.5t-54 -127.5q0 -39 22.5 -58t55.5 -19q53 0 94 36q45 -20 45 -69q-70 -66 -170 -66q-70 0 -114 39t-44 107q0 106 113 215
q-55 -10 -109 -11q-211 0 -342 134.5t-131 369.5q0 227 132.5 368.5t324.5 141.5q182 0 300 -119.5t120 -328.5zM223 557h635q0 152 -82 241t-217 89q-139 0 -230.5 -93.5t-105.5 -236.5z" />
    <glyph glyph-name="Ecaron" unicode="&#x11a;" horiz-adv-x="1110" 
d="M655 1399q-43 -12 -84 0l-223 194q12 39 43 62l227 -166l220 166q33 -23 41 -62zM1010 104q8 -23 8 -49q0 -33 -8 -55h-813v1315h788q8 -23 8 -55q0 -29 -8 -52h-676v-475h609q8 -23 8 -51.5t-8 -52.5h-609v-525h701z" />
    <glyph glyph-name="ecaron" unicode="&#x11b;" horiz-adv-x="1071" 
d="M594 1094q-41 -10 -82 0l-217 229q14 49 55 66l207 -195l207 190q43 -18 57 -61zM979 541q0 -29 -6 -80h-754q4 -174 100.5 -277.5t255.5 -103.5q168 0 304 106q47 -23 61 -77q-158 -133 -365 -134q-211 0 -342 134.5t-131 369.5q0 227 132.5 368.5t324.5 141.5
q182 0 300 -119.5t120 -328.5zM223 557h635q0 152 -82 241t-217 89q-139 0 -230.5 -93.5t-105.5 -236.5z" />
    <glyph glyph-name="Gbreve" unicode="&#x11e;" horiz-adv-x="1335" 
d="M768 1413q-109 0 -182.5 63.5t-83.5 161.5q41 16 86 11q14 -68 64 -106t118 -38q70 0 122 39t60 105q43 6 82 -11q-6 -94 -81.5 -159.5t-184.5 -65.5zM770 649h432v-573q-195 -104 -444 -105q-285 0 -466 188.5t-181 495.5q0 309 188 501t467 192q260 0 424 -121
q-12 -66 -62 -94q-164 106 -362 106q-233 0 -384 -157.5t-151 -426.5q0 -260 138.5 -417.5t390.5 -157.5q195 0 327 61v400h-317q-8 27 -8 55t8 53z" />
    <glyph glyph-name="gbreve" unicode="&#x11f;" horiz-adv-x="1130" 
d="M588 1096q-117 0 -187.5 70.5t-78.5 185.5q39 16 84 10q27 -176 184 -176q76 0 125 46t57 130q49 4 82 -10q-4 -111 -76.5 -183.5t-189.5 -72.5zM606 989q217 0 363 -125v-848q0 -182 -120 -296.5t-308 -114.5q-270 0 -416 166q18 57 76 77q121 -141 340 -141
q147 0 230 85t83 224v99q-125 -76 -258 -76q-215 0 -355.5 126t-140.5 343q0 215 145.5 348t360.5 133zM604 141q135 0 250 84v580q-94 78 -248 78q-170 0 -278.5 -104.5t-108.5 -270.5q0 -172 105.5 -269.5t279.5 -97.5z" />
    <glyph glyph-name="Gdotaccent" unicode="&#x120;" horiz-adv-x="1335" 
d="M770 1452q-37 0 -62.5 24.5t-25.5 61.5t25.5 62.5t62.5 25.5q35 0 60.5 -25.5t25.5 -62.5t-25.5 -61.5t-60.5 -24.5zM770 649h432v-573q-195 -104 -444 -105q-285 0 -466 188.5t-181 495.5q0 309 188 501t467 192q260 0 424 -121q-12 -66 -62 -94q-164 106 -362 106
q-233 0 -384 -157.5t-151 -426.5q0 -260 138.5 -417.5t390.5 -157.5q195 0 327 61v400h-317q-8 27 -8 55t8 53z" />
    <glyph glyph-name="gdotaccent" unicode="&#x121;" horiz-adv-x="1130" 
d="M588 1157q-37 0 -64.5 26.5t-27.5 63.5t26.5 63.5t65.5 26.5q37 0 62.5 -26.5t25.5 -63.5q0 -39 -25.5 -64.5t-62.5 -25.5zM606 989q217 0 363 -125v-848q0 -182 -120 -296.5t-308 -114.5q-270 0 -416 166q18 57 76 77q121 -141 340 -141q147 0 230 85t83 224v99
q-125 -76 -258 -76q-215 0 -355.5 126t-140.5 343q0 215 145.5 348t360.5 133zM604 141q135 0 250 84v580q-94 78 -248 78q-170 0 -278.5 -104.5t-108.5 -270.5q0 -172 105.5 -269.5t279.5 -97.5z" />
    <glyph glyph-name="uni0122" unicode="&#x122;" horiz-adv-x="1335" 
d="M770 649h432v-573q-195 -104 -444 -105q-285 0 -466 188.5t-181 495.5q0 309 188 501t467 192q260 0 424 -121q-12 -66 -62 -94q-164 106 -362 106q-233 0 -384 -157.5t-151 -426.5q0 -260 138.5 -417.5t390.5 -157.5q195 0 327 61v400h-317q-8 27 -8 55t8 53zM750 -80
q35 0 53 -8q10 -37 10 -90q0 -160 -131 -250q-27 6 -37 39q63 63 64 182q0 53 -19 117q17 10 60 10z" />
    <glyph glyph-name="uni0123" unicode="&#x123;" horiz-adv-x="1130" 
d="M580 1040q-35 0 -54 9q-10 37 -10 90q0 160 131 250q27 -6 37 -39q-63 -63 -63 -183q0 -59 20 -116q-20 -11 -61 -11zM606 989q217 0 363 -125v-848q0 -182 -120 -296.5t-308 -114.5q-270 0 -416 166q18 57 76 77q121 -141 340 -141q147 0 230 85t83 224v99
q-125 -76 -258 -76q-215 0 -355.5 126t-140.5 343q0 215 145.5 348t360.5 133zM604 141q135 0 250 84v580q-94 78 -248 78q-170 0 -278.5 -104.5t-108.5 -270.5q0 -172 105.5 -269.5t279.5 -97.5z" />
    <glyph glyph-name="Hbar" unicode="&#x126;" horiz-adv-x="1409" 
d="M1360 971q0 -12 -8 -45h-140v-926q-37 -8 -53 -8q-20 0 -61 8v623h-787v-623q-41 -8 -59 -8q-14 0 -55 8v926h-131q-8 29 -8.5 45t8.5 45h131v299q25 8 55 8q35 0 59 -8v-299h787v299q41 8 59.5 8t54.5 -8v-299h140q8 -29 8 -45zM1098 727v199h-787v-199h787z" />
    <glyph glyph-name="hbar" unicode="&#x127;" horiz-adv-x="1155" 
d="M598 989q199 0 300 -110.5t101 -278.5v-600q-29 -6 -57.5 -6t-56.5 6v565q0 315 -310 316q-150 0 -292 -97v-784q-29 -6 -57.5 -6t-57.5 6v1133h-135q-6 23 -6 45t6 47h135v123q29 6 57.5 6t57.5 -6v-123h229q6 -20 6 -47q0 -20 -6 -45h-229v-238q149 94 315 94z" />
    <glyph glyph-name="Itilde" unicode="&#x128;" horiz-adv-x="507" 
d="M356 1438q-43 0 -108.5 39t-91.5 39q-63 0 -82 -76q-55 0 -82 33q16 68 60 105.5t100 37.5q39 0 110.5 -40t91.5 -40q63 0 82 78q59 0 80 -33q-16 -68 -60.5 -105.5t-99.5 -37.5zM254 -8q-16 0 -57 8v1315q27 8 57 8q33 0 57 -8v-1315q-37 -8 -57 -8z" />
    <glyph glyph-name="itilde" unicode="&#x129;" horiz-adv-x="456" 
d="M315 1163q-41 0 -102 34t-86 34q-51 0 -86 -78q-51 0 -80 39q55 135 158 135q37 0 98.5 -33.5t89.5 -33.5q57 0 88 73q51 0 80 -39q-56 -131 -160 -131zM229 -6q-29 0 -57 6v961q27 6 57.5 6t55.5 -6v-961q-25 -6 -56 -6z" />
    <glyph glyph-name="Imacron" unicode="&#x12a;" horiz-adv-x="507" 
d="M61 1475q-6 20 -6 49q0 2 6 45h383q6 -14 7 -45q0 -33 -7 -49h-383zM254 -8q-16 0 -57 8v1315q27 8 57 8q33 0 57 -8v-1315q-37 -8 -57 -8z" />
    <glyph glyph-name="imacron" unicode="&#x12b;" horiz-adv-x="456" 
d="M47 1167q-4 16 -4 47q0 33 4 48h363q6 -25 6 -47.5t-6 -47.5h-363zM229 -6q-29 0 -57 6v961q27 6 57.5 6t55.5 -6v-961q-25 -6 -56 -6z" />
    <glyph glyph-name="Iogonek" unicode="&#x12e;" horiz-adv-x="507" 
d="M373 -238q41 -25 41 -75q-70 -61 -183 -62q-72 0 -116.5 39t-44.5 109q0 111 127 227v1315q27 8 57 8q33 0 57 -8v-1315q-131 -98 -131 -195q0 -82 84 -81q56 -1 109 38z" />
    <glyph glyph-name="iogonek" unicode="&#x12f;" horiz-adv-x="456" 
d="M223 1159q-39 0 -65.5 26.5t-26.5 63.5t26.5 63.5t65.5 26.5q35 0 61.5 -26.5t26.5 -63.5t-26.5 -63.5t-61.5 -26.5zM352 -233q41 -29 41 -76q-72 -63 -182 -64q-74 0 -119 40t-45 114q0 106 125 219v961q27 6 57.5 6t55.5 -6v-961q-123 -106 -123 -195q0 -39 24.5 -58
t57.5 -19q65 0 108 39z" />
    <glyph glyph-name="Idotaccent" unicode="&#x130;" horiz-adv-x="507" 
d="M256 1452q-37 0 -62.5 24.5t-25.5 61.5t25.5 62.5t62.5 25.5q35 0 60.5 -25.5t25.5 -62.5t-25.5 -61.5t-60.5 -24.5zM254 -8q-16 0 -57 8v1315q27 8 57 8q33 0 57 -8v-1315q-37 -8 -57 -8z" />
    <glyph glyph-name="dotlessi" unicode="&#x131;" horiz-adv-x="456" 
d="M229 -6q-29 0 -57 6v961q27 6 57.5 6t55.5 -6v-961q-25 -6 -56 -6z" />
    <glyph glyph-name="IJ" unicode="&#x132;" horiz-adv-x="1036" 
d="M239.5 287q-32.5 0 -59.5 8v1020q27 8 59.5 8t57.5 -8v-1020q-25 -8 -57.5 -8zM518 -33q-86 0 -151.5 34t-96.5 71q20 51 74 82q80 -80 174 -80q219 0 219 241v1000q23 8 55.5 8t57.5 -8v-998q0 -176 -94.5 -263t-237.5 -87z" />
    <glyph glyph-name="ij" unicode="&#x133;" horiz-adv-x="919" 
d="M229.5 1159q-36.5 0 -64.5 26.5t-28 63.5t26.5 63.5t65.5 26.5q37 0 62.5 -26.5t25.5 -63.5q0 -39 -25.5 -64.5t-62 -25.5zM690 1155q-37 0 -63.5 25.5t-26.5 64.5q0 37 26.5 62.5t63.5 25.5t62.5 -25.5t25.5 -62.5q0 -39 -25.5 -64.5t-62.5 -25.5zM229 -6q-29 0 -57 6
v961q27 6 57.5 6t55.5 -6v-961q-25 -6 -56 -6zM457 -401q-154 0 -234 84q14 53 64 79q86 -61 157 -61q82 0 136.5 56.5t54.5 174.5v1029q29 6 55 6q33 0 58 -6v-1029q0 -162 -88 -247.5t-203 -85.5z" />
    <glyph glyph-name="uni0136" unicode="&#x136;" horiz-adv-x="1183" 
d="M573 709l592 -701q-39 -12 -98 -12l-47 2l-535 641q-74 -51 -174 -119v-520q-37 -8 -59 -8q-18 0 -55 8v1315q37 8 55 8q23 0 59 -8v-668q221 143 369.5 290.5t304.5 379.5q16 4 55 4q45 0 72 -8q-234 -362 -539 -604zM655 -80q35 0 54 -8q10 -37 10 -90
q0 -160 -131 -250q-27 6 -37 39q63 63 63 182q0 53 -18 117q16 10 59 10z" />
    <glyph glyph-name="uni0137" unicode="&#x137;" horiz-adv-x="968" 
d="M496 508l456 -504q-37 -10 -80 -10q-35 0 -55 4l-411 448q-49 -33 -125 -73v-373q-25 -6 -56 -6q-29 0 -57 6v1348q29 6 57 6q31 0 56 -6v-856q145 76 278 201.5t209 267.5q18 4 59 4q39 0 62 -9q-133 -249 -393 -448zM524 -80q35 0 54 -8q10 -37 10 -90
q0 -160 -131 -250q-27 6 -37 39q63 63 63 182q0 53 -18 117q16 10 59 10z" />
    <glyph glyph-name="kgreenlandic" unicode="&#x138;" horiz-adv-x="974" 
d="M487 508l476 -504q-41 -10 -89 -10q-39 0 -57 4l-424 446q-57 -37 -117 -67v-377q-25 -6 -55 -6q-29 0 -55 6v961q27 6 55 6q31 0 55 -6v-463q145 72 282.5 199.5t211.5 263.5q12 4 57 4q41 0 66 -9q-142 -251 -406 -448z" />
    <glyph glyph-name="Lacute" unicode="&#x139;" horiz-adv-x="978" 
d="M453 1663q57 -33 59 -104l-367 -168q-25 20 -26 51zM938 104q8 -25 8 -49q0 -31 -8 -55h-741v1315q41 8 55 8q18 0 59 -8v-1211h627z" />
    <glyph glyph-name="lacute" unicode="&#x13a;" horiz-adv-x="456" 
d="M76 1391q-25 20 -27 51l334 221q57 -33 59 -104zM227 -6q-27 0 -55 6v1348q29 6 55 6q33 0 58 -6v-1348q-25 -6 -58 -6z" />
    <glyph glyph-name="uni013B" unicode="&#x13b;" horiz-adv-x="978" 
d="M938 104q8 -25 8 -49q0 -31 -8 -55h-741v1315q41 8 55 8q18 0 59 -8v-1211h627zM592 -80q35 0 53 -8q10 -37 10 -90q0 -160 -131 -250q-27 6 -37 39q63 63 64 182q0 53 -19 117q17 10 60 10z" />
    <glyph glyph-name="uni013C" unicode="&#x13c;" horiz-adv-x="456" 
d="M227 -6q-27 0 -55 6v1348q29 6 55 6q33 0 58 -6v-1348q-25 -6 -58 -6zM164 -428q-27 6 -37 39q63 63 63 182q0 53 -18 117q16 10 59 10q35 0 54 -8q10 -37 10 -90q0 -160 -131 -250z" />
    <glyph glyph-name="Lcaron" unicode="&#x13d;" horiz-adv-x="978" 
d="M698 993q-31 4 -45 29q39 72 39 195q0 76 -18 129q14 12 59 12q29 0 49 -10q12 -37 13 -86q0 -78 -28 -152t-69 -117zM938 104q8 -25 8 -49q0 -31 -8 -55h-741v1315q41 8 55 8q18 0 59 -8v-1211h627z" />
    <glyph glyph-name="lcaron" unicode="&#x13e;" horiz-adv-x="462" 
d="M451 1016q-31 6 -45 28q39 76 38 197q0 78 -18 127q23 14 59 14q31 0 50 -12q12 -37 12 -86q0 -168 -96 -268zM227 -6q-27 0 -55 6v1348q29 6 55 6q33 0 58 -6v-1348q-25 -6 -58 -6z" />
    <glyph glyph-name="Ldot" unicode="&#x13f;" horiz-adv-x="978" 
d="M938 104q8 -25 8 -49q0 -31 -8 -55h-741v1315q41 8 55 8q18 0 59 -8v-1211h627zM729 610q-39 0 -65.5 27t-26.5 65.5t26.5 65.5t65.5 27t66.5 -27t27.5 -65.5t-27.5 -65.5t-66.5 -27z" />
    <glyph glyph-name="ldot" unicode="&#x140;" horiz-adv-x="509" 
d="M227 -6q-27 0 -55 6v1348q29 6 55 6q33 0 58 -6v-1348q-25 -6 -58 -6zM491.5 578q-38.5 0 -65.5 26.5t-27 65.5t27 65.5t65.5 26.5t66.5 -26.5t28 -65.5t-28 -65.5t-66.5 -26.5z" />
    <glyph glyph-name="Lslash" unicode="&#x141;" horiz-adv-x="978" 
d="M938 104q8 -25 8 -49q0 -31 -8 -55h-741v575l-127 -63q-35 25 -43 84l170 86v633q41 8 55 8q18 0 59 -8v-574l178 90q39 -35 43 -86l-221 -110v-531h627z" />
    <glyph glyph-name="lslash" unicode="&#x142;" horiz-adv-x="456" 
d="M451 731l-166 -84v-647q-25 -6 -58 -6q-27 0 -55 6v590l-127 -66q-35 31 -39 78l166 86v660q29 6 55 6q33 0 58 -6v-603l127 66q33 -29 39 -80z" />
    <glyph glyph-name="Nacute" unicode="&#x143;" horiz-adv-x="1396" 
d="M543 1391q-25 20 -27 51l334 221q57 -33 59 -104zM1145 1325q18 0 55 -8v-1309q-43 -12 -100 -12l-766 1081l-29 53l2 -61v-1069q-25 -8 -55.5 -8t-54.5 8v1305q51 29 104 16l766 -1083l27 -45l-2 65v1059q37 8 53 8z" />
    <glyph glyph-name="nacute" unicode="&#x144;" horiz-adv-x="1148" 
d="M420 1077q-27 16 -35 47l293 271q49 -27 74 -95zM584 989q205 0 307 -108.5t102 -280.5v-600q-27 -6 -57.5 -6t-56.5 6v567q0 315 -310 316q-164 0 -295 -84v-799q-29 -6 -57.5 -6t-56.5 6v850q178 139 424 139z" />
    <glyph glyph-name="uni0145" unicode="&#x145;" horiz-adv-x="1396" 
d="M1145 1325q18 0 55 -8v-1309q-43 -12 -100 -12l-766 1081l-29 53l2 -61v-1069q-25 -8 -55.5 -8t-54.5 8v1305q51 29 104 16l766 -1083l27 -45l-2 65v1059q37 8 53 8zM709 -80q35 0 53 -8q10 -37 10 -90q0 -160 -131 -250q-27 6 -37 39q63 63 64 182q0 53 -19 117
q17 10 60 10z" />
    <glyph glyph-name="uni0146" unicode="&#x146;" horiz-adv-x="1148" 
d="M584 989q205 0 307 -108.5t102 -280.5v-600q-27 -6 -57.5 -6t-56.5 6v567q0 315 -310 316q-164 0 -295 -84v-799q-29 -6 -57.5 -6t-56.5 6v850q178 139 424 139zM575 -80q35 0 54 -8q10 -37 10 -90q0 -160 -131 -250q-27 6 -37 39q63 63 64 182q0 53 -19 117q16 10 59 10
z" />
    <glyph glyph-name="Ncaron" unicode="&#x147;" horiz-adv-x="1396" 
d="M745 1399q-43 -12 -83 0l-224 194q12 39 43 62l228 -166l219 166q33 -23 41 -62zM1145 1325q18 0 55 -8v-1309q-43 -12 -100 -12l-766 1081l-29 53l2 -61v-1069q-25 -8 -55.5 -8t-54.5 8v1305q51 29 104 16l766 -1083l27 -45l-2 65v1059q37 8 53 8z" />
    <glyph glyph-name="ncaron" unicode="&#x148;" horiz-adv-x="1148" 
d="M606 1094q-41 -10 -82 0l-217 229q14 49 55 66l207 -195l207 190q43 -18 58 -61zM584 989q205 0 307 -108.5t102 -280.5v-600q-27 -6 -57.5 -6t-56.5 6v567q0 315 -310 316q-164 0 -295 -84v-799q-29 -6 -57.5 -6t-56.5 6v850q178 139 424 139z" />
    <glyph glyph-name="napostrophe" unicode="&#x149;" horiz-adv-x="1148" 
d="M201 1370q14 -33 14 -98q0 -96 -44 -176t-97 -127q-35 4 -41 37q68 70 67 223q0 78 -22 139q27 10 66 10t57 -8zM584 989q205 0 307 -108.5t102 -280.5v-600q-27 -6 -57.5 -6t-56.5 6v567q0 315 -310 316q-164 0 -295 -84v-799q-29 -6 -57.5 -6t-56.5 6v850
q178 139 424 139z" />
    <glyph glyph-name="Eng" unicode="&#x14a;" horiz-adv-x="1396" 
d="M1145 1325q18 0 55 -8v-1368q0 -176 -95 -263t-237 -87q-86 0 -151.5 33.5t-95.5 70.5q18 55 71 76q84 -80 176 -80q221 0 222 248v63l-756 1067l-29 53l2 -61v-1069q-25 -8 -55.5 -8t-54.5 8v1305q51 29 104 16l766 -1083l27 -45l-2 65v1059q37 8 53 8z" />
    <glyph glyph-name="eng" unicode="&#x14b;" horiz-adv-x="1148" 
d="M584 989q203 0 305 -108.5t102 -280.5v-668q0 -164 -90 -248.5t-211 -84.5q-137 0 -221 84q20 57 63 79q72 -66 158 -65q82 0 135.5 57.5t53.5 177.5v635q0 313 -314 314q-156 0 -293 -90v-791q-25 -6 -55 -6q-29 0 -57 6v844q174 145 424 145z" />
    <glyph glyph-name="Omacron" unicode="&#x14c;" horiz-adv-x="1495" 
d="M481 1475q-6 25 -6 49t6 45h531q6 -14 6 -45q0 -33 -6 -49h-531zM748 -27q-283 0 -460 194.5t-177 491.5q0 295 177 492t459.5 197t459.5 -193.5t177 -495.5q0 -293 -177.5 -489.5t-458.5 -196.5zM747.5 80q235.5 0 377 161.5t141.5 417.5q0 260 -141.5 421t-376.5 161
q-238 0 -378.5 -160.5t-140.5 -421.5q0 -256 141.5 -417.5t377 -161.5z" />
    <glyph glyph-name="omacron" unicode="&#x14d;" horiz-adv-x="1173" 
d="M328 1165q-6 16 -6 47q0 25 6 48h518q8 -23 8 -47.5t-8 -47.5h-518zM584 -23q-211 0 -347.5 142.5t-136.5 363.5q0 217 140.5 362.5t349.5 145.5q211 0 347 -145.5t136 -362.5t-140 -361.5t-349 -144.5zM588 84q168 0 269 112.5t101 286.5q0 172 -101 286t-269 114
t-269.5 -114t-101.5 -286q0 -174 101.5 -286.5t269.5 -112.5z" />
    <glyph glyph-name="Ohungarumlaut" unicode="&#x150;" horiz-adv-x="1495" 
d="M516 1370q-31 16 -39 41l213 277q61 -14 84 -80zM834 1370q-33 16 -41 41l215 277q63 -16 84 -80zM748 -27q-283 0 -460 194.5t-177 491.5q0 295 177 492t459.5 197t459.5 -193.5t177 -495.5q0 -293 -177.5 -489.5t-458.5 -196.5zM747.5 80q235.5 0 377 161.5
t141.5 417.5q0 260 -141.5 421t-376.5 161q-238 0 -378.5 -160.5t-140.5 -421.5q0 -256 141.5 -417.5t377 -161.5z" />
    <glyph glyph-name="ohungarumlaut" unicode="&#x151;" horiz-adv-x="1173" 
d="M387 1065q-35 10 -47 33l176 311q57 -10 96 -63zM686 1065q-35 10 -47 33l174 311q59 -10 98 -63zM584 -23q-211 0 -347.5 142.5t-136.5 363.5q0 217 140.5 362.5t349.5 145.5q211 0 347 -145.5t136 -362.5t-140 -361.5t-349 -144.5zM588 84q168 0 269 112.5t101 286.5
q0 172 -101 286t-269 114t-269.5 -114t-101.5 -286q0 -174 101.5 -286.5t269.5 -112.5z" />
    <glyph glyph-name="OE" unicode="&#x152;" horiz-adv-x="1824" 
d="M1733 55q0 -31 -9 -55h-759q-102 -16 -207 -16q-295 0 -471 186t-176 487q0 289 180 479.5t469 190.5q109 0 201 -12h739q8 -25 8 -55q0 -29 -8 -54h-625v-471h557q8 -25 8 -53q0 -31 -8 -55h-557v-518h649q9 -25 9 -54zM236 657q0 -250 139 -407.5t383 -157.5
q115 0 203 19v1085q-88 20 -201 21q-240 0 -382 -156t-142 -404z" />
    <glyph glyph-name="oe" unicode="&#x153;" horiz-adv-x="1863" 
d="M1767 539q0 -45 -2 -78h-725q4 -178 95.5 -280.5t248.5 -102.5q168 0 291 108q43 -25 60 -84q-150 -129 -351 -129q-141 0 -247.5 64.5t-159.5 183.5q-61 -113 -168 -179.5t-236 -66.5q-207 0 -340 142.5t-133 363.5q0 213 137.5 360.5t335.5 147.5q135 0 243 -68.5
t167 -185.5q55 119 155.5 185.5t221.5 66.5q178 0 292.5 -119.5t114.5 -328.5zM1042 555h611q0 150 -82 240t-213 90t-215.5 -95.5t-100.5 -234.5zM573 82q158 0 256.5 111.5t98.5 287.5q0 172 -98.5 287t-256.5 115q-160 0 -259 -115t-99 -287q0 -174 99 -286.5t259 -112.5
z" />
    <glyph glyph-name="Racute" unicode="&#x154;" horiz-adv-x="1169" 
d="M403 1391q-25 20 -26 51l334 221q57 -33 59 -104zM739 555l346 -547q-39 -12 -86 -12q-31 0 -43 2l-335 534q-20 -2 -64 -2q-143 0 -248 11v-541q-25 -8 -57 -8q-31 0 -55 8v1294q176 43 370 43q229 0 350 -102t123 -283q-2 -152 -83 -254t-218 -143zM309 647
q82 -12 248 -12q186 0 276.5 85t92.5 228q-2 133 -93.5 210t-267.5 77q-127 0 -256 -23v-565z" />
    <glyph glyph-name="racute" unicode="&#x155;" horiz-adv-x="761" 
d="M313 1077q-27 16 -34 47l292 271q49 -27 74 -95zM735 958q4 -59 -28 -100q-80 23 -181 23q-150 0 -252 -66v-815q-25 -6 -57 -6q-29 0 -57 6v866q152 123 377 123q114 0 198 -31z" />
    <glyph glyph-name="uni0156" unicode="&#x156;" horiz-adv-x="1169" 
d="M739 555l346 -547q-39 -12 -86 -12q-31 0 -43 2l-335 534q-20 -2 -64 -2q-143 0 -248 11v-541q-25 -8 -57 -8q-31 0 -55 8v1294q176 43 370 43q229 0 350 -102t123 -283q-2 -152 -83 -254t-218 -143zM309 647q82 -12 248 -12q186 0 276.5 85t92.5 228q-2 133 -93.5 210
t-267.5 77q-127 0 -256 -23v-565zM586 -80q35 0 53 -8q10 -37 10 -90q0 -160 -131 -250q-27 6 -37 39q63 63 64 182q0 53 -19 117q17 10 60 10z" />
    <glyph glyph-name="uni0157" unicode="&#x157;" horiz-adv-x="761" 
d="M735 958q4 -59 -28 -100q-80 23 -181 23q-150 0 -252 -66v-815q-25 -6 -57 -6q-29 0 -57 6v866q152 123 377 123q114 0 198 -31zM223 -80q35 0 53 -8q10 -37 11 -90q0 -160 -131 -250q-27 6 -37 39q63 63 63 182q0 53 -18 117q16 10 59 10z" />
    <glyph glyph-name="Rcaron" unicode="&#x158;" horiz-adv-x="1169" 
d="M604 1399q-43 -12 -84 0l-223 194q12 39 43 62l227 -166l219 166q33 -23 41 -62zM739 555l346 -547q-39 -12 -86 -12q-31 0 -43 2l-335 534q-20 -2 -64 -2q-143 0 -248 11v-541q-25 -8 -57 -8q-31 0 -55 8v1294q176 43 370 43q229 0 350 -102t123 -283q-2 -152 -83 -254
t-218 -143zM309 647q82 -12 248 -12q186 0 276.5 85t92.5 228q-2 133 -93.5 210t-267.5 77q-127 0 -256 -23v-565z" />
    <glyph glyph-name="rcaron" unicode="&#x159;" horiz-adv-x="761" 
d="M500 1094q-41 -10 -82 0l-217 229q14 49 55 66l207 -195l207 190q43 -18 57 -61zM735 958q4 -59 -28 -100q-80 23 -181 23q-150 0 -252 -66v-815q-25 -6 -57 -6q-29 0 -57 6v866q152 123 377 123q114 0 198 -31z" />
    <glyph glyph-name="Sacute" unicode="&#x15a;" horiz-adv-x="1071" 
d="M379 1391q-25 20 -27 51l334 221q57 -33 59 -104zM520 -29q-268 0 -434 166q16 55 72 86q137 -143 362 -143q162 0 248 72.5t86 197.5q0 109 -74.5 173.5t-257.5 109.5q-86 20 -147.5 43.5t-121.5 64.5t-92 106.5t-32 153.5q0 150 111.5 247.5t296.5 97.5q250 0 407 -132
q-10 -63 -63 -90q-152 115 -344 115q-135 0 -215 -65.5t-80 -165.5q0 -104 72.5 -160.5t232.5 -95.5q211 -53 315.5 -142.5t104.5 -257.5q0 -176 -120 -278.5t-327 -102.5z" />
    <glyph glyph-name="sacute" unicode="&#x15b;" horiz-adv-x="921" 
d="M328 1077q-27 16 -35 47l293 271q49 -27 73 -95zM444 -23q-225 0 -356 117q18 57 66 84q119 -100 290 -100q137 0 205 50t68 132q0 78 -59.5 120t-211.5 66q-160 25 -246.5 85.5t-86.5 183.5t100 198.5t264 75.5q209 0 324 -88q-8 -51 -49 -88q-123 74 -285 74
q-117 0 -179.5 -42t-62.5 -118q0 -74 55.5 -110.5t186.5 -59.5q182 -31 272 -93.5t90 -191.5q0 -135 -103.5 -215t-281.5 -80z" />
    <glyph glyph-name="Scedilla" unicode="&#x15e;" horiz-adv-x="1071" 
d="M967 352q0 -164 -104.5 -264t-289.5 -115l-20 -53q156 -29 156 -141q0 -88 -68 -127t-154 -39q-88 0 -129 22q6 45 31 74q41 -18 96 -18q53 0 87 20.5t34 59.5q0 45 -40 65.5t-120 24.5l43 110q-248 10 -403 166q16 55 72 86q137 -143 362 -143q162 0 248 72.5t86 197.5
q0 109 -74.5 173.5t-257.5 109.5q-86 20 -147.5 43.5t-121.5 64.5t-92 106.5t-32 153.5q0 150 111.5 247.5t296.5 97.5q250 0 407 -132q-10 -63 -63 -90q-152 115 -344 115q-135 0 -215 -65.5t-80 -165.5q0 -104 72.5 -160.5t232.5 -95.5q211 -53 315.5 -142.5t104.5 -257.5
z" />
    <glyph glyph-name="scedilla" unicode="&#x15f;" horiz-adv-x="921" 
d="M829 272q0 -125 -87 -202.5t-242 -89.5l-23 -60q156 -29 156 -141q0 -88 -67.5 -127t-153.5 -39q-88 0 -129 22q6 45 30 74q39 -18 97 -18q53 0 86.5 20.5t33.5 59.5q0 45 -39.5 65.5t-119.5 24.5l45 116q-205 8 -328 117q18 57 66 84q119 -100 290 -100q137 0 205 50
t68 132q0 78 -59.5 120t-211.5 66q-160 25 -246.5 85.5t-86.5 183.5t100 198.5t264 75.5q209 0 324 -88q-8 -51 -49 -88q-123 74 -285 74q-117 0 -179.5 -42t-62.5 -118q0 -74 55.5 -110.5t186.5 -59.5q182 -31 272 -93.5t90 -191.5z" />
    <glyph glyph-name="Scaron" unicode="&#x160;" horiz-adv-x="1071" 
d="M496 1399l-224 194q12 39 43 62l228 -166l219 166q33 -23 41 -62l-223 -194q-43 -12 -84 0zM520 -29q-268 0 -434 166q16 55 72 86q137 -143 362 -143q162 0 248 72.5t86 197.5q0 109 -74.5 173.5t-257.5 109.5q-86 20 -147.5 43.5t-121.5 64.5t-92 106.5t-32 153.5
q0 150 111.5 247.5t296.5 97.5q250 0 407 -132q-10 -63 -63 -90q-152 115 -344 115q-135 0 -215 -65.5t-80 -165.5q0 -104 72.5 -160.5t232.5 -95.5q211 -53 315.5 -142.5t104.5 -257.5q0 -176 -120 -278.5t-327 -102.5z" />
    <glyph glyph-name="scaron" unicode="&#x161;" horiz-adv-x="921" 
d="M432 1094l-217 229q14 49 55 66l207 -195l207 190q43 -18 57 -61l-227 -229q-41 -10 -82 0zM444 -23q-225 0 -356 117q18 57 66 84q119 -100 290 -100q137 0 205 50t68 132q0 78 -59.5 120t-211.5 66q-160 25 -246.5 85.5t-86.5 183.5t100 198.5t264 75.5q209 0 324 -88
q-8 -51 -49 -88q-123 74 -285 74q-117 0 -179.5 -42t-62.5 -118q0 -74 55.5 -110.5t186.5 -59.5q182 -31 272 -93.5t90 -191.5q0 -135 -103.5 -215t-281.5 -80z" />
    <glyph glyph-name="uni0162" unicode="&#x162;" horiz-adv-x="1093" 
d="M602 -2l-16 -4l-29 -74q156 -29 156 -141q0 -88 -67.5 -127t-153.5 -39q-88 0 -130 22q6 45 31 74q41 -18 96 -18q53 0 87 20.5t34 59.5q0 45 -40 65.5t-119 24.5l53 135q-4 0 -8 1t-7 1v1212h-448q-8 25 -8 52q0 29 8 53h1010q8 -25 8 -53q0 -27 -8 -52h-449v-1212z" />
    <glyph glyph-name="uni0163" unicode="&#x163;" horiz-adv-x="784" 
d="M520 -80q156 -29 156 -141q0 -88 -67.5 -127t-153.5 -39q-88 0 -129 22q6 45 30 74q41 -18 97 -18q53 0 86.5 20.5t33.5 59.5q0 45 -39.5 65.5t-119.5 24.5l47 121q-111 14 -177.5 89.5t-66.5 215.5v581h-168q-6 25 -6 47.5t6 45.5h168v258q25 6 55.5 6t55.5 -6v-258h387
q6 -23 6 -45.5t-6 -47.5h-387v-553q0 -238 200 -237q90 0 193 69q41 -27 51 -81q-96 -80 -229 -89z" />
    <glyph glyph-name="Tcaron" unicode="&#x164;" horiz-adv-x="1093" 
d="M588 1399q-43 -12 -84 0l-223 194q12 39 43 62l227 -166l219 166q33 -23 41 -62zM1059 1262q0 -27 -8 -52h-449v-1212q-29 -6 -57 -6q-29 0 -56 6v1212h-448q-8 25 -8 52q0 29 8 53h1010q8 -24 8 -53z" />
    <glyph glyph-name="tcaron" unicode="&#x165;" horiz-adv-x="784" 
d="M561 1016q-31 4 -45 28q39 72 39 195q0 76 -18 129q16 12 59 12q29 0 49 -10q12 -37 12 -86q0 -78 -27.5 -151.5t-68.5 -116.5zM721 147q41 -27 51 -81q-104 -88 -252 -89q-133 0 -218 76t-85 234v581h-168q-6 25 -6 47.5t6 45.5h168v258q25 6 55.5 6t55.5 -6v-258h387
q6 -23 6 -45.5t-6 -47.5h-387v-553q0 -238 200 -237q91 -1 193 69z" />
    <glyph glyph-name="Tbar" unicode="&#x166;" horiz-adv-x="1093" 
d="M1051 1210h-449v-505h201q8 -29 8 -48q0 -16 -8 -49h-201v-610q-29 -6 -57 -6q-29 0 -56 6v610h-202q-8 18 -8 47q0 31 8 50h202v505h-448q-8 25 -8 52q0 29 8 53h1010q8 -25 8 -53q0 -27 -8 -52z" />
    <glyph glyph-name="tbar" unicode="&#x167;" horiz-adv-x="784" 
d="M721 147q41 -27 51 -81q-104 -88 -252 -89q-133 0 -218 76t-85 234v229h-133q-8 29 -8 45q0 14 8 47h133v260h-168q-6 25 -6 47.5t6 45.5h168v258q25 6 55.5 6t55.5 -6v-258h387q6 -23 6 -45.5t-6 -47.5h-387v-260h245q6 -23 7 -47q0 -20 -7 -45h-245v-201
q0 -238 200 -237q91 -1 193 69z" />
    <glyph glyph-name="Utilde" unicode="&#x168;" horiz-adv-x="1376" 
d="M449 1427q-55 0 -87 31q49 158 205 158q51 0 139.5 -43t122.5 -43q94 0 121 90q61 0 86 -31q-49 -158 -200 -157q-55 0 -143.5 43t-121.5 43q-95 -1 -122 -91zM696 -29q-231 0 -373.5 145.5t-142.5 395.5v803q41 8 58 8q23 0 59 -8v-803q0 -193 105.5 -311.5
t293.5 -118.5q182 0 283.5 118.5t101.5 311.5v803q41 8 60 8q20 0 53 -8v-803q0 -248 -135.5 -394.5t-362.5 -146.5z" />
    <glyph glyph-name="utilde" unicode="&#x169;" horiz-adv-x="1134" 
d="M440 1235q-84 0 -112 -92q-57 0 -88 31q49 158 192 157q57 0 146.5 -43t123.5 -43q82 0 113 90q53 0 84 -30q-20 -74 -71.5 -115t-116.5 -41q-57 0 -146.5 43t-124.5 43zM915.5 967q30.5 0 57.5 -6v-900q-201 -88 -420 -88q-199 0 -298 100.5t-99 276.5v611q27 6 57 6
q29 0 57 -6v-564q0 -158 66.5 -237.5t243.5 -79.5q143 0 278 55v826q27 6 57.5 6z" />
    <glyph glyph-name="Umacron" unicode="&#x16a;" horiz-adv-x="1376" 
d="M434 1475q-6 25 -6 49t6 45h531q6 -14 6 -45q0 -33 -6 -49h-531zM696 -29q-231 0 -373.5 145.5t-142.5 395.5v803q41 8 58 8q23 0 59 -8v-803q0 -193 105.5 -311.5t293.5 -118.5q182 0 283.5 118.5t101.5 311.5v803q41 8 60 8q20 0 53 -8v-803q0 -248 -135.5 -394.5
t-362.5 -146.5z" />
    <glyph glyph-name="umacron" unicode="&#x16b;" horiz-adv-x="1134" 
d="M827 1165h-518q-6 16 -6 47q0 25 6 48h518q8 -23 8 -47.5t-8 -47.5zM915.5 967q30.5 0 57.5 -6v-900q-201 -88 -420 -88q-199 0 -298 100.5t-99 276.5v611q27 6 57 6q29 0 57 -6v-564q0 -158 66.5 -237.5t243.5 -79.5q143 0 278 55v826q27 6 57.5 6z" />
    <glyph glyph-name="Uring" unicode="&#x16e;" horiz-adv-x="1376" 
d="M700.5 1341q-77.5 0 -133 55.5t-55.5 133.5t55.5 132t133 54t132 -55t54.5 -131q0 -78 -54.5 -133.5t-132 -55.5zM700 1421q45 0 74 32t29 77t-29 76.5t-74 31.5t-74.5 -31.5t-29.5 -76.5t29.5 -77t74.5 -32zM696 -29q-231 0 -373.5 145.5t-142.5 395.5v803q41 8 58 8
q23 0 59 -8v-803q0 -193 105.5 -311.5t293.5 -118.5q182 0 283.5 118.5t101.5 311.5v803q41 8 60 8q20 0 53 -8v-803q0 -248 -135.5 -394.5t-362.5 -146.5z" />
    <glyph glyph-name="uring" unicode="&#x16f;" horiz-adv-x="1134" 
d="M569 1044q-78 0 -133 55.5t-55 133.5t55.5 133t133 55t132 -55t54.5 -133t-55.5 -133.5t-131.5 -55.5zM569 1343q-45 0 -75.5 -32.5t-30.5 -77.5q0 -43 30.5 -76t75.5 -33q47 0 77 32t30 77t-30 77.5t-77 32.5zM915.5 967q30.5 0 57.5 -6v-900q-201 -88 -420 -88
q-199 0 -298 100.5t-99 276.5v611q27 6 57 6q29 0 57 -6v-564q0 -158 66.5 -237.5t243.5 -79.5q143 0 278 55v826q27 6 57.5 6z" />
    <glyph glyph-name="Uhungarumlaut" unicode="&#x170;" horiz-adv-x="1376" 
d="M469 1370q-31 16 -39 41l213 277q61 -14 84 -80zM786 1370q-33 16 -41 41l216 277q63 -16 83 -80zM696 -29q-231 0 -373.5 145.5t-142.5 395.5v803q41 8 58 8q23 0 59 -8v-803q0 -193 105.5 -311.5t293.5 -118.5q182 0 283.5 118.5t101.5 311.5v803q41 8 60 8q20 0 53 -8
v-803q0 -248 -135.5 -394.5t-362.5 -146.5z" />
    <glyph glyph-name="uhungarumlaut" unicode="&#x171;" horiz-adv-x="1134" 
d="M367 1065q-35 10 -48 33l177 311q57 -10 96 -63zM666 1065q-35 10 -48 33l175 311q59 -10 98 -63zM915.5 967q30.5 0 57.5 -6v-900q-201 -88 -420 -88q-199 0 -298 100.5t-99 276.5v611q27 6 57 6q29 0 57 -6v-564q0 -158 66.5 -237.5t243.5 -79.5q143 0 278 55v826
q27 6 57.5 6z" />
    <glyph glyph-name="Uogonek" unicode="&#x172;" horiz-adv-x="1376" 
d="M1141 1323q20 0 53 -8v-803q0 -170 -66.5 -296t-185.5 -187q-152 -129 -151 -228q0 -39 22.5 -58t54.5 -19q53 0 95 36q45 -20 45 -69q-70 -66 -170 -66q-70 0 -114 39t-44 107q0 102 104 206q-43 -6 -88 -6q-231 0 -373.5 145.5t-142.5 395.5v803q41 8 58 8q23 0 59 -8
v-803q0 -193 105.5 -311.5t293.5 -118.5q182 0 283.5 118.5t101.5 311.5v803q42 8 60 8z" />
    <glyph glyph-name="uogonek" unicode="&#x173;" horiz-adv-x="1134" 
d="M946 -242q45 -20 45 -69q-70 -66 -170 -66q-70 0 -113.5 39t-43.5 107q0 115 131 231q-113 -27 -242 -27q-199 0 -298 100.5t-99 276.5v611q27 6 57 6q29 0 57 -6v-564q0 -158 66.5 -237.5t243.5 -79.5q143 0 278 55v826q27 6 57.5 6t57.5 -6v-900h-2l-4 -2
q-82 -59 -137.5 -130.5t-55.5 -129.5q0 -41 22.5 -59.5t55.5 -18.5q53 0 94 37z" />
    <glyph glyph-name="Wcircumflex" unicode="&#x174;" horiz-adv-x="1847" 
d="M707 1389q-33 18 -41 59l223 197q43 12 84 0l223 -195q-12 -41 -41 -61l-229 163zM1724.5 1325q28.5 0 65.5 -12q-172 -752 -412 -1313q-27 -10 -67 -10q-33 0 -60 10l-288 944l-25 105l-31 -107l-317 -942q-41 -8 -62 -8q-27 0 -67 8q-217 512 -393 1313q37 14 73 14
q31 0 52 -6q121 -631 335 -1204l23 88l328 991q23 8 57.5 8t56.5 -8l310 -987l22 -90q223 580 350 1200q21 6 49.5 6z" />
    <glyph glyph-name="wcircumflex" unicode="&#x175;" horiz-adv-x="1474" 
d="M518 1087q-41 16 -55 60l223 231q41 10 82 0l221 -231q-18 -47 -59 -64l-207 193zM1352 965q45 0 67 -9q-49 -238 -155.5 -510t-210.5 -448q-20 -6 -58 -6q-31 0 -55 6q-102 195 -201 475q-72 -246 -196 -475q-23 -6 -62 -6q-31 0 -55 6q-113 188 -215 450.5t-160 507.5
q23 8 72 9q12 0 26.5 -1t18.5 -1q49 -215 142 -458t169 -386q2 -4 8 -23h2q0 14 7 23q115 242 194 504q-51 168 -90 333q18 8 72 9q10 0 24.5 -1t20.5 -1q47 -223 129 -464t151 -380q6 -10 9 -23h2q0 10 6 23q207 416 293 844q4 0 20.5 1t24.5 1z" />
    <glyph glyph-name="Ycircumflex" unicode="&#x176;" horiz-adv-x="1163" 
d="M356 1389q-33 18 -41 59l224 197q43 12 84 0l223 -195q-12 -41 -41 -61l-230 163zM1120 1313l-479 -781v-532q-37 -8 -59 -8q-18 0 -56 8v535l-493 778q37 12 78 12q23 0 47 -4l407 -641l23 -47l22 47l391 641q14 4 53 4t66 -12z" />
    <glyph glyph-name="ycircumflex" unicode="&#x177;" horiz-adv-x="1009" 
d="M303 1087q-41 16 -55 60l223 231q41 10 82 0l221 -231q-18 -47 -59 -64l-207 193zM891 967q31 0 67 -13q-113 -492 -350 -895q-150 -250 -354 -473q-59 12 -82 70q174 188 281 362q-127 199 -234.5 451t-163.5 487q31 10 70 11q23 0 51 -4q92 -403 330 -826l14 -24l12 24
q229 416 310 826q24 4 49 4z" />
    <glyph glyph-name="Ydieresis" unicode="&#x178;" horiz-adv-x="1163" 
d="M381 1452q-37 0 -61.5 23.5t-24.5 60.5q0 35 24.5 58.5t61.5 23.5q33 0 56.5 -23.5t23.5 -58.5q0 -37 -22.5 -60.5t-57.5 -23.5zM782.5 1452q-34.5 0 -58.5 23.5t-24 60.5q0 35 24 58.5t58 23.5q33 0 57.5 -24.5t24.5 -57.5q0 -37 -23.5 -60.5t-58 -23.5zM1120 1313
l-479 -781v-532q-37 -8 -59 -8q-18 0 -56 8v535l-493 778q37 12 78 12q23 0 47 -4l407 -641l23 -47l22 47l391 641q14 4 53 4t66 -12z" />
    <glyph glyph-name="Zacute" unicode="&#x179;" horiz-adv-x="1144" 
d="M408 1391q-25 20 -27 51l334 221q57 -33 59 -104zM1067 100q8 -25 8 -47q0 -29 -8 -53h-979q-10 27 -10 59q0 47 35 88l778 1027l33 40l-834 -2q-8 31 -8 52q0 27 8 51h957q8 -25 8 -60q0 -49 -35 -90l-776 -1022l-35 -43h858z" />
    <glyph glyph-name="zacute" unicode="&#x17a;" horiz-adv-x="946" 
d="M317 1077q-27 16 -34 47l292 271q49 -27 74 -95zM866 96q8 -20 8 -47q0 -25 -8 -49h-778q-8 25 -8 47q0 61 51 119l569 672l27 26h-631l-2 21q-4 18 -4 28q0 4 6 48h750q4 -25 4 -41q0 -66 -49 -123l-545 -645l-53 -56h663z" />
    <glyph glyph-name="Zdotaccent" unicode="&#x17b;" horiz-adv-x="1144" 
d="M567 1452q-37 0 -62.5 24.5t-25.5 61.5t25.5 62.5t62.5 25.5q35 0 60.5 -25.5t25.5 -62.5t-25.5 -61.5t-60.5 -24.5zM1067 100q8 -25 8 -47q0 -29 -8 -53h-979q-10 27 -10 59q0 47 35 88l778 1027l33 40l-834 -2q-8 31 -8 52q0 27 8 51h957q8 -25 8 -60q0 -49 -35 -90
l-776 -1022l-35 -43h858z" />
    <glyph glyph-name="zdotaccent" unicode="&#x17c;" horiz-adv-x="946" 
d="M467 1157q-37 0 -64.5 26.5t-27.5 63.5t26.5 63.5t65.5 26.5q37 0 62.5 -26.5t25.5 -63.5q0 -39 -25.5 -64.5t-62.5 -25.5zM866 96q8 -20 8 -47q0 -25 -8 -49h-778q-8 25 -8 47q0 61 51 119l569 672l27 26h-631l-2 21q-4 18 -4 28q0 4 6 48h750q4 -25 4 -41
q0 -66 -49 -123l-545 -645l-53 -56h663z" />
    <glyph glyph-name="Zcaron" unicode="&#x17d;" horiz-adv-x="1144" 
d="M610 1399q-43 -12 -84 0l-223 194q12 39 43 62l227 -166l220 166q33 -23 41 -62zM1067 100q8 -25 8 -47q0 -29 -8 -53h-979q-10 27 -10 59q0 47 35 88l778 1027l33 40l-834 -2q-8 31 -8 52q0 27 8 51h957q8 -25 8 -60q0 -49 -35 -90l-776 -1022l-35 -43h858z" />
    <glyph glyph-name="zcaron" unicode="&#x17e;" horiz-adv-x="946" 
d="M506 1094q-41 -10 -82 0l-217 229q14 49 55 66l207 -195l207 190q43 -18 57 -61zM866 96q8 -20 8 -47q0 -25 -8 -49h-778q-8 25 -8 47q0 61 51 119l569 672l27 26h-631l-2 21q-4 18 -4 28q0 4 6 48h750q4 -25 4 -41q0 -66 -49 -123l-545 -645l-53 -56h663z" />
    <glyph glyph-name="uni01EA" unicode="&#x1ea;" horiz-adv-x="1495" 
d="M1042 43q-170 -133 -170 -242q0 -39 23 -58t55 -19q53 0 94 36q45 -20 46 -69q-70 -66 -170 -66q-70 0 -114 39t-44 107q0 106 112 215q-61 -12 -126 -13q-283 0 -460 194.5t-177 491.5q0 295 177 492t459.5 197t459.5 -193.5t177 -495.5q0 -205 -91 -368.5t-251 -247.5z
M229 659q0 -256 141.5 -417.5t377 -161.5t377 161.5t141.5 417.5q0 260 -141.5 421t-376.5 161q-238 0 -378.5 -161t-140.5 -421z" />
    <glyph glyph-name="uni01EB" unicode="&#x1eb;" horiz-adv-x="1173" 
d="M836 45q-74 -57 -123 -123.5t-49 -120.5q0 -39 22.5 -58t54.5 -19q53 0 95 36q45 -20 45 -69q-70 -66 -170 -66q-70 0 -114 39t-44 107q0 106 111 213q-41 -6 -80 -7q-211 0 -347.5 142.5t-136.5 363.5q0 217 140.5 362.5t349.5 145.5q211 0 347 -145.5t136 -362.5
q0 -143 -63 -257.5t-174 -180.5zM217 483q0 -174 101.5 -286.5t269.5 -112.5t269 112.5t101 286.5q0 172 -101 286t-269 114t-269.5 -114t-101.5 -286z" />
    <glyph glyph-name="AEacute" unicode="&#x1fc;" horiz-adv-x="1638" 
d="M809 1391q-25 20 -27 51l334 221q57 -33 60 -104zM1540 106q6 -29 6 -51q0 -27 -6 -55h-719v545h-381l-321 -547q-16 -4 -47 -4q-35 0 -74 14l768 1307h745q8 -37 9 -55q0 -14 -9 -52h-575v-557h514q8 -37 8 -53t-8 -53h-514v-439h604zM504 651h317v471l4 84l-45 -86z
" />
    <glyph glyph-name="aeacute" unicode="&#x1fd;" horiz-adv-x="1638" 
d="M686 1077q-27 16 -35 47l293 271q49 -27 74 -95zM412 -25q-152 0 -239 78t-87 215q0 135 103.5 212t283.5 77l264 2v78q0 125 -73.5 184.5t-198.5 59.5q-152 0 -281 -99q-41 25 -59 80q139 127 344 127q289 0 350 -233q43 109 137.5 171t204.5 62q176 0 276.5 -125
t100.5 -340q0 -41 -2 -63h-684v-6q0 -172 90 -273.5t232 -101.5q72 0 132 20.5t83.5 37t66.5 50.5q45 -27 62 -86q-166 -127 -344 -127q-313 0 -390 279q-39 -135 -142 -207t-230 -72zM854 559h567q0 139 -64.5 232.5t-191.5 93.5q-131 0 -217 -93.5t-94 -232.5zM418 76
q55 0 107.5 18.5t102.5 59.5t79.5 117.5t29.5 181.5v8h-264q-268 -2 -268 -193q-2 -90 56.5 -141t156.5 -51z" />
    <glyph glyph-name="Oslashacute" unicode="&#x1fe;" horiz-adv-x="1495" 
d="M588 1391q-25 20 -27 51l334 221q57 -33 59 -104zM1384 1280l-147 -162q147 -186 147 -459q0 -293 -178 -489.5t-458 -196.5q-246 0 -416 152l-142 -156q-59 20 -73 74l143 158q-150 184 -149 458q0 295 177 492t460 197q246 0 419 -154l142 154q52 -17 75 -68zM229 659
q0 -221 109 -374l756 827q-139 129 -346 129q-238 0 -378.5 -161t-140.5 -421zM1266 659q0 223 -105 375l-755 -829q137 -125 342 -125q236 0 377 161.5t141 417.5z" />
    <glyph glyph-name="oslashacute" unicode="&#x1ff;" horiz-adv-x="1179" 
d="M442 1077q-27 16 -34 47l292 271q49 -27 74 -95zM1075 956l-117 -131q117 -139 117 -342q0 -217 -140 -361.5t-349 -144.5q-172 0 -299 99l-119 -131q-49 18 -62 63l117 129q-121 141 -121 346q0 217 140.5 362.5t351.5 145.5q176 0 303 -104l115 127q49 -19 63 -58z
M219 483q0 -154 80 -262l524 582q-96 80 -233 80q-168 0 -269.5 -114t-101.5 -286zM961 483q0 147 -78 258l-523 -581q92 -76 230 -76q168 0 269.5 112.5t101.5 286.5z" />
    <glyph glyph-name="uni0218" unicode="&#x218;" horiz-adv-x="1071" 
d="M520 -29q-268 0 -434 166q16 55 72 86q137 -143 362 -143q162 0 248 72.5t86 197.5q0 109 -74.5 173.5t-257.5 109.5q-86 20 -147.5 43.5t-121.5 64.5t-92 106.5t-32 153.5q0 150 111.5 247.5t296.5 97.5q250 0 407 -132q-10 -63 -63 -90q-152 115 -344 115
q-135 0 -215 -65.5t-80 -165.5q0 -104 72.5 -160.5t232.5 -95.5q211 -53 315.5 -142.5t104.5 -257.5q0 -176 -120 -278.5t-327 -102.5zM481 -428q-27 6 -37 39q63 63 64 182q0 53 -19 117q16 10 60 10q35 0 53 -8q10 -37 10 -90q0 -160 -131 -250z" />
    <glyph glyph-name="uni0219" unicode="&#x219;" horiz-adv-x="921" 
d="M444 -23q-225 0 -356 117q18 57 66 84q119 -100 290 -100q137 0 205 50t68 132q0 78 -59.5 120t-211.5 66q-160 25 -246.5 85.5t-86.5 183.5t100 198.5t264 75.5q209 0 324 -88q-8 -51 -49 -88q-123 74 -285 74q-117 0 -179.5 -42t-62.5 -118q0 -74 55.5 -110.5
t186.5 -59.5q182 -31 272 -93.5t90 -191.5q0 -135 -103.5 -215t-281.5 -80zM406 -428q-27 6 -37 39q63 63 63 182q0 53 -18 117q16 10 59 10q35 0 53 -8q10 -37 11 -90q0 -160 -131 -250z" />
    <glyph glyph-name="uni021A" unicode="&#x21a;" horiz-adv-x="1093" 
d="M1051 1315q8 -25 8 -53q0 -27 -8 -52h-449v-1212q-29 -6 -57 -6q-29 0 -56 6v1212h-448q-8 25 -8 52q0 29 8 53h1010zM553 -80q35 0 53 -8q10 -37 10 -90q0 -160 -131 -250q-27 6 -36 39q63 63 63 182q0 53 -18 117q16 10 59 10z" />
    <glyph glyph-name="uni021B" unicode="&#x21b;" horiz-adv-x="784" 
d="M772 66q-104 -88 -252 -89q-133 0 -218 76t-85 234v581h-168q-6 25 -6 47.5t6 45.5h168v258q25 6 55.5 6t55.5 -6v-258h387q6 -23 6 -45.5t-6 -47.5h-387v-553q0 -238 200 -237q90 0 193 69q41 -26 51 -81zM516 -80q35 0 53 -8q10 -37 11 -90q0 -160 -131 -250
q-27 6 -37 39q63 63 63 182q0 53 -18 117q16 10 59 10z" />
    <glyph glyph-name="circumflex" unicode="&#x2c6;" horiz-adv-x="602" 
d="M96 1087q-41 16 -55 60l223 231q41 10 82 0l221 -231q-18 -47 -59 -64l-207 193z" />
    <glyph glyph-name="caron" unicode="&#x2c7;" horiz-adv-x="600" 
d="M262 1094l-217 229q14 49 55 66l207 -195l207 190q43 -18 57 -61l-227 -229q-41 -10 -82 0z" />
    <glyph glyph-name="breve" unicode="&#x2d8;" horiz-adv-x="618" 
d="M307 1096q-117 0 -187.5 70.5t-78.5 185.5q39 16 84 10q27 -176 184 -176q76 0 125 46t58 130q49 4 81 -10q-4 -111 -76.5 -183.5t-189.5 -72.5z" />
    <glyph glyph-name="dotaccent" unicode="&#x2d9;" horiz-adv-x="335" 
d="M170 1157q-37 0 -64.5 26.5t-27.5 63.5t26.5 63.5t65.5 26.5q37 0 62.5 -26.5t25.5 -63.5q0 -39 -25.5 -64.5t-62.5 -25.5z" />
    <glyph glyph-name="ring" unicode="&#x2da;" horiz-adv-x="473" 
d="M238 1044q-78 0 -133.5 55.5t-55.5 133.5t55.5 133t133 55t132 -55t54.5 -133t-55 -133.5t-131 -55.5zM238 1124q47 0 76.5 32t29.5 77t-29.5 77.5t-76.5 32.5q-45 0 -76 -32.5t-31 -77.5q0 -43 31 -76t76 -33z" />
    <glyph glyph-name="ogonek" unicode="&#x2db;" horiz-adv-x="499" 
d="M233 -375q-70 0 -113.5 39t-43.5 107q0 150 209 292h98q-82 -59 -139.5 -131.5t-57.5 -130.5q0 -39 22.5 -58t55.5 -19q53 0 94 36q45 -20 45 -69q-70 -66 -170 -66z" />
    <glyph glyph-name="tilde" unicode="&#x2dc;" horiz-adv-x="737" 
d="M123 1143q-53 0 -88 31q49 158 194 157q55 0 144.5 -43t124.5 -43q82 0 112 90q53 0 84 -30q-20 -74 -71.5 -115t-116.5 -41q-55 0 -144.5 43t-123.5 43q-86 0 -115 -92z" />
    <glyph glyph-name="hungarumlaut" unicode="&#x2dd;" horiz-adv-x="657" 
d="M88 1065q-35 10 -47 33l176 311q57 -10 96 -63zM387 1065q-35 10 -47 33l174 311q59 -10 98 -63z" />
    <glyph glyph-name="gravecomb" unicode="&#x300;" 
d="M-80 1077l-332 223q25 70 74 95l291 -271q-4 -29 -33 -47z" />
    <glyph glyph-name="acutecomb" unicode="&#x301;" 
d="M-379 1077q-27 16 -35 47l293 271q49 -27 74 -95z" />
    <glyph glyph-name="uni0302" unicode="&#x302;" 
d="M-516 1087q-41 16 -55 60l223 231q41 10 82 0l221 -231q-18 -47 -59 -64l-207 193z" />
    <glyph glyph-name="tildecomb" unicode="&#x303;" 
d="M-606 1143q-57 0 -88 31q49 158 192 157q57 0 146.5 -43t124.5 -43q82 0 112 90q53 0 84 -30q-20 -74 -71.5 -115t-116.5 -41q-57 0 -146.5 43t-124.5 43q-83 0 -112 -92z" />
    <glyph glyph-name="uni0304" unicode="&#x304;" 
d="M-582 1165q-6 16 -6 47q0 25 6 48h519q8 -23 8 -47.5t-8 -47.5h-519z" />
    <glyph glyph-name="uni0306" unicode="&#x306;" 
d="M-307 1096q-117 0 -187.5 70.5t-78.5 185.5q39 16 84 10q27 -176 184 -176q76 0 125 46t57 130q49 4 82 -10q-4 -111 -76.5 -183.5t-189.5 -72.5z" />
    <glyph glyph-name="uni0307" unicode="&#x307;" 
d="M-166 1157q-37 0 -64.5 26.5t-27.5 63.5t26.5 63.5t65.5 26.5q37 0 62.5 -26.5t25.5 -63.5q0 -39 -25.5 -64.5t-62.5 -25.5z" />
    <glyph glyph-name="uni0308" unicode="&#x308;" 
d="M-547 1149q-37 0 -61.5 23.5t-24.5 60.5q0 35 24.5 59.5t61.5 24.5q35 0 59.5 -24.5t24.5 -59.5q0 -37 -24.5 -60.5t-59.5 -23.5zM-137 1149q-37 0 -61.5 23.5t-24.5 60.5q0 35 24.5 59.5t61.5 24.5q35 0 59.5 -24.5t24.5 -59.5q0 -37 -24.5 -60.5t-59.5 -23.5z" />
    <glyph glyph-name="uni030A" unicode="&#x30a;" 
d="M-236 1044q-78 0 -133 55.5t-55 133.5t55.5 133t133 55t132 -55t54.5 -133t-55.5 -133.5t-131.5 -55.5zM-236 1124q47 0 77 32t30 77t-29.5 77.5t-77.5 32.5q-45 0 -75.5 -32.5t-30.5 -77.5q0 -43 30.5 -76t75.5 -33z" />
    <glyph glyph-name="uni030B" unicode="&#x30b;" 
d="M-565 1065q-35 10 -47 33l176 311q57 -10 96 -63zM-266 1065q-35 10 -47 33l174 311q59 -10 98 -63z" />
    <glyph glyph-name="uni030C" unicode="&#x30c;" 
d="M-350 1094l-217 229q14 49 55 66l207 -195l207 190q43 -18 57 -61l-227 -229q-41 -10 -82 0z" />
    <glyph glyph-name="uni0326" unicode="&#x326;" 
d="M-190 -428q-27 6 -37 39q63 63 63 182q0 53 -18 117q16 10 59 10q35 0 53 -8q10 -37 11 -90q0 -160 -131 -250z" />
    <glyph glyph-name="uni0327" unicode="&#x327;" 
d="M-233 12h81l-34 -92q156 -29 155 -141q0 -88 -67.5 -127t-153.5 -39q-88 0 -129 22q6 45 31 74q39 -18 96 -18q53 0 87 20.5t34 59.5q0 45 -40 65.5t-120 24.5z" />
    <glyph glyph-name="uni0328" unicode="&#x328;" 
d="M-236 -375q-70 0 -113.5 39t-43.5 107q0 150 209 292h98q-82 -59 -139.5 -131.5t-57.5 -130.5q0 -39 22.5 -58t55.5 -19q53 0 94 36q45 -20 45 -69q-70 -66 -170 -66z" />
    <glyph glyph-name="uni0335" unicode="&#x335;" 
d="M-535 915q-6 23 -6 45.5t6 47.5h480q6 -20 6 -47q0 -20 -6 -46h-480z" />
    <glyph glyph-name="uni0336" unicode="&#x336;" 
d="M-1321 920q-8 29 -8 45t8 45h1260q8 -18 8 -45q0 -23 -8 -45h-1260z" />
    <glyph glyph-name="uni0337" unicode="&#x337;" 
d="M-430 555q-35 31 -39 78l406 209q33 -29 38 -80z" />
    <glyph glyph-name="uni0338" unicode="&#x338;" 
d="M-1028 -53q-51 16 -64 63l906 1006q47 -18 63 -60z" />
    <glyph glyph-name="Wgrave" unicode="&#x1e80;" horiz-adv-x="1847" 
d="M1106 1442q-2 -33 -25 -51l-368 168q2 70 59 104zM1724.5 1325q28.5 0 65.5 -12q-172 -752 -412 -1313q-27 -10 -67 -10q-33 0 -60 10l-288 944l-25 105l-31 -107l-317 -942q-41 -8 -62 -8q-27 0 -67 8q-217 512 -393 1313q37 14 73 14q31 0 52 -6q121 -631 335 -1204
l23 88l328 991q23 8 57.5 8t56.5 -8l310 -987l22 -90q223 580 350 1200q21 6 49.5 6z" />
    <glyph glyph-name="wgrave" unicode="&#x1e81;" horiz-adv-x="1474" 
d="M891 1124q-4 -29 -33 -47l-332 223q25 70 74 95zM1352 965q45 0 67 -9q-49 -238 -155.5 -510t-210.5 -448q-20 -6 -58 -6q-31 0 -55 6q-102 195 -201 475q-72 -246 -196 -475q-23 -6 -62 -6q-31 0 -55 6q-113 188 -215 450.5t-160 507.5q23 8 72 9q12 0 26.5 -1t18.5 -1
q49 -215 142 -458t169 -386q2 -4 8 -23h2q0 14 7 23q115 242 194 504q-51 168 -90 333q18 8 72 9q10 0 24.5 -1t20.5 -1q47 -223 129 -464t151 -380q6 -10 9 -23h2q0 10 6 23q207 416 293 844q4 0 20.5 1t24.5 1z" />
    <glyph glyph-name="Wacute" unicode="&#x1e82;" horiz-adv-x="1847" 
d="M772 1391q-25 20 -27 51l334 221q57 -33 60 -104zM1724.5 1325q28.5 0 65.5 -12q-172 -752 -412 -1313q-27 -10 -67 -10q-33 0 -60 10l-288 944l-25 105l-31 -107l-317 -942q-41 -8 -62 -8q-27 0 -67 8q-217 512 -393 1313q37 14 73 14q31 0 52 -6q121 -631 335 -1204
l23 88l328 991q23 8 57.5 8t56.5 -8l310 -987l22 -90q223 580 350 1200q21 6 49.5 6z" />
    <glyph glyph-name="wacute" unicode="&#x1e83;" horiz-adv-x="1474" 
d="M578 1077q-27 16 -35 47l293 271q49 -27 73 -95zM1352 965q45 0 67 -9q-49 -238 -155.5 -510t-210.5 -448q-20 -6 -58 -6q-31 0 -55 6q-102 195 -201 475q-72 -246 -196 -475q-23 -6 -62 -6q-31 0 -55 6q-113 188 -215 450.5t-160 507.5q23 8 72 9q12 0 26.5 -1t18.5 -1
q49 -215 142 -458t169 -386q2 -4 8 -23h2q0 14 7 23q115 242 194 504q-51 168 -90 333q18 8 72 9q10 0 24.5 -1t20.5 -1q47 -223 129 -464t151 -380q6 -10 9 -23h2q0 10 6 23q207 416 293 844q4 0 20.5 1t24.5 1z" />
    <glyph glyph-name="Wdieresis" unicode="&#x1e84;" horiz-adv-x="1847" 
d="M731 1452q-37 0 -61.5 23.5t-24.5 60.5q0 35 24.5 58.5t61.5 23.5q33 0 56.5 -23.5t23.5 -58.5q0 -37 -22.5 -60.5t-57.5 -23.5zM1132.5 1452q-34.5 0 -58 23.5t-23.5 60.5q0 35 23.5 58.5t58 23.5t58 -24.5t23.5 -57.5q0 -37 -23.5 -60.5t-58 -23.5zM1724.5 1325
q28.5 0 65.5 -12q-172 -752 -412 -1313q-27 -10 -67 -10q-33 0 -60 10l-288 944l-25 105l-31 -107l-317 -942q-41 -8 -62 -8q-27 0 -67 8q-217 512 -393 1313q37 14 73 14q31 0 52 -6q121 -631 335 -1204l23 88l328 991q23 8 57.5 8t56.5 -8l310 -987l22 -90
q223 580 350 1200q21 6 49.5 6z" />
    <glyph glyph-name="wdieresis" unicode="&#x1e85;" horiz-adv-x="1474" 
d="M522 1149q-37 0 -61.5 23.5t-24.5 60.5q0 35 24.5 59.5t61.5 24.5q35 0 59.5 -24.5t24.5 -59.5q0 -37 -24.5 -60.5t-59.5 -23.5zM932 1149q-37 0 -61.5 23.5t-24.5 60.5q0 35 24.5 59.5t61.5 24.5q35 0 59.5 -24.5t24.5 -59.5q0 -37 -24.5 -60.5t-59.5 -23.5zM1352 965
q45 0 67 -9q-49 -238 -155.5 -510t-210.5 -448q-20 -6 -58 -6q-31 0 -55 6q-102 195 -201 475q-72 -246 -196 -475q-23 -6 -62 -6q-31 0 -55 6q-113 188 -215 450.5t-160 507.5q23 8 72 9q12 0 26.5 -1t18.5 -1q49 -215 142 -458t169 -386q2 -4 8 -23h2q0 14 7 23
q115 242 194 504q-51 168 -90 333q18 8 72 9q10 0 24.5 -1t20.5 -1q47 -223 129 -464t151 -380q6 -10 9 -23h2q0 10 6 23q207 416 293 844q4 0 20.5 1t24.5 1z" />
    <glyph glyph-name="uni1E9E" unicode="&#x1e9e;" horiz-adv-x="1257" 
d="M862 723q176 -94 248 -175t72 -229q0 -162 -103.5 -254t-261.5 -92q-201 0 -325 125q14 55 69 88q102 -106 256 -106q123 0 186.5 63.5t65.5 161.5q0 92 -47 155.5t-188 141.5q-63 35 -101.5 60.5t-81.5 66.5t-62.5 93t-19.5 118q0 182 197 274q-72 -6 -115 -6
q-158 0 -256 -82t-98 -245v-881q-27 -6 -55 -6q-33 0 -60 6v883q2 209 135.5 320.5t339.5 111.5h349q8 -23 8 -49q0 -31 -8 -58q-158 -14 -240 -83.5t-82 -172.5q0 -72 38 -123t140 -106z" />
    <glyph glyph-name="Ygrave" unicode="&#x1ef2;" horiz-adv-x="1163" 
d="M754 1442q-2 -33 -25 -51l-369 168q2 70 60 104zM1120 1313l-479 -781v-532q-37 -8 -59 -8q-18 0 -56 8v535l-493 778q37 12 78 12q23 0 47 -4l407 -641l23 -47l22 47l391 641q14 4 53 4t66 -12z" />
    <glyph glyph-name="ygrave" unicode="&#x1ef3;" horiz-adv-x="1009" 
d="M676 1124q-4 -29 -33 -47l-332 223q25 70 74 95zM891 967q31 0 67 -13q-113 -492 -350 -895q-150 -250 -354 -473q-59 12 -82 70q174 188 281 362q-127 199 -234.5 451t-163.5 487q31 10 70 11q23 0 51 -4q92 -403 330 -826l14 -24l12 24q229 416 310 826q24 4 49 4z" />
    <glyph glyph-name="uni1EF8" unicode="&#x1ef8;" horiz-adv-x="1163" 
d="M453 1518q-96 0 -123 -91q-55 0 -86 31q49 158 205 158q53 0 141 -43t121 -43q94 0 120 90q61 0 87 -31q-49 -158 -201 -157q-55 0 -143 43t-121 43zM1120 1313l-479 -781v-532q-37 -8 -59 -8q-18 0 -56 8v535l-493 778q37 12 78 12q23 0 47 -4l407 -641l23 -47l22 47
l391 641q14 4 53 4t66 -12z" />
    <glyph glyph-name="uni1EF9" unicode="&#x1ef9;" horiz-adv-x="1009" 
d="M383 1235q-84 0 -113 -92q-57 0 -88 31q49 158 193 157q57 0 146 -43t124 -43q82 0 113 90q53 0 84 -30q-20 -74 -71.5 -115t-117.5 -41q-57 0 -146 43t-124 43zM891 967q31 0 67 -13q-113 -492 -350 -895q-150 -250 -354 -473q-59 12 -82 70q174 188 281 362
q-127 199 -234.5 451t-163.5 487q31 10 70 11q23 0 51 -4q92 -403 330 -826l14 -24l12 24q229 416 310 826q24 4 49 4z" />
    <glyph glyph-name="endash" unicode="&#x2013;" horiz-adv-x="1187" 
d="M154 461q-6 27 -6.5 51.5t6.5 44.5h878q6 -14 6 -45q0 -33 -6 -51h-878z" />
    <glyph glyph-name="emdash" unicode="&#x2014;" horiz-adv-x="2201" 
d="M154 463q-6 25 -6.5 49.5t6.5 46.5h1894q6 -25 6 -47q0 -25 -6 -49h-1894z" />
    <glyph glyph-name="quoteleft" unicode="&#x2018;" horiz-adv-x="407" 
d="M195 969q-37 0 -58 10q-14 33 -14 98q0 96 43 176t96 125q37 -4 41 -35q-66 -70 -65 -223q0 -86 22 -139q-30 -12 -65 -12z" />
    <glyph glyph-name="quoteright" unicode="&#x2019;" horiz-adv-x="403" 
d="M154 969q-35 4 -41 37q68 70 67 223q0 78 -22 139q25 10 65 10q39 0 58 -8q14 -33 14 -98q0 -96 -44 -176t-97 -127z" />
    <glyph glyph-name="quotesinglbase" unicode="&#x201a;" horiz-adv-x="421" 
d="M135 -219q-39 4 -43 37q70 70 70 223q0 82 -25 139q27 10 68 10q39 0 55 -8q16 -29 16 -98q0 -96 -44 -176t-97 -127z" />
    <glyph glyph-name="quotedblleft" unicode="&#x201c;" horiz-adv-x="665" 
d="M195 969q-37 0 -58 10q-14 33 -14 98q0 96 43 177t96 124q37 -4 43 -35q-70 -70 -69 -223q0 -80 24 -139q-30 -12 -65 -12zM451 969q-37 0 -58 10q-16 29 -16 98q0 96 44 176t97 125q37 -4 41 -35q-66 -70 -65 -223q0 -86 22 -139q-30 -12 -65 -12z" />
    <glyph glyph-name="quotedblright" unicode="&#x201d;" horiz-adv-x="661" 
d="M156 965q-37 4 -41 34q68 72 67 224q0 80 -24 139q31 12 65 12q37 0 58 -10q14 -25 14 -98q0 -96 -43 -177t-96 -124zM412 965q-37 4 -41 34q68 70 67 224q0 78 -22 139q29 12 65 12q35 0 56 -10q14 -33 14 -98q0 -96 -43 -177t-96 -124z" />
    <glyph glyph-name="quotedblbase" unicode="&#x201e;" horiz-adv-x="677" 
d="M135 -219q-37 4 -41 37q66 70 66 223q0 86 -23 139q27 10 66 10q41 0 57 -8q16 -29 16 -98q0 -96 -44 -176t-97 -127zM391 -219q-37 4 -43 37q68 70 68 223q0 86 -23 139q25 10 66 10t57 -8q14 -25 14 -98q0 -96 -43 -177t-96 -126z" />
    <glyph glyph-name="dagger" unicode="&#x2020;" horiz-adv-x="1024" 
d="M905 1008q0 -29 -6 -56l-334 11v-1270q-29 -6 -55 -6q-29 0 -53 6v1270l-332 -11q-6 25 -6 56q0 29 6 53l332 -10v417q25 6 53 7q31 0 55 -7v-417l334 10q6 -22 6 -53z" />
    <glyph glyph-name="daggerdbl" unicode="&#x2021;" horiz-adv-x="1024" 
d="M565 199l334 12q6 -25 6 -55q0 -29 -6 -56l-334 11v-418q-29 -6 -55 -6q-29 0 -53 6v418l-332 -11q-6 27 -6 55.5t6 55.5l332 -12v764l-332 -11q-6 25 -6 56q0 29 6 53l332 -10v417q25 6 53 7q31 0 55 -7v-417l334 10q6 -23 6 -53q0 -29 -6 -56l-334 11v-764z" />
    <glyph glyph-name="bullet" unicode="&#x2022;" horiz-adv-x="761" 
d="M383 348q-86 0 -146.5 60.5t-60.5 144.5q0 86 60.5 146.5t146.5 60.5q84 0 143.5 -60.5t59.5 -146.5q0 -84 -59.5 -144.5t-143.5 -60.5z" />
    <glyph glyph-name="ellipsis" unicode="&#x2026;" horiz-adv-x="1103" 
d="M219 -20q-37 0 -62.5 24.5t-25.5 61t24.5 60.5t63.5 24q35 0 59.5 -24t24.5 -60.5t-24.5 -61t-59.5 -24.5zM553 -20q-35 0 -60.5 24.5t-25.5 61t24.5 60.5t61.5 24q35 0 59.5 -24t24.5 -60.5t-24.5 -61t-59.5 -24.5zM887 -20q-35 0 -60.5 24.5t-25.5 61t24.5 60.5
t61.5 24t61.5 -24t24.5 -60.5t-25.5 -61t-60.5 -24.5z" />
    <glyph glyph-name="perthousand" unicode="&#x2030;" horiz-adv-x="2181" 
d="M369 709q-131 0 -209 85t-78 214q0 131 78 215t209 84q129 0 206.5 -84t77.5 -215q0 -129 -77.5 -214t-206.5 -85zM244 -96l878 1356q61 14 111 0l-879 -1356q-69 -12 -110 0zM368.5 797q92.5 0 140.5 58t48 153q0 92 -48 152.5t-140.5 60.5t-141.5 -60.5t-49 -152.5
q0 -94 49 -152.5t141.5 -58.5zM1149 -20q-131 0 -209 85t-78 214q0 131 77 215t210 84q129 0 207 -84t78 -215q0 -129 -78 -214t-207 -85zM1821 -20q-131 0 -209 85t-78 214q0 131 77 215t210 84q129 0 206.5 -84t77.5 -215q0 -129 -77.5 -214t-206.5 -85zM1149 68
q92 0 140 58t48 153q0 92 -48 152.5t-140 60.5t-141.5 -60.5t-49.5 -152.5q0 -94 49.5 -152.5t141.5 -58.5zM1821 68q92 0 140 58t48 153q0 92 -48 152.5t-140 60.5t-141.5 -60.5t-49.5 -152.5q0 -94 49.5 -152.5t141.5 -58.5z" />
    <glyph glyph-name="guilsinglleft" unicode="&#x2039;" horiz-adv-x="557" 
d="M362 217l-272 305l272 314q37 -8 54 -45l-185 -269l185 -264q-13 -33 -54 -41z" />
    <glyph glyph-name="guilsinglright" unicode="&#x203a;" horiz-adv-x="555" 
d="M195 217q-43 8 -56 41l185 264l-185 269q16 37 56 45l270 -314z" />
    <glyph glyph-name="fraction" unicode="&#x2044;" horiz-adv-x="1103" 
d="M12 -96l971 1442q55 12 111 0l-971 -1442q-56 -14 -111 0z" />
    <glyph glyph-name="Euro" unicode="&#x20ac;" horiz-adv-x="1325" 
d="M1184 178q45 -31 53 -80q-152 -123 -387 -123q-227 0 -381 135.5t-201 362.5h-186q-8 29 -8 45.5t8 44.5h172q-4 66 -4 99q0 53 6 102h-139q-6 23 -6 45q0 27 6 45h153q49 227 206 361.5t386 134.5q209 0 359 -113q-12 -49 -54 -78q-141 92 -305 92q-190 0 -313 -104.5
t-164 -292.5h451q6 -20 6 -45q0 -23 -6 -45h-465q-6 -49 -6 -102q0 -37 4 -99h432q6 -20 6 -44.5t-6 -45.5h-416q41 -188 163 -293.5t302 -105.5q201 0 334 104z" />
    <glyph glyph-name="trademark" unicode="&#x2122;" horiz-adv-x="1525" 
d="M1284 1354q49 0 76 -4v-717q-29 -6 -53.5 -6t-44.5 6v432l6 92l-189 -440q-20 -8 -55 -8t-55 8l-205 450l6 -102v-432q-18 -6 -45 -6q-25 0 -53 6v715q27 8 73 8q33 0 39 -2l224 -480l20 -55l19 55l206 480h31zM74 1352h542q6 -25 7 -45q0 -25 -7 -45h-215v-631
q-25 -6 -49 -6q-29 0 -49 6v631h-229q-6 20 -6 45q0 20 6 45z" />
    <glyph glyph-name="minus" unicode="&#x2212;" horiz-adv-x="1136" 
d="M158 434q-6 25 -6 49.5t6 48.5h819q6 -23 6 -49q0 -25 -6 -49h-819z" />
    <glyph glyph-name="approxequal" unicode="&#x2248;" horiz-adv-x="1116" 
d="M225 539q-53 8 -73 47q74 152 237 151q63 0 171 -46t165 -46q98 0 160 98q59 -8 82 -47q-78 -156 -242 -155q-74 0 -178.5 46t-157.5 46q-111 0 -164 -94zM225 170q-55 14 -73 49q35 70 97 110t140 40q63 0 171 -46.5t165 -46.5q98 0 160 99q55 -4 82 -47
q-78 -156 -242 -156q-74 0 -178.5 46t-157.5 46q-111 0 -164 -94z" />
    <glyph glyph-name="notequal" unicode="&#x2260;" horiz-adv-x="1097" 
d="M557 352h383q6 -25 6 -49t-6 -49h-440l-138 -238q-47 14 -83 52l108 186h-229q-6 25 -6 49.5t6 48.5h286l148 256h-434q-6 25 -6 51q0 25 6 50h491l137 235q45 -12 84 -51l-106 -184h176q6 -25 6 -50q0 -27 -6 -51h-235z" />
    <glyph glyph-name="uniF8FF" unicode="&#xf8ff;" horiz-adv-x="4724" 
d="M1038 827q57 35 119 35h105v-162h-86v-98q0 -35 36 -35q29 0 50 15v-154q-35 -20 -113 -20q-94 0 -136 39.5t-42 130.5v466h203q0 -61 -40 -121.5t-98 -86.5zM1346 846q84 16 143 16h16v-444h-202v626h200q0 -68 -47 -122t-115 -70zM2697 827q57 35 119 35h102v-162h-86
v-98q0 -35 37 -35q27 0 49 15v-154q-35 -20 -110 -20q-94 0 -137 39.5t-43 130.5v466h202q0 -61 -38.5 -121.5t-98.5 -86.5zM205 418v624h203v-624h-203zM702 877q111 0 172.5 -49.5t61.5 -135.5v-274h-201v45h-6q-39 -55 -145 -55q-66 0 -105 34.5t-39 89.5q0 59 41 97.5
t111 38.5q92 0 135 -43h4v71q0 51 -47 51.5t-47 -59.5l-184 29q36 160 249 160zM1898 872q70 0 110 -46t40 -134v-274h-205v264q0 55 -39 55q-23 0 -32 -13t-21 -52v-254h-203v444h199v-133h6q16 143 145 143zM2337 872q121 0 189.5 -64.5t68.5 -168.5q0 -102 -67.5 -166.5
t-190.5 -64.5t-190.5 63.5t-67.5 167.5t68.5 168.5t189.5 64.5zM3822 872q170 0 170 -233q0 -115 -51.5 -173t-125.5 -58q-106 0 -141 88h-6v-226h-205v592h203v-133h6q23 143 150 143zM4520 649v-18h-307q0 -39 18.5 -66.5t50.5 -27.5q53 0 62 69l168 -16q-16 -94 -82 -138
t-156 -44q-121 0 -187.5 63.5t-66.5 167.5q0 102 71 167.5t189 65.5q106 0 173 -64.5t67 -158.5zM3193 508q12 117 61 354h203l-145 -424q-63 -176 -217 -176h-80v135h133q117 0 137 25l-2 6h-139q-82 0 -107 80l-110 354h204q6 -33 20.5 -108.5t24 -136t13.5 -109.5h4z
M4225 655q113 0 113 50q0 45 -49 45q-35 0 -55.5 -26t-20.5 -69h12zM3738 506q61 0 61 117q0 125 -55 125q-45 0 -62 -68v-148q21 -26 56 -26zM2337 535q59 0 59 104q0 106 -59 106q-57 0 -58 -106q1 -104 58 -104zM686 469q31 0 45 23v104q-10 16 -39 16q-55 0 -55 -71.5
t49 -71.5z" />
    <glyph glyph-name="A.salt" horiz-adv-x="1214" 
d="M657 1315q289 -575 508 -1305q-27 -16 -71 -16q-35 0 -50 4q-47 164 -124 399h-633q-66 -205 -117 -397q-25 -6 -47 -6q-41 0 -72 16q211 729 490 1305q25 8 59 8t57 -8zM319 496h566q-117 326 -258 614l-31 72l-29 -72q-135 -280 -248 -614z" />
    <glyph glyph-name="Aacute.aalt" horiz-adv-x="1214" 
d="M442 1391q-25 20 -26 51l334 221q57 -33 59 -104zM657 1315q289 -575 508 -1305q-27 -16 -71 -16q-35 0 -50 4q-47 164 -124 399h-633q-66 -205 -117 -397q-25 -6 -47 -6q-41 0 -72 16q211 729 490 1305q25 8 59 8t57 -8zM319 496h566q-117 326 -258 614l-31 72l-29 -72
q-135 -280 -248 -614z" />
    <glyph glyph-name="Abreve.aalt" horiz-adv-x="1214" 
d="M602.5 1413q-108.5 0 -182.5 63.5t-84 161.5q41 16 86 11q14 -68 64.5 -106t117.5 -38q70 0 122 39t60 105q43 6 82 -11q-6 -94 -81.5 -159.5t-184 -65.5zM657 1315q289 -575 508 -1305q-27 -16 -71 -16q-35 0 -50 4q-47 164 -124 399h-633q-66 -205 -117 -397
q-25 -6 -47 -6q-41 0 -72 16q211 729 490 1305q25 8 59 8t57 -8zM319 496h566q-117 326 -258 614l-31 72l-29 -72q-135 -280 -248 -614z" />
    <glyph glyph-name="Acircumflex.aalt" horiz-adv-x="1214" 
d="M377 1389q-33 18 -41 59l223 197q43 12 84 0l223 -195q-12 -41 -41 -61l-229 163zM657 1315q289 -575 508 -1305q-27 -16 -71 -16q-35 0 -50 4q-47 164 -124 399h-633q-66 -205 -117 -397q-25 -6 -47 -6q-41 0 -72 16q211 729 490 1305q25 8 59 8t57 -8zM319 496h566
q-117 326 -258 614l-31 72l-29 -72q-135 -280 -248 -614z" />
    <glyph glyph-name="Adieresis.aalt" horiz-adv-x="1214" 
d="M401 1452q-37 0 -61.5 23.5t-24.5 60.5q0 35 25 58.5t61 23.5q33 0 56.5 -23.5t23.5 -58.5q0 -37 -22.5 -60.5t-57.5 -23.5zM803 1452q-35 0 -58.5 23.5t-23.5 60.5q0 35 23.5 58.5t58.5 23.5q33 0 57.5 -24.5t24.5 -57.5q0 -37 -23.5 -60.5t-58.5 -23.5zM657 1315
q289 -575 508 -1305q-27 -16 -71 -16q-35 0 -50 4q-47 164 -124 399h-633q-66 -205 -117 -397q-25 -6 -47 -6q-41 0 -72 16q211 729 490 1305q25 8 59 8t57 -8zM319 496h566q-117 326 -258 614l-31 72l-29 -72q-135 -280 -248 -614z" />
    <glyph glyph-name="Agrave.aalt" horiz-adv-x="1214" 
d="M776 1442q-2 -33 -24 -51l-369 168q2 70 59 104zM657 1315q289 -575 508 -1305q-27 -16 -71 -16q-35 0 -50 4q-47 164 -124 399h-633q-66 -205 -117 -397q-25 -6 -47 -6q-41 0 -72 16q211 729 490 1305q25 8 59 8t57 -8zM319 496h566q-117 326 -258 614l-31 72l-29 -72
q-135 -280 -248 -614z" />
    <glyph glyph-name="Amacron.aalt" horiz-adv-x="1214" 
d="M866 1475h-530q-6 25 -6 49t6 45h530q6 -14 6 -45q0 -33 -6 -49zM657 1315q289 -575 508 -1305q-27 -16 -71 -16q-35 0 -50 4q-47 164 -124 399h-633q-66 -205 -117 -397q-25 -6 -47 -6q-41 0 -72 16q211 729 490 1305q25 8 59 8t57 -8zM319 496h566q-117 326 -258 614
l-31 72l-29 -72q-135 -280 -248 -614z" />
    <glyph glyph-name="Aogonek.aalt" horiz-adv-x="1214" 
d="M1161 -244q41 -25 41 -75q-63 -55 -160 -56q-72 0 -116.5 39t-44.5 109q0 119 163 227q-43 152 -124 397h-633q-66 -205 -117 -397q-25 -6 -47 -6q-41 0 -72 16q211 729 490 1305q25 8 59.5 8t56.5 -8q289 -575 508 -1305q-174 -119 -174 -205q0 -43 23.5 -62t56.5 -19
q47 -1 90 32zM319 496h566q-117 326 -258 614l-31 72l-29 -72q-135 -280 -248 -614z" />
    <glyph glyph-name="Aring.aalt" horiz-adv-x="1214" 
d="M604 1341q-78 0 -133 55.5t-55 133.5t55 132t133 54q76 0 131.5 -55t55.5 -131q0 -78 -54.5 -133.5t-132.5 -55.5zM604 1638q-45 0 -74.5 -31.5t-29.5 -76.5t29.5 -77t74.5 -32t74 32t29 77t-29 76.5t-74 31.5zM657 1315q289 -575 508 -1305q-27 -16 -71 -16q-35 0 -50 4
q-47 164 -124 399h-633q-66 -205 -117 -397q-25 -6 -47 -6q-41 0 -72 16q211 729 490 1305q25 8 59 8t57 -8zM319 496h566q-117 326 -258 614l-31 72l-29 -72q-135 -280 -248 -614z" />
    <glyph glyph-name="Atilde.aalt" horiz-adv-x="1214" 
d="M473 1518q-96 0 -123 -91q-55 0 -86 31q49 158 205 158q51 0 139 -43t123 -43q94 0 121 90q61 0 86 -31q-49 -158 -201 -157q-55 0 -143 43t-121 43zM657 1315q289 -575 508 -1305q-27 -16 -71 -16q-35 0 -50 4q-47 164 -124 399h-633q-66 -205 -117 -397q-25 -6 -47 -6
q-41 0 -72 16q211 729 490 1305q25 8 59 8t57 -8zM319 496h566q-117 326 -258 614l-31 72l-29 -72q-135 -280 -248 -614z" />
    <glyph glyph-name="E.aalt" horiz-adv-x="1001" 
d="M901 178q39 -23 49 -86q-150 -113 -377 -112q-215 0 -336.5 96t-121.5 274q0 127 68.5 215t185.5 129q-203 80 -203 299q0 154 110.5 250t286.5 96q186 0 311 -84q-6 -51 -47 -92q-119 72 -260 72q-135 0 -213 -65.5t-78 -176.5q0 -113 82 -180.5t252 -67.5h131
q8 -33 8.5 -53t-8.5 -49h-153q-172 0 -265.5 -78t-93.5 -207t90.5 -202.5t255.5 -73.5q195 0 326 96z" />
    <glyph glyph-name="Eacute.aalt" horiz-adv-x="1001" 
d="M387 1391q-25 20 -27 51l334 221q57 -33 60 -104zM901 178q39 -23 49 -86q-150 -113 -377 -112q-215 0 -336.5 96t-121.5 274q0 127 68.5 215t185.5 129q-203 80 -203 299q0 154 110.5 250t286.5 96q186 0 311 -84q-6 -51 -47 -92q-119 72 -260 72q-135 0 -213 -65.5
t-78 -176.5q0 -113 82 -180.5t252 -67.5h131q8 -33 8.5 -53t-8.5 -49h-153q-172 0 -265.5 -78t-93.5 -207t90.5 -202.5t255.5 -73.5q195 0 326 96z" />
    <glyph glyph-name="Ecaron.aalt" horiz-adv-x="1001" 
d="M590 1399q-43 -12 -84 0l-223 194q12 39 43 62l227 -166l219 166q33 -23 41 -62zM901 178q39 -23 49 -86q-150 -113 -377 -112q-215 0 -336.5 96t-121.5 274q0 127 68.5 215t185.5 129q-203 80 -203 299q0 154 110.5 250t286.5 96q186 0 311 -84q-6 -51 -47 -92
q-119 72 -260 72q-135 0 -213 -65.5t-78 -176.5q0 -113 82 -180.5t252 -67.5h131q8 -33 8.5 -53t-8.5 -49h-153q-172 0 -265.5 -78t-93.5 -207t90.5 -202.5t255.5 -73.5q195 0 326 96z" />
    <glyph glyph-name="Ecircumflex.aalt" horiz-adv-x="1001" 
d="M322 1389q-33 18 -41 59l223 197q43 12 84 0l223 -195q-12 -41 -41 -61l-229 163zM901 178q39 -23 49 -86q-150 -113 -377 -112q-215 0 -336.5 96t-121.5 274q0 127 68.5 215t185.5 129q-203 80 -203 299q0 154 110.5 250t286.5 96q186 0 311 -84q-6 -51 -47 -92
q-119 72 -260 72q-135 0 -213 -65.5t-78 -176.5q0 -113 82 -180.5t252 -67.5h131q8 -33 8.5 -53t-8.5 -49h-153q-172 0 -265.5 -78t-93.5 -207t90.5 -202.5t255.5 -73.5q195 0 326 96z" />
    <glyph glyph-name="Edieresis.aalt" horiz-adv-x="1001" 
d="M346 1452q-37 0 -61.5 23.5t-24.5 60.5q0 35 24.5 58.5t61.5 23.5q33 0 56.5 -23.5t23.5 -58.5q0 -37 -22.5 -60.5t-57.5 -23.5zM747.5 1452q-34.5 0 -58 23.5t-23.5 60.5q0 35 23.5 58.5t58 23.5t58 -24.5t23.5 -57.5q0 -37 -23.5 -60.5t-58 -23.5zM901 178
q39 -23 49 -86q-150 -113 -377 -112q-215 0 -336.5 96t-121.5 274q0 127 68.5 215t185.5 129q-203 80 -203 299q0 154 110.5 250t286.5 96q186 0 311 -84q-6 -51 -47 -92q-119 72 -260 72q-135 0 -213 -65.5t-78 -176.5q0 -113 82 -180.5t252 -67.5h131q8 -33 8.5 -53
t-8.5 -49h-153q-172 0 -265.5 -78t-93.5 -207t90.5 -202.5t255.5 -73.5q195 0 326 96z" />
    <glyph glyph-name="Edotaccent.aalt" horiz-adv-x="1001" 
d="M547 1452q-37 0 -62.5 24.5t-25.5 61.5t25.5 62.5t62.5 25.5q35 0 60.5 -25.5t25.5 -62.5t-25.5 -61.5t-60.5 -24.5zM901 178q39 -23 49 -86q-150 -113 -377 -112q-215 0 -336.5 96t-121.5 274q0 127 68.5 215t185.5 129q-203 80 -203 299q0 154 110.5 250t286.5 96
q186 0 311 -84q-6 -51 -47 -92q-119 72 -260 72q-135 0 -213 -65.5t-78 -176.5q0 -113 82 -180.5t252 -67.5h131q8 -33 8.5 -53t-8.5 -49h-153q-172 0 -265.5 -78t-93.5 -207t90.5 -202.5t255.5 -73.5q195 0 326 96z" />
    <glyph glyph-name="Egrave.aalt" horiz-adv-x="1001" 
d="M719 1442q-2 -33 -25 -51l-368 168q2 70 59 104zM901 178q39 -23 49 -86q-150 -113 -377 -112q-215 0 -336.5 96t-121.5 274q0 127 68.5 215t185.5 129q-203 80 -203 299q0 154 110.5 250t286.5 96q186 0 311 -84q-6 -51 -47 -92q-119 72 -260 72q-135 0 -213 -65.5
t-78 -176.5q0 -113 82 -180.5t252 -67.5h131q8 -33 8.5 -53t-8.5 -49h-153q-172 0 -265.5 -78t-93.5 -207t90.5 -202.5t255.5 -73.5q195 0 326 96z" />
    <glyph glyph-name="Emacron.aalt" horiz-adv-x="1001" 
d="M811 1475h-530q-6 25 -6.5 49t6.5 45h530q6 -14 6 -45q0 -33 -6 -49zM901 178q39 -23 49 -86q-150 -113 -377 -112q-215 0 -336.5 96t-121.5 274q0 127 68.5 215t185.5 129q-203 80 -203 299q0 154 110.5 250t286.5 96q186 0 311 -84q-6 -51 -47 -92q-119 72 -260 72
q-135 0 -213 -65.5t-78 -176.5q0 -113 82 -180.5t252 -67.5h131q8 -33 8.5 -53t-8.5 -49h-153q-172 0 -265.5 -78t-93.5 -207t90.5 -202.5t255.5 -73.5q195 0 326 96z" />
    <glyph glyph-name="Eogonek.aalt" horiz-adv-x="1001" 
d="M879 -240q45 -20 45 -69q-70 -66 -170 -66q-70 0 -114 39t-44 107q0 111 121 221q-66 -12 -144 -12q-215 0 -336.5 96t-121.5 274q0 127 68.5 215t185.5 129q-203 80 -203 299q0 154 110.5 250t286.5 96q186 0 311 -84q-6 -51 -47 -92q-119 72 -260 72q-135 0 -213 -65.5
t-78 -176.5q0 -113 82 -180.5t252 -67.5h131q8 -33 8.5 -53t-8.5 -49h-153q-172 0 -265.5 -78t-93.5 -207t90.5 -202.5t255.5 -73.5q195 0 326 96q39 -23 49 -86q-23 -18 -61 -39q-78 -59 -130 -127.5t-52 -124.5q0 -39 22.5 -58t54.5 -19q54 -1 95 36z" />
    <glyph glyph-name="Q.aalt" horiz-adv-x="1495" 
d="M1384 659q0 -174 -66.5 -320t-187.5 -239l158 -200q-29 -59 -88 -70l-166 209q-135 -66 -286 -66q-283 0 -460 194.5t-177 491.5q0 295 177 492t459.5 197t459.5 -194t177 -495zM748 80q119 0 219 45l-140 176q33 45 91 66l145 -183q203 162 203 475q0 260 -141.5 421
t-376.5 161q-238 0 -378.5 -160.5t-140.5 -421.5q0 -256 141.5 -417.5t377.5 -161.5z" />
    <glyph glyph-name="i.aalt" horiz-adv-x="456" 
d="M229.5 1159q-36.5 0 -64.5 26.5t-28 63.5t26.5 63.5t65.5 26.5q37 0 62.5 -26.5t25.5 -63.5q0 -39 -25.5 -64.5t-62 -25.5zM229 -6q-29 0 -57 6v961q27 6 57.5 6t55.5 -6v-961q-25 -6 -56 -6z" />
    <glyph glyph-name="glyph389" horiz-adv-x="485" 
d="M23 -401q-154 0 -234 84q14 53 64 79q86 -61 157 -61q82 0 136.5 56.5t54.5 174.5v1029q29 6 55 6q31 0 59 -6v-1029q0 -162 -88.5 -247.5t-203.5 -85.5z" />
    <glyph glyph-name="a.salt" horiz-adv-x="1150" 
d="M956 250q0 -76 24 -108.5t85 -63.5q0 -27 -16.5 -53.5t-36.5 -38.5q-121 37 -152 137q-125 -147 -321 -148q-193 0 -315 121t-122 357q0 242 143.5 389t356.5 147q207 0 354 -106v-633zM551 80q90 0 170 48t123 134v557q-102 63 -242 64q-168 0 -275.5 -115t-107.5 -315
q0 -178 91 -275.5t241 -97.5z" />
    <glyph glyph-name="aacute.salt" horiz-adv-x="1150" 
d="M426 1077q-27 16 -35 47l293 271q49 -27 74 -95zM956 250q0 -76 24 -108.5t85 -63.5q0 -27 -16.5 -53.5t-36.5 -38.5q-121 37 -152 137q-125 -147 -321 -148q-193 0 -315 121t-122 357q0 242 143.5 389t356.5 147q207 0 354 -106v-633zM551 80q90 0 170 48t123 134v557
q-102 63 -242 64q-168 0 -275.5 -115t-107.5 -315q0 -178 91 -275.5t241 -97.5z" />
    <glyph glyph-name="abreve.salt" horiz-adv-x="1150" 
d="M573.5 1096q-116.5 0 -187.5 70.5t-79 185.5q39 16 84 10q27 -176 184 -176q76 0 125.5 46t57.5 130q49 4 82 -10q-4 -111 -77 -183.5t-189.5 -72.5zM956 250q0 -76 24 -108.5t85 -63.5q0 -27 -16.5 -53.5t-36.5 -38.5q-121 37 -152 137q-125 -147 -321 -148
q-193 0 -315 121t-122 357q0 242 143.5 389t356.5 147q207 0 354 -106v-633zM551 80q90 0 170 48t123 134v557q-102 63 -242 64q-168 0 -275.5 -115t-107.5 -315q0 -178 91 -275.5t241 -97.5z" />
    <glyph glyph-name="acircumflex.salt" horiz-adv-x="1150" 
d="M365 1087q-41 16 -56 60l223 231q41 10 82 0l222 -231q-18 -47 -60 -64l-207 193zM956 250q0 -76 24 -108.5t85 -63.5q0 -27 -16.5 -53.5t-36.5 -38.5q-121 37 -152 137q-125 -147 -321 -148q-193 0 -315 121t-122 357q0 242 143.5 389t356.5 147q207 0 354 -106v-633z
M551 80q90 0 170 48t123 134v557q-102 63 -242 64q-168 0 -275.5 -115t-107.5 -315q0 -178 91 -275.5t241 -97.5z" />
    <glyph glyph-name="adieresis.salt" horiz-adv-x="1150" 
d="M369 1149q-37 0 -61.5 23.5t-24.5 60.5q0 35 24.5 59.5t61.5 24.5q35 0 59.5 -24.5t24.5 -59.5q0 -37 -24.5 -60.5t-59.5 -23.5zM778 1149q-37 0 -61.5 23.5t-24.5 60.5q0 35 24.5 59.5t61.5 24.5q35 0 59.5 -24.5t24.5 -59.5q0 -37 -24.5 -60.5t-59.5 -23.5zM956 250
q0 -76 24 -108.5t85 -63.5q0 -27 -16.5 -53.5t-36.5 -38.5q-121 37 -152 137q-125 -147 -321 -148q-193 0 -315 121t-122 357q0 242 143.5 389t356.5 147q207 0 354 -106v-633zM551 80q90 0 170 48t123 134v557q-102 63 -242 64q-168 0 -275.5 -115t-107.5 -315
q0 -178 91 -275.5t241 -97.5z" />
    <glyph glyph-name="agrave.salt" horiz-adv-x="1150" 
d="M737 1124q-4 -29 -32 -47l-332 223q25 70 73 95zM956 250q0 -76 24 -108.5t85 -63.5q0 -27 -16.5 -53.5t-36.5 -38.5q-121 37 -152 137q-125 -147 -321 -148q-193 0 -315 121t-122 357q0 242 143.5 389t356.5 147q207 0 354 -106v-633zM551 80q90 0 170 48t123 134v557
q-102 63 -242 64q-168 0 -275.5 -115t-107.5 -315q0 -178 91 -275.5t241 -97.5z" />
    <glyph glyph-name="amacron.salt" horiz-adv-x="1150" 
d="M831 1165h-518q-6 16 -6 47q0 25 6 48h518q8 -23 8 -47.5t-8 -47.5zM956 250q0 -76 24 -108.5t85 -63.5q0 -27 -16.5 -53.5t-36.5 -38.5q-121 37 -152 137q-125 -147 -321 -148q-193 0 -315 121t-122 357q0 242 143.5 389t356.5 147q207 0 354 -106v-633zM551 80
q90 0 170 48t123 134v557q-102 63 -242 64q-168 0 -275.5 -115t-107.5 -315q0 -178 91 -275.5t241 -97.5z" />
    <glyph glyph-name="aogonek.salt" horiz-adv-x="1155" 
d="M1008 -240q45 -20 45 -67q-68 -68 -172 -68q-72 0 -116 40t-44 112q0 78 58.5 147.5t154.5 116.5q-49 29 -72 84q-125 -150 -334 -150q-186 0 -305 121t-119 361q0 238 142.5 385t351.5 147t360 -106v-633q0 -68 23 -98.5t82 -36.5q4 -66 -27 -105q-102 -37 -153.5 -93
t-51.5 -114q0 -80 84 -79q52 -1 93 36zM543 80q92 0 173 47t130 131v561q-104 63 -248 64q-162 0 -269.5 -115t-107.5 -313q0 -178 88.5 -276.5t233.5 -98.5z" />
    <glyph glyph-name="aring.salt" horiz-adv-x="1150" 
d="M573 1044q-78 0 -133 55.5t-55 133.5t55.5 133t133 55t132 -55t54.5 -133t-55.5 -133.5t-131.5 -55.5zM573 1343q-45 0 -75.5 -32.5t-30.5 -77.5q0 -43 30.5 -76t75.5 -33q47 0 77 32t30 77t-30 77.5t-77 32.5zM956 250q0 -76 24 -108.5t85 -63.5q0 -27 -16.5 -53.5
t-36.5 -38.5q-121 37 -152 137q-125 -147 -321 -148q-193 0 -315 121t-122 357q0 242 143.5 389t356.5 147q207 0 354 -106v-633zM551 80q90 0 170 48t123 134v557q-102 63 -242 64q-168 0 -275.5 -115t-107.5 -315q0 -178 91 -275.5t241 -97.5z" />
    <glyph glyph-name="atilde.salt" horiz-adv-x="1150" 
d="M444 1235q-84 0 -112 -92q-57 0 -88 31q49 158 192 157q57 0 146.5 -43t124.5 -43q82 0 112 90q53 0 84 -30q-20 -74 -71.5 -115t-116.5 -41q-57 0 -146.5 43t-124.5 43zM956 250q0 -76 24 -108.5t85 -63.5q0 -27 -16.5 -53.5t-36.5 -38.5q-121 37 -152 137
q-125 -147 -321 -148q-193 0 -315 121t-122 357q0 242 143.5 389t356.5 147q207 0 354 -106v-633zM551 80q90 0 170 48t123 134v557q-102 63 -242 64q-168 0 -275.5 -115t-107.5 -315q0 -178 91 -275.5t241 -97.5z" />
    <glyph glyph-name="e.salt" horiz-adv-x="1034" 
d="M870 197q47 -29 60 -84q-145 -137 -359 -138q-203 0 -336 125t-133 365q0 233 137.5 377.5t333.5 144.5q166 0 261.5 -83t95.5 -208q0 -276 -393 -276q-172 0 -318 61v-14q0 -184 97.5 -284.5t256.5 -100.5q172 0 297 115zM573 885q-131 0 -224 -83t-120 -229
q141 -57 310 -57q276 0 276 174q0 80 -63.5 137.5t-178.5 57.5z" />
    <glyph glyph-name="eacute.salt" horiz-adv-x="1034" 
d="M428 1077q-27 16 -35 47l293 271q49 -27 74 -95zM870 197q47 -29 60 -84q-145 -137 -359 -138q-203 0 -336 125t-133 365q0 233 137.5 377.5t333.5 144.5q166 0 261.5 -83t95.5 -208q0 -276 -393 -276q-172 0 -318 61v-14q0 -184 97.5 -284.5t256.5 -100.5q172 0 297 115
zM573 885q-131 0 -224 -83t-120 -229q141 -57 310 -57q276 0 276 174q0 80 -63.5 137.5t-178.5 57.5z" />
    <glyph glyph-name="ecaron.salt" horiz-adv-x="1034" 
d="M614 1094q-41 -10 -82 0l-217 229q14 49 56 66l207 -195l206 190q43 -18 58 -61zM870 197q47 -29 60 -84q-145 -137 -359 -138q-203 0 -336 125t-133 365q0 233 137.5 377.5t333.5 144.5q166 0 261.5 -83t95.5 -208q0 -276 -393 -276q-172 0 -318 61v-14
q0 -184 97.5 -284.5t256.5 -100.5q172 0 297 115zM573 885q-131 0 -224 -83t-120 -229q141 -57 310 -57q276 0 276 174q0 80 -63.5 137.5t-178.5 57.5z" />
    <glyph glyph-name="ecircumflex.salt" horiz-adv-x="1034" 
d="M367 1087q-41 16 -56 60l224 231q41 10 81 0l222 -231q-18 -47 -60 -64l-207 193zM870 197q47 -29 60 -84q-145 -137 -359 -138q-203 0 -336 125t-133 365q0 233 137.5 377.5t333.5 144.5q166 0 261.5 -83t95.5 -208q0 -276 -393 -276q-172 0 -318 61v-14
q0 -184 97.5 -284.5t256.5 -100.5q172 0 297 115zM573 885q-131 0 -224 -83t-120 -229q141 -57 310 -57q276 0 276 174q0 80 -63.5 137.5t-178.5 57.5z" />
    <glyph glyph-name="edieresis.salt" horiz-adv-x="1034" 
d="M373 1149q-37 0 -61.5 23.5t-24.5 60.5q0 35 24.5 59.5t61.5 24.5q35 0 59.5 -24.5t24.5 -59.5q0 -37 -24.5 -60.5t-59.5 -23.5zM782 1149q-37 0 -61.5 23.5t-24.5 60.5q0 35 24.5 59.5t61.5 24.5q35 0 59.5 -24.5t24.5 -59.5q0 -37 -24.5 -60.5t-59.5 -23.5zM870 197
q47 -29 60 -84q-145 -137 -359 -138q-203 0 -336 125t-133 365q0 233 137.5 377.5t333.5 144.5q166 0 261.5 -83t95.5 -208q0 -276 -393 -276q-172 0 -318 61v-14q0 -184 97.5 -284.5t256.5 -100.5q172 0 297 115zM573 885q-131 0 -224 -83t-120 -229q141 -57 310 -57
q276 0 276 174q0 80 -63.5 137.5t-178.5 57.5z" />
    <glyph glyph-name="edotaccent.salt" horiz-adv-x="1034" 
d="M575.5 1157q-36.5 0 -64.5 26.5t-28 63.5t27 63.5t65 26.5q37 0 63 -26.5t26 -63.5q0 -39 -26 -64.5t-62.5 -25.5zM870 197q47 -29 60 -84q-145 -137 -359 -138q-203 0 -336 125t-133 365q0 233 137.5 377.5t333.5 144.5q166 0 261.5 -83t95.5 -208q0 -276 -393 -276
q-172 0 -318 61v-14q0 -184 97.5 -284.5t256.5 -100.5q172 0 297 115zM573 885q-131 0 -224 -83t-120 -229q141 -57 310 -57q276 0 276 174q0 80 -63.5 137.5t-178.5 57.5z" />
    <glyph glyph-name="egrave.salt" horiz-adv-x="1034" 
d="M739 1124q-4 -29 -32 -47l-332 223q25 70 74 95zM870 197q47 -29 60 -84q-145 -137 -359 -138q-203 0 -336 125t-133 365q0 233 137.5 377.5t333.5 144.5q166 0 261.5 -83t95.5 -208q0 -276 -393 -276q-172 0 -318 61v-14q0 -184 97.5 -284.5t256.5 -100.5q172 0 297 115
zM573 885q-131 0 -224 -83t-120 -229q141 -57 310 -57q276 0 276 174q0 80 -63.5 137.5t-178.5 57.5z" />
    <glyph glyph-name="emacron.salt" horiz-adv-x="1034" 
d="M834 1165h-519q-6 16 -6 47q0 25 6 48h519q8 -23 8 -47.5t-8 -47.5zM870 197q47 -29 60 -84q-145 -137 -359 -138q-203 0 -336 125t-133 365q0 233 137.5 377.5t333.5 144.5q166 0 261.5 -83t95.5 -208q0 -276 -393 -276q-172 0 -318 61v-14q0 -184 97.5 -284.5
t256.5 -100.5q172 0 297 115zM573 885q-131 0 -224 -83t-120 -229q141 -57 310 -57q276 0 276 174q0 80 -63.5 137.5t-178.5 57.5z" />
    <glyph glyph-name="eogonek.salt" horiz-adv-x="1034" 
d="M850 51q-78 -59 -129 -126.5t-51 -123.5q0 -39 22.5 -58t55.5 -19q53 0 94 36q45 -20 45 -69q-70 -66 -170 -66q-70 0 -114 39t-44 107q0 106 111 213q-41 -8 -99 -9q-203 0 -336 125t-133 365q0 233 137.5 377.5t333.5 144.5q166 0 261.5 -83t95.5 -208
q0 -276 -393 -276q-172 0 -318 61v-14q0 -184 97.5 -284.5t256.5 -100.5q172 0 297 115q47 -29 60 -84q-43 -39 -80 -62zM573 885q-131 0 -224 -83t-120 -229q141 -57 310 -57q276 0 276 174q0 80 -63.5 137.5t-178.5 57.5z" />
    <glyph glyph-name="g.salt" horiz-adv-x="1124" 
d="M600 989q209 0 363 -125v-856q0 -184 -124 -295.5t-325 -111.5q-152 0 -231.5 63.5t-79.5 173.5q0 170 215 252q-145 43 -231.5 152.5t-86.5 271.5q0 211 144.5 343t355.5 132zM219 514q0 -164 104.5 -255t274.5 -91q137 0 252 88v547q-98 80 -248 80
q-170 0 -276.5 -103.5t-106.5 -265.5zM514 -297q154 0 245 83t91 222v127q-82 -51 -186 -63q-188 -33 -267.5 -86.5t-79.5 -137.5q0 -145 197 -145z" />
    <glyph glyph-name="gbreve.salt" horiz-adv-x="1124" 
d="M561 1096q-117 0 -187.5 70.5t-78.5 185.5q39 16 84 10q27 -176 184 -176q76 0 125 46t57 130q49 4 82 -10q-4 -111 -76.5 -183.5t-189.5 -72.5zM600 989q209 0 363 -125v-856q0 -184 -124 -295.5t-325 -111.5q-152 0 -231.5 63.5t-79.5 173.5q0 170 215 252
q-145 43 -231.5 152.5t-86.5 271.5q0 211 144.5 343t355.5 132zM219 514q0 -164 104.5 -255t274.5 -91q137 0 252 88v547q-98 80 -248 80q-170 0 -276.5 -103.5t-106.5 -265.5zM514 -297q154 0 245 83t91 222v127q-82 -51 -186 -63q-188 -33 -267.5 -86.5t-79.5 -137.5
q0 -145 197 -145z" />
    <glyph glyph-name="uni0123.salt" horiz-adv-x="1124" 
d="M553 1040q-35 0 -53 9q-10 37 -11 90q0 160 132 250q27 -6 36 -39q-63 -63 -63 -183q0 -59 20 -116q-20 -11 -61 -11zM600 989q209 0 363 -125v-856q0 -184 -124 -295.5t-325 -111.5q-152 0 -231.5 63.5t-79.5 173.5q0 170 215 252q-145 43 -231.5 152.5t-86.5 271.5
q0 211 144.5 343t355.5 132zM219 514q0 -164 104.5 -255t274.5 -91q137 0 252 88v547q-98 80 -248 80q-170 0 -276.5 -103.5t-106.5 -265.5zM514 -297q154 0 245 83t91 222v127q-82 -51 -186 -63q-188 -33 -267.5 -86.5t-79.5 -137.5q0 -145 197 -145z" />
    <glyph glyph-name="gdotaccent.salt" horiz-adv-x="1124" 
d="M561 1157q-37 0 -64.5 26.5t-27.5 63.5t26.5 63.5t65.5 26.5q37 0 62.5 -26.5t25.5 -63.5q0 -39 -25.5 -64.5t-62.5 -25.5zM600 989q209 0 363 -125v-856q0 -184 -124 -295.5t-325 -111.5q-152 0 -231.5 63.5t-79.5 173.5q0 170 215 252q-145 43 -231.5 152.5
t-86.5 271.5q0 211 144.5 343t355.5 132zM219 514q0 -164 104.5 -255t274.5 -91q137 0 252 88v547q-98 80 -248 80q-170 0 -276.5 -103.5t-106.5 -265.5zM514 -297q154 0 245 83t91 222v127q-82 -51 -186 -63q-188 -33 -267.5 -86.5t-79.5 -137.5q0 -145 197 -145z" />
    <glyph glyph-name="k.aalt" horiz-adv-x="1077" 
d="M680 377l321 -375q-41 -10 -88 -10q-37 0 -57 4l-276 330q-37 47 -37 110q150 35 227.5 92.5t77.5 163.5q0 86 -59.5 139.5t-157.5 53.5q-145 0 -247.5 -95.5t-102.5 -236.5v-553q-25 -6 -56 -6q-29 0 -57 6v1348q29 6 57 6q31 0 56 -6v-549q125 188 360 188
q154 0 238 -78t84 -207q0 -239 -283 -325z" />
    <glyph glyph-name="uni0137.aalt" horiz-adv-x="1077" 
d="M680 377l321 -375q-41 -10 -88 -10q-37 0 -57 4l-276 330q-37 47 -37 110q150 35 227.5 92.5t77.5 163.5q0 86 -59.5 139.5t-157.5 53.5q-145 0 -247.5 -95.5t-102.5 -236.5v-553q-25 -6 -56 -6q-29 0 -57 6v1348q29 6 57 6q31 0 56 -6v-549q125 188 360 188
q154 0 238 -78t84 -207q0 -239 -283 -325zM504 -80q35 0 53 -8q10 -37 10 -90q0 -160 -131 -250q-27 6 -37 39q63 63 64 182q0 53 -19 117q17 10 60 10z" />
    <glyph glyph-name="l.aalt" horiz-adv-x="606" 
d="M391 -16q-96 0 -163.5 55t-67.5 162v1147q27 6 57 6q29 0 57 -6v-1133q0 -66 37 -97.5t92 -31.5q74 0 134 66q51 -25 65 -80q-82 -88 -211 -88z" />
    <glyph glyph-name="lacute.aalt" horiz-adv-x="606" 
d="M72 1391q-25 20 -27 51l334 221q57 -33 59 -104zM391 -16q-96 0 -163.5 55t-67.5 162v1147q27 6 57 6q29 0 57 -6v-1133q0 -66 37 -97.5t92 -31.5q74 0 134 66q51 -25 65 -80q-82 -88 -211 -88z" />
    <glyph glyph-name="lcaron.aalt" horiz-adv-x="606" 
d="M426 1016q-31 4 -45 28q39 72 39 195q0 76 -19 129q14 12 60 12q29 0 49 -10q12 -37 12 -86q0 -78 -27.5 -151.5t-68.5 -116.5zM391 -16q-96 0 -163.5 55t-67.5 162v1147q27 6 57 6q29 0 57 -6v-1133q0 -66 37 -97.5t92 -31.5q74 0 134 66q51 -25 65 -80
q-82 -88 -211 -88z" />
    <glyph glyph-name="uni013C.aalt" horiz-adv-x="606" 
d="M391 -16q-96 0 -163.5 55t-67.5 162v1147q27 6 57 6q29 0 57 -6v-1133q0 -66 37 -97.5t92 -31.5q74 0 134 66q51 -25 65 -80q-82 -88 -211 -88zM301 -428q-27 6 -37 39q63 63 64 182q0 53 -19 117q16 10 60 10q35 0 53 -8q10 -37 10 -90q0 -160 -131 -250z" />
    <glyph glyph-name="ldot.aalt" horiz-adv-x="606" 
d="M391 -16q-96 0 -163.5 55t-67.5 162v1147q27 6 57 6q29 0 57 -6v-1133q0 -66 37 -97.5t92 -31.5q74 0 134 66q51 -25 65 -80q-82 -88 -211 -88zM479 588q-39 0 -65.5 26.5t-26.5 65.5t26.5 65.5t65.5 26.5t66.5 -26.5t27.5 -65.5t-27.5 -65.5t-66.5 -26.5z" />
    <glyph glyph-name="lslash.aalt" horiz-adv-x="606" 
d="M537 152q51 -25 65 -80q-82 -88 -211 -88q-96 0 -163.5 55t-67.5 162v407l-125 -63q-35 31 -39 78l164 84v641q27 6 57 6q29 0 57 -6v-582l127 65q33 -29 39 -79l-166 -84v-453q0 -66 37 -97.5t92 -31.5q75 0 134 66z" />
    <glyph glyph-name="y.salt" horiz-adv-x="1132" 
d="M907 967q31 0 58 -6v-953q0 -184 -123 -295.5t-320 -111.5q-150 0 -231.5 60t-81.5 167q0 168 211 248q-129 29 -196.5 120t-67.5 230v535q29 6 55 6q31 0 57 -6v-488q0 -154 66.5 -234.5t236.5 -80.5q162 0 281 78v725q28 6 55 6zM522 -297q150 0 240 85t90 220v115
q-88 -45 -182 -62q-186 -27 -265 -79t-79 -136q0 -70 52 -106.5t144 -36.5z" />
    <glyph glyph-name="yacute.salt" horiz-adv-x="1132" 
d="M416 1077q-27 16 -35 47l293 271q49 -27 74 -95zM907 967q31 0 58 -6v-953q0 -184 -123 -295.5t-320 -111.5q-150 0 -231.5 60t-81.5 167q0 168 211 248q-129 29 -196.5 120t-67.5 230v535q29 6 55 6q31 0 57 -6v-488q0 -154 66.5 -234.5t236.5 -80.5q162 0 281 78v725
q28 6 55 6zM522 -297q150 0 240 85t90 220v115q-88 -45 -182 -62q-186 -27 -265 -79t-79 -136q0 -70 52 -106.5t144 -36.5z" />
    <glyph glyph-name="ycircumflex.salt" horiz-adv-x="1132" 
d="M356 1087q-41 16 -55 60l223 231q41 10 82 0l221 -231q-18 -47 -59 -64l-207 193zM907 967q31 0 58 -6v-953q0 -184 -123 -295.5t-320 -111.5q-150 0 -231.5 60t-81.5 167q0 168 211 248q-129 29 -196.5 120t-67.5 230v535q29 6 55 6q31 0 57 -6v-488q0 -154 66.5 -234.5
t236.5 -80.5q162 0 281 78v725q28 6 55 6zM522 -297q150 0 240 85t90 220v115q-88 -45 -182 -62q-186 -27 -265 -79t-79 -136q0 -70 52 -106.5t144 -36.5z" />
    <glyph glyph-name="ydieresis.salt" horiz-adv-x="1132" 
d="M360 1149q-37 0 -61.5 23.5t-24.5 60.5q0 35 25 59.5t61 24.5q35 0 59.5 -24.5t24.5 -59.5q0 -37 -24.5 -60.5t-59.5 -23.5zM770 1149q-37 0 -61.5 23.5t-24.5 60.5q0 35 24.5 59.5t61.5 24.5q35 0 59.5 -24.5t24.5 -59.5q0 -37 -24.5 -60.5t-59.5 -23.5zM907 967
q31 0 58 -6v-953q0 -184 -123 -295.5t-320 -111.5q-150 0 -231.5 60t-81.5 167q0 168 211 248q-129 29 -196.5 120t-67.5 230v535q29 6 55 6q31 0 57 -6v-488q0 -154 66.5 -234.5t236.5 -80.5q162 0 281 78v725q28 6 55 6zM522 -297q150 0 240 85t90 220v115
q-88 -45 -182 -62q-186 -27 -265 -79t-79 -136q0 -70 52 -106.5t144 -36.5z" />
    <glyph glyph-name="ygrave.salt" horiz-adv-x="1132" 
d="M727 1124q-4 -29 -33 -47l-332 223q25 70 74 95zM907 967q31 0 58 -6v-953q0 -184 -123 -295.5t-320 -111.5q-150 0 -231.5 60t-81.5 167q0 168 211 248q-129 29 -196.5 120t-67.5 230v535q29 6 55 6q31 0 57 -6v-488q0 -154 66.5 -234.5t236.5 -80.5q162 0 281 78v725
q28 6 55 6zM522 -297q150 0 240 85t90 220v115q-88 -45 -182 -62q-186 -27 -265 -79t-79 -136q0 -70 52 -106.5t144 -36.5z" />
    <glyph glyph-name="uni1EF9.salt" horiz-adv-x="1132" 
d="M436 1235q-84 0 -112 -92q-57 0 -88 31q49 158 192 157q57 0 146.5 -43t123.5 -43q82 0 113 90q53 0 84 -30q-20 -74 -71.5 -115t-116.5 -41q-57 0 -146.5 43t-124.5 43zM907 967q31 0 58 -6v-953q0 -184 -123 -295.5t-320 -111.5q-150 0 -231.5 60t-81.5 167
q0 168 211 248q-129 29 -196.5 120t-67.5 230v535q29 6 55 6q31 0 57 -6v-488q0 -154 66.5 -234.5t236.5 -80.5q162 0 281 78v725q28 6 55 6zM522 -297q150 0 240 85t90 220v115q-88 -45 -182 -62q-186 -27 -265 -79t-79 -136q0 -70 52 -106.5t144 -36.5z" />
    <glyph glyph-name="a.ss02" horiz-adv-x="1030" 
d="M848 219q0 -66 21.5 -93.5t84.5 -47.5q-4 -70 -39 -96q-84 12 -123.5 50t-48.5 111l-8 9v2q-109 -178 -325 -179q-150 0 -237 78t-87 213q0 137 104.5 212t294.5 77h250v80q0 127 -72.5 187.5t-195.5 60.5q-147 0 -279 -101q-41 25 -59 80q47 45 139 86t205 41
q164 0 269.5 -87t105.5 -275v-408zM422 74q125 0 219 88t94 280v17l-250 -2q-283 0 -282 -189q0 -92 57.5 -143t161.5 -51z" />
    <glyph glyph-name="aacute.ss02" horiz-adv-x="1030" 
d="M322 1077q-27 16 -35 47l293 271q49 -27 73 -95zM848 219q0 -66 21.5 -93.5t84.5 -47.5q-4 -70 -39 -96q-84 12 -123.5 50t-48.5 111l-8 9v2q-109 -178 -325 -179q-150 0 -237 78t-87 213q0 137 104.5 212t294.5 77h250v80q0 127 -72.5 187.5t-195.5 60.5
q-147 0 -279 -101q-41 25 -59 80q47 45 139 86t205 41q164 0 269.5 -87t105.5 -275v-408zM422 74q125 0 219 88t94 280v17l-250 -2q-283 0 -282 -189q0 -92 57.5 -143t161.5 -51z" />
    <glyph glyph-name="abreve.ss02" horiz-adv-x="1030" 
d="M469 1096q-117 0 -187.5 70.5t-78.5 185.5q39 16 84 10q27 -176 184 -176q76 0 125 46t57 130q49 4 82 -10q-4 -111 -76.5 -183.5t-189.5 -72.5zM848 219q0 -66 21.5 -93.5t84.5 -47.5q-4 -70 -39 -96q-84 12 -123.5 50t-48.5 111l-8 9v2q-109 -178 -325 -179
q-150 0 -237 78t-87 213q0 137 104.5 212t294.5 77h250v80q0 127 -72.5 187.5t-195.5 60.5q-147 0 -279 -101q-41 25 -59 80q47 45 139 86t205 41q164 0 269.5 -87t105.5 -275v-408zM422 74q125 0 219 88t94 280v17l-250 -2q-283 0 -282 -189q0 -92 57.5 -143t161.5 -51z
" />
    <glyph glyph-name="acircumflex.ss02" horiz-adv-x="1030" 
d="M260 1087q-41 16 -55 60l223 231q41 10 82 0l221 -231q-18 -47 -59 -64l-207 193zM848 219q0 -66 21.5 -93.5t84.5 -47.5q-4 -70 -39 -96q-84 12 -123.5 50t-48.5 111l-8 9v2q-109 -178 -325 -179q-150 0 -237 78t-87 213q0 137 104.5 212t294.5 77h250v80
q0 127 -72.5 187.5t-195.5 60.5q-147 0 -279 -101q-41 25 -59 80q47 45 139 86t205 41q164 0 269.5 -87t105.5 -275v-408zM422 74q125 0 219 88t94 280v17l-250 -2q-283 0 -282 -189q0 -92 57.5 -143t161.5 -51z" />
    <glyph glyph-name="adieresis.ss02" horiz-adv-x="1030" 
d="M266 1149q-37 0 -61.5 23.5t-24.5 60.5q0 35 24.5 59.5t61.5 24.5q35 0 59.5 -24.5t24.5 -59.5q0 -37 -24.5 -60.5t-59.5 -23.5zM676 1149q-37 0 -61.5 23.5t-24.5 60.5q0 35 24.5 59.5t61.5 24.5q35 0 59.5 -24.5t24.5 -59.5q0 -37 -24.5 -60.5t-59.5 -23.5zM848 219
q0 -66 21.5 -93.5t84.5 -47.5q-4 -70 -39 -96q-84 12 -123.5 50t-48.5 111l-8 9v2q-109 -178 -325 -179q-150 0 -237 78t-87 213q0 137 104.5 212t294.5 77h250v80q0 127 -72.5 187.5t-195.5 60.5q-147 0 -279 -101q-41 25 -59 80q47 45 139 86t205 41q164 0 269.5 -87
t105.5 -275v-408zM422 74q125 0 219 88t94 280v17l-250 -2q-283 0 -282 -189q0 -92 57.5 -143t161.5 -51z" />
    <glyph glyph-name="agrave.ss02" horiz-adv-x="1030" 
d="M633 1124q-4 -29 -33 -47l-332 223q25 70 74 95zM848 219q0 -66 21.5 -93.5t84.5 -47.5q-4 -70 -39 -96q-84 12 -123.5 50t-48.5 111l-8 9v2q-109 -178 -325 -179q-150 0 -237 78t-87 213q0 137 104.5 212t294.5 77h250v80q0 127 -72.5 187.5t-195.5 60.5
q-147 0 -279 -101q-41 25 -59 80q47 45 139 86t205 41q164 0 269.5 -87t105.5 -275v-408zM422 74q125 0 219 88t94 280v17l-250 -2q-283 0 -282 -189q0 -92 57.5 -143t161.5 -51z" />
    <glyph glyph-name="amacron.ss02" horiz-adv-x="1030" 
d="M727 1165h-518q-6 16 -6 47q0 25 6 48h518q8 -23 8 -47.5t-8 -47.5zM848 219q0 -66 21.5 -93.5t84.5 -47.5q-4 -70 -39 -96q-84 12 -123.5 50t-48.5 111l-8 9v2q-109 -178 -325 -179q-150 0 -237 78t-87 213q0 137 104.5 212t294.5 77h250v80q0 127 -72.5 187.5
t-195.5 60.5q-147 0 -279 -101q-41 25 -59 80q47 45 139 86t205 41q164 0 269.5 -87t105.5 -275v-408zM422 74q125 0 219 88t94 280v17l-250 -2q-283 0 -282 -189q0 -92 57.5 -143t161.5 -51z" />
    <glyph glyph-name="aogonek.ss02" horiz-adv-x="1028" 
d="M893 -238q45 -25 47 -69q-76 -68 -174 -68q-72 0 -116 39t-44 111q0 74 55.5 142.5t149.5 113.5q-47 27 -68 112l-6 7q-57 -88 -144 -131.5t-177 -43.5q-156 0 -243 78t-87 213t104.5 211t294.5 78h250v82q0 127 -72.5 186.5t-195.5 59.5q-147 0 -279 -101q-39 20 -59 80
q145 127 344 127q164 0 269.5 -87t105.5 -275v-377q0 -78 22.5 -107.5t85.5 -38.5q0 -66 -30 -106q-102 -27 -155.5 -82t-53.5 -115q0 -78 84 -77q53 -1 92 38zM422 74q49 0 98 16t100.5 53t83 115t31.5 184v17l-250 -2q-283 0 -282 -189q0 -92 57.5 -143t161.5 -51z" />
    <glyph glyph-name="aring.ss02" horiz-adv-x="1030" 
d="M471 1044q-78 0 -133 55.5t-55 133.5t55 133t133 55t132 -55t54 -133t-55 -133.5t-131 -55.5zM471 1343q-45 0 -75.5 -32.5t-30.5 -77.5q0 -43 30.5 -76t75.5 -33q47 0 77 32t30 77t-30 77.5t-77 32.5zM848 219q0 -66 21.5 -93.5t84.5 -47.5q-4 -70 -39 -96
q-84 12 -123.5 50t-48.5 111l-8 9v2q-109 -178 -325 -179q-150 0 -237 78t-87 213q0 137 104.5 212t294.5 77h250v80q0 127 -72.5 187.5t-195.5 60.5q-147 0 -279 -101q-41 25 -59 80q47 45 139 86t205 41q164 0 269.5 -87t105.5 -275v-408zM422 74q125 0 219 88t94 280v17
l-250 -2q-283 0 -282 -189q0 -92 57.5 -143t161.5 -51z" />
    <glyph glyph-name="atilde.ss02" horiz-adv-x="1030" 
d="M340 1235q-84 0 -113 -92q-57 0 -88 31q49 158 193 157q57 0 146 -43t124 -43q82 0 113 90q53 0 84 -30q-20 -74 -71.5 -115t-117.5 -41q-57 0 -146 43t-124 43zM848 219q0 -66 21.5 -93.5t84.5 -47.5q-4 -70 -39 -96q-84 12 -123.5 50t-48.5 111l-8 9v2
q-109 -178 -325 -179q-150 0 -237 78t-87 213q0 137 104.5 212t294.5 77h250v80q0 127 -72.5 187.5t-195.5 60.5q-147 0 -279 -101q-41 25 -59 80q47 45 139 86t205 41q164 0 269.5 -87t105.5 -275v-408zM422 74q125 0 219 88t94 280v17l-250 -2q-283 0 -282 -189
q0 -92 57.5 -143t161.5 -51z" />
    <glyph glyph-name="e.ss02" horiz-adv-x="1052" 
d="M883 193q45 -25 61 -80q-156 -137 -364.5 -137.5t-343 136t-134.5 371.5q0 225 134.5 365.5t328.5 140.5q170 0 281.5 -109.5t120.5 -271.5l-740 -223q27 -141 121 -222t234 -81q168 0 301 111zM563 885q-156 0 -250 -109.5t-94 -286.5v-6l615 185q-6 74 -77 145.5
t-194 71.5z" />
    <glyph glyph-name="eacute.ss02" horiz-adv-x="1052" 
d="M395 1077q-27 16 -35 47l293 271q49 -27 74 -95zM883 193q45 -25 61 -80q-156 -137 -364.5 -137.5t-343 136t-134.5 371.5q0 225 134.5 365.5t328.5 140.5q170 0 281.5 -109.5t120.5 -271.5l-740 -223q27 -141 121 -222t234 -81q168 0 301 111zM563 885
q-156 0 -250 -109.5t-94 -286.5v-6l615 185q-6 74 -77 145.5t-194 71.5z" />
    <glyph glyph-name="ecaron.ss02" horiz-adv-x="1052" 
d="M582 1094q-41 -10 -82 0l-217 229q14 49 55 66l207 -195l207 190q43 -18 57 -61zM883 193q45 -25 61 -80q-156 -137 -364.5 -137.5t-343 136t-134.5 371.5q0 225 134.5 365.5t328.5 140.5q170 0 281.5 -109.5t120.5 -271.5l-740 -223q27 -141 121 -222t234 -81
q168 0 301 111zM563 885q-156 0 -250 -109.5t-94 -286.5v-6l615 185q-6 74 -77 145.5t-194 71.5z" />
    <glyph glyph-name="ecircumflex.ss02" horiz-adv-x="1052" 
d="M334 1087q-41 16 -55 60l223 231q41 10 82 0l221 -231q-18 -47 -60 -64l-206 193zM883 193q45 -25 61 -80q-156 -137 -364.5 -137.5t-343 136t-134.5 371.5q0 225 134.5 365.5t328.5 140.5q170 0 281.5 -109.5t120.5 -271.5l-740 -223q27 -141 121 -222t234 -81
q168 0 301 111zM563 885q-156 0 -250 -109.5t-94 -286.5v-6l615 185q-6 74 -77 145.5t-194 71.5z" />
    <glyph glyph-name="edieresis.ss02" horiz-adv-x="1052" 
d="M338 1149q-37 0 -61.5 23.5t-24.5 60.5q0 35 24.5 59.5t61.5 24.5q35 0 59.5 -24.5t24.5 -59.5q0 -37 -24.5 -60.5t-59.5 -23.5zM748 1149q-37 0 -61.5 23.5t-24.5 60.5q0 35 24.5 59.5t61.5 24.5q35 0 59 -24.5t24 -59.5q0 -37 -24 -60.5t-59 -23.5zM883 193
q45 -25 61 -80q-156 -137 -364.5 -137.5t-343 136t-134.5 371.5q0 225 134.5 365.5t328.5 140.5q170 0 281.5 -109.5t120.5 -271.5l-740 -223q27 -141 121 -222t234 -81q168 0 301 111zM563 885q-156 0 -250 -109.5t-94 -286.5v-6l615 185q-6 74 -77 145.5t-194 71.5z" />
    <glyph glyph-name="edotaccent.ss02" horiz-adv-x="1052" 
d="M543 1157q-37 0 -64.5 26.5t-27.5 63.5t26.5 63.5t65.5 26.5q37 0 62.5 -26.5t25.5 -63.5q0 -39 -25.5 -64.5t-62.5 -25.5zM883 193q45 -25 61 -80q-156 -137 -364.5 -137.5t-343 136t-134.5 371.5q0 225 134.5 365.5t328.5 140.5q170 0 281.5 -109.5t120.5 -271.5
l-740 -223q27 -141 121 -222t234 -81q168 0 301 111zM563 885q-156 0 -250 -109.5t-94 -286.5v-6l615 185q-6 74 -77 145.5t-194 71.5z" />
    <glyph glyph-name="egrave.ss02" horiz-adv-x="1052" 
d="M707 1124q-4 -29 -33 -47l-332 223q25 70 74 95zM883 193q45 -25 61 -80q-156 -137 -364.5 -137.5t-343 136t-134.5 371.5q0 225 134.5 365.5t328.5 140.5q170 0 281.5 -109.5t120.5 -271.5l-740 -223q27 -141 121 -222t234 -81q168 0 301 111zM563 885
q-156 0 -250 -109.5t-94 -286.5v-6l615 185q-6 74 -77 145.5t-194 71.5z" />
    <glyph glyph-name="emacron.ss02" horiz-adv-x="1052" 
d="M801 1165h-518q-6 16 -7 47q0 25 7 48h518q8 -23 8 -47.5t-8 -47.5zM883 193q45 -25 61 -80q-156 -137 -364.5 -137.5t-343 136t-134.5 371.5q0 225 134.5 365.5t328.5 140.5q170 0 281.5 -109.5t120.5 -271.5l-740 -223q27 -141 121 -222t234 -81q168 0 301 111z
M563 885q-156 0 -250 -109.5t-94 -286.5v-6l615 185q-6 74 -77 145.5t-194 71.5z" />
    <glyph glyph-name="eogonek.ss02" horiz-adv-x="1052" 
d="M856 49q-76 -57 -127 -124.5t-51 -123.5q0 -39 22.5 -58t55.5 -19q53 0 94 36q45 -20 45 -69q-70 -66 -170 -66q-70 0 -114 39t-44 107q0 106 111 213q-61 -8 -98 -9q-209 0 -343.5 136.5t-134.5 371.5q0 225 134.5 365.5t328.5 140.5q170 0 281.5 -109.5t120.5 -271.5
l-740 -223q27 -141 121 -222t234 -81q168 0 301 111q45 -25 61 -80q-47 -39 -88 -64zM563 885q-156 0 -250 -109.5t-94 -286.5v-6l615 185q-6 74 -77 145.5t-194 71.5z" />
    <glyph glyph-name="g.ss02" horiz-adv-x="1024" 
d="M985 1022q-66 -127 -205 -141q94 -102 90 -258q-4 -141 -110.5 -234.5t-270.5 -93.5q-94 0 -170 29q-59 -51 -59 -115q0 -82 123 -82h244q287 0 286 -236q0 -139 -113.5 -218t-318.5 -79q-256 0 -391 117q20 61 70 84q121 -98 321 -98q326 0 326 184q0 141 -193 142h-227
q-236 0 -235 170q0 92 90 172q-123 90 -123 264q0 154 109.5 251t277.5 97h174q90 0 140 22.5t81 81.5q57 -16 84 -59zM758 625q4 143 -96 254h-158q-125 0 -199 -67t-74 -183q0 -113 69 -175.5t189 -62.5q119 0 192 61.5t77 172.5z" />
    <glyph glyph-name="gbreve.ss02" horiz-adv-x="1024" 
d="M497.5 1096q-116.5 0 -187 70.5t-79.5 185.5q39 16 84 10q27 -176 185 -176q76 0 125 46t57 130q49 4 82 -10q-4 -111 -77 -183.5t-189.5 -72.5zM985 1022q-66 -127 -205 -141q94 -102 90 -258q-4 -141 -110.5 -234.5t-270.5 -93.5q-94 0 -170 29q-59 -51 -59 -115
q0 -82 123 -82h244q287 0 286 -236q0 -139 -113.5 -218t-318.5 -79q-256 0 -391 117q20 61 70 84q121 -98 321 -98q326 0 326 184q0 141 -193 142h-227q-236 0 -235 170q0 92 90 172q-123 90 -123 264q0 154 109.5 251t277.5 97h174q90 0 140 22.5t81 81.5q57 -16 84 -59z
M758 625q4 143 -96 254h-158q-125 0 -199 -67t-74 -183q0 -113 69 -175.5t189 -62.5q119 0 192 61.5t77 172.5z" />
    <glyph glyph-name="uni0123.ss02" horiz-adv-x="1024" 
d="M492 1040q-35 0 -54 9q-10 37 -10 90q0 160 131 250q27 -6 37 -39q-63 -63 -64 -183q0 -59 21 -116q-20 -11 -61 -11zM985 1022q-66 -127 -205 -141q94 -102 90 -258q-4 -141 -110.5 -234.5t-270.5 -93.5q-94 0 -170 29q-59 -51 -59 -115q0 -82 123 -82h244
q287 0 286 -236q0 -139 -113.5 -218t-318.5 -79q-256 0 -391 117q20 61 70 84q121 -98 321 -98q326 0 326 184q0 141 -193 142h-227q-236 0 -235 170q0 92 90 172q-123 90 -123 264q0 154 109.5 251t277.5 97h174q90 0 140 22.5t81 81.5q57 -16 84 -59zM758 625
q4 143 -96 254h-158q-125 0 -199 -67t-74 -183q0 -113 69 -175.5t189 -62.5q119 0 192 61.5t77 172.5z" />
    <glyph glyph-name="gdotaccent.ss02" horiz-adv-x="1024" 
d="M500 1157q-37 0 -64.5 26.5t-27.5 63.5t26.5 63.5t65.5 26.5q37 0 62.5 -26.5t25.5 -63.5q0 -39 -25.5 -64.5t-62.5 -25.5zM985 1022q-66 -127 -205 -141q94 -102 90 -258q-4 -141 -110.5 -234.5t-270.5 -93.5q-94 0 -170 29q-59 -51 -59 -115q0 -82 123 -82h244
q287 0 286 -236q0 -139 -113.5 -218t-318.5 -79q-256 0 -391 117q20 61 70 84q121 -98 321 -98q326 0 326 184q0 141 -193 142h-227q-236 0 -235 170q0 92 90 172q-123 90 -123 264q0 154 109.5 251t277.5 97h174q90 0 140 22.5t81 81.5q57 -16 84 -59zM758 625
q4 143 -96 254h-158q-125 0 -199 -67t-74 -183q0 -113 69 -175.5t189 -62.5q119 0 192 61.5t77 172.5z" />
    <glyph glyph-name="w.aalt" horiz-adv-x="1503" 
d="M1362 967q37 0 61 -11q-39 -256 -128 -514t-197 -444q-20 -6 -51 -6t-56 6q-74 141 -141.5 343t-99.5 402q-76 -416 -246 -745q-25 -6 -55.5 -6t-51.5 6q-106 184 -192 442t-127 516q25 10 65 11q20 0 45 -4q41 -236 116 -474.5t140 -363.5q6 -14 9 -29h2q4 16 8 29
q63 139 129.5 369.5t99.5 447.5q29 4 56 4q33 0 61 -4q31 -236 95.5 -454t135.5 -363q10 -23 11 -29h2q4 18 10 29q68 121 141.5 359.5t112.5 478.5q25 4 45 4z" />
    <glyph glyph-name="wacute.aalt" horiz-adv-x="1503" 
d="M604 1077q-27 16 -35 47l293 271q49 -27 74 -95zM1362 967q37 0 61 -11q-39 -256 -128 -514t-197 -444q-20 -6 -51 -6t-56 6q-74 141 -141.5 343t-99.5 402q-76 -416 -246 -745q-25 -6 -55.5 -6t-51.5 6q-106 184 -192 442t-127 516q25 10 65 11q20 0 45 -4
q41 -236 116 -474.5t140 -363.5q6 -14 9 -29h2q4 16 8 29q63 139 129.5 369.5t99.5 447.5q29 4 56 4q33 0 61 -4q31 -236 95.5 -454t135.5 -363q10 -23 11 -29h2q4 18 10 29q68 121 141.5 359.5t112.5 478.5q25 4 45 4z" />
    <glyph glyph-name="wcircumflex.aalt" horiz-adv-x="1503" 
d="M543 1087q-41 16 -56 60l224 231q41 10 82 0l221 -231q-18 -47 -60 -64l-206 193zM1362 967q37 0 61 -11q-39 -256 -128 -514t-197 -444q-20 -6 -51 -6t-56 6q-74 141 -141.5 343t-99.5 402q-76 -416 -246 -745q-25 -6 -55.5 -6t-51.5 6q-106 184 -192 442t-127 516
q25 10 65 11q20 0 45 -4q41 -236 116 -474.5t140 -363.5q6 -14 9 -29h2q4 16 8 29q63 139 129.5 369.5t99.5 447.5q29 4 56 4q33 0 61 -4q31 -236 95.5 -454t135.5 -363q10 -23 11 -29h2q4 18 10 29q68 121 141.5 359.5t112.5 478.5q25 4 45 4z" />
    <glyph glyph-name="wdieresis.aalt" horiz-adv-x="1503" 
d="M549 1149q-37 0 -61.5 23.5t-24.5 60.5q0 35 24.5 59.5t61.5 24.5q35 0 59.5 -24.5t24.5 -59.5q0 -37 -24.5 -60.5t-59.5 -23.5zM958 1149q-37 0 -61.5 23.5t-24.5 60.5q0 35 25 59.5t61 24.5q35 0 59.5 -24.5t24.5 -59.5q0 -37 -24.5 -60.5t-59.5 -23.5zM1362 967
q37 0 61 -11q-39 -256 -128 -514t-197 -444q-20 -6 -51 -6t-56 6q-74 141 -141.5 343t-99.5 402q-76 -416 -246 -745q-25 -6 -55.5 -6t-51.5 6q-106 184 -192 442t-127 516q25 10 65 11q20 0 45 -4q41 -236 116 -474.5t140 -363.5q6 -14 9 -29h2q4 16 8 29
q63 139 129.5 369.5t99.5 447.5q29 4 56 4q33 0 61 -4q31 -236 95.5 -454t135.5 -363q10 -23 11 -29h2q4 18 10 29q68 121 141.5 359.5t112.5 478.5q25 4 45 4z" />
    <glyph glyph-name="wgrave.aalt" horiz-adv-x="1503" 
d="M915 1124q-4 -29 -32 -47l-332 223q25 70 74 95zM1362 967q37 0 61 -11q-39 -256 -128 -514t-197 -444q-20 -6 -51 -6t-56 6q-74 141 -141.5 343t-99.5 402q-76 -416 -246 -745q-25 -6 -55.5 -6t-51.5 6q-106 184 -192 442t-127 516q25 10 65 11q20 0 45 -4
q41 -236 116 -474.5t140 -363.5q6 -14 9 -29h2q4 16 8 29q63 139 129.5 369.5t99.5 447.5q29 4 56 4q33 0 61 -4q31 -236 95.5 -454t135.5 -363q10 -23 11 -29h2q4 18 10 29q68 121 141.5 359.5t112.5 478.5q25 4 45 4z" />
    <glyph glyph-name="y.ss02" horiz-adv-x="1132" 
d="M907 967q31 0 58 -6v-945q0 -184 -118 -297.5t-310 -113.5q-252 0 -383 145q18 57 73 78q117 -121 310 -121q152 0 233.5 84t81.5 225v84q-147 -72 -307 -71q-193 0 -291 101t-98 273v558q29 6 55 6q31 0 57 -6v-517q0 -150 67.5 -229.5t235.5 -79.5q158 0 281 78v748
q28 6 55 6z" />
    <glyph glyph-name="yacute.ss02" horiz-adv-x="1132" 
d="M416 1077q-27 16 -35 47l293 271q49 -27 74 -95zM907 967q31 0 58 -6v-945q0 -184 -118 -297.5t-310 -113.5q-252 0 -383 145q18 57 73 78q117 -121 310 -121q152 0 233.5 84t81.5 225v84q-147 -72 -307 -71q-193 0 -291 101t-98 273v558q29 6 55 6q31 0 57 -6v-517
q0 -150 67.5 -229.5t235.5 -79.5q158 0 281 78v748q28 6 55 6z" />
    <glyph glyph-name="ycircumflex.ss02" horiz-adv-x="1132" 
d="M356 1087q-41 16 -55 60l223 231q41 10 82 0l221 -231q-18 -47 -59 -64l-207 193zM907 967q31 0 58 -6v-945q0 -184 -118 -297.5t-310 -113.5q-252 0 -383 145q18 57 73 78q117 -121 310 -121q152 0 233.5 84t81.5 225v84q-147 -72 -307 -71q-193 0 -291 101t-98 273v558
q29 6 55 6q31 0 57 -6v-517q0 -150 67.5 -229.5t235.5 -79.5q158 0 281 78v748q28 6 55 6z" />
    <glyph glyph-name="ydieresis.ss02" horiz-adv-x="1132" 
d="M360 1149q-37 0 -61.5 23.5t-24.5 60.5q0 35 25 59.5t61 24.5q35 0 59.5 -24.5t24.5 -59.5q0 -37 -24.5 -60.5t-59.5 -23.5zM770 1149q-37 0 -61.5 23.5t-24.5 60.5q0 35 24.5 59.5t61.5 24.5q35 0 59.5 -24.5t24.5 -59.5q0 -37 -24.5 -60.5t-59.5 -23.5zM907 967
q31 0 58 -6v-945q0 -184 -118 -297.5t-310 -113.5q-252 0 -383 145q18 57 73 78q117 -121 310 -121q152 0 233.5 84t81.5 225v84q-147 -72 -307 -71q-193 0 -291 101t-98 273v558q29 6 55 6q31 0 57 -6v-517q0 -150 67.5 -229.5t235.5 -79.5q158 0 281 78v748q28 6 55 6z
" />
    <glyph glyph-name="ygrave.ss02" horiz-adv-x="1132" 
d="M727 1124q-4 -29 -33 -47l-332 223q25 70 74 95zM907 967q31 0 58 -6v-945q0 -184 -118 -297.5t-310 -113.5q-252 0 -383 145q18 57 73 78q117 -121 310 -121q152 0 233.5 84t81.5 225v84q-147 -72 -307 -71q-193 0 -291 101t-98 273v558q29 6 55 6q31 0 57 -6v-517
q0 -150 67.5 -229.5t235.5 -79.5q158 0 281 78v748q28 6 55 6z" />
    <glyph glyph-name="uni1EF9.ss02" horiz-adv-x="1132" 
d="M436 1235q-84 0 -112 -92q-57 0 -88 31q49 158 192 157q57 0 146.5 -43t123.5 -43q82 0 113 90q53 0 84 -30q-20 -74 -71.5 -115t-116.5 -41q-57 0 -146.5 43t-124.5 43zM907 967q31 0 58 -6v-945q0 -184 -118 -297.5t-310 -113.5q-252 0 -383 145q18 57 73 78
q117 -121 310 -121q152 0 233.5 84t81.5 225v84q-147 -72 -307 -71q-193 0 -291 101t-98 273v558q29 6 55 6q31 0 57 -6v-517q0 -150 67.5 -229.5t235.5 -79.5q158 0 281 78v748q28 6 55 6z" />
    <glyph glyph-name="a.ss03" horiz-adv-x="1021" 
d="M483 989q174 0 285 -86t111 -276v-564q-164 -88 -394 -88q-195 0 -297 78t-102 226q0 129 94 200.5t258 71.5h328v72q0 131 -76 194.5t-211 63.5q-162 0 -291 -99q-43 29 -57 80q49 47 141 87t211 40zM205 283q0 -203 280 -203q162 0 281 53v320h-328q-233 0 -233 -170z
" />
    <glyph glyph-name="aacute.ss03" horiz-adv-x="1021" 
d="M344 1077q-27 16 -35 47l293 271q49 -27 74 -95zM483 989q174 0 285 -86t111 -276v-564q-164 -88 -394 -88q-195 0 -297 78t-102 226q0 129 94 200.5t258 71.5h328v72q0 131 -76 194.5t-211 63.5q-162 0 -291 -99q-43 29 -57 80q49 47 141 87t211 40zM205 283
q0 -203 280 -203q162 0 281 53v320h-328q-233 0 -233 -170z" />
    <glyph glyph-name="abreve.ss03" horiz-adv-x="1021" 
d="M491.5 1096q-116.5 0 -187.5 70.5t-79 185.5q39 16 84 10q27 -176 185 -176q76 0 125 46t57 130q49 4 82 -10q-4 -111 -77 -183.5t-189.5 -72.5zM483 989q174 0 285 -86t111 -276v-564q-164 -88 -394 -88q-195 0 -297 78t-102 226q0 129 94 200.5t258 71.5h328v72
q0 131 -76 194.5t-211 63.5q-162 0 -291 -99q-43 29 -57 80q49 47 141 87t211 40zM205 283q0 -203 280 -203q162 0 281 53v320h-328q-233 0 -233 -170z" />
    <glyph glyph-name="acircumflex.ss03" horiz-adv-x="1021" 
d="M283 1087q-41 16 -56 60l224 231q41 10 81 0l222 -231q-18 -47 -60 -64l-207 193zM483 989q174 0 285 -86t111 -276v-564q-164 -88 -394 -88q-195 0 -297 78t-102 226q0 129 94 200.5t258 71.5h328v72q0 131 -76 194.5t-211 63.5q-162 0 -291 -99q-43 29 -57 80
q49 47 141 87t211 40zM205 283q0 -203 280 -203q162 0 281 53v320h-328q-233 0 -233 -170z" />
    <glyph glyph-name="adieresis.ss03" horiz-adv-x="1021" 
d="M289 1149q-37 0 -61.5 23.5t-24.5 60.5q0 35 24.5 59.5t61.5 24.5q35 0 59.5 -24.5t24.5 -59.5q0 -37 -24.5 -60.5t-59.5 -23.5zM698 1149q-37 0 -61.5 23.5t-24.5 60.5q0 35 25 59.5t61 24.5q35 0 59.5 -24.5t24.5 -59.5q0 -37 -24.5 -60.5t-59.5 -23.5zM483 989
q174 0 285 -86t111 -276v-564q-164 -88 -394 -88q-195 0 -297 78t-102 226q0 129 94 200.5t258 71.5h328v72q0 131 -76 194.5t-211 63.5q-162 0 -291 -99q-43 29 -57 80q49 47 141 87t211 40zM205 283q0 -203 280 -203q162 0 281 53v320h-328q-233 0 -233 -170z" />
    <glyph glyph-name="agrave.ss03" horiz-adv-x="1021" 
d="M655 1124q-4 -29 -32 -47l-332 223q25 70 74 95zM483 989q174 0 285 -86t111 -276v-564q-164 -88 -394 -88q-195 0 -297 78t-102 226q0 129 94 200.5t258 71.5h328v72q0 131 -76 194.5t-211 63.5q-162 0 -291 -99q-43 29 -57 80q49 47 141 87t211 40zM205 283
q0 -203 280 -203q162 0 281 53v320h-328q-233 0 -233 -170z" />
    <glyph glyph-name="amacron.ss03" horiz-adv-x="1021" 
d="M752 1165h-519q-6 16 -6 47q0 25 6 48h519q8 -23 8 -47.5t-8 -47.5zM483 989q174 0 285 -86t111 -276v-564q-164 -88 -394 -88q-195 0 -297 78t-102 226q0 129 94 200.5t258 71.5h328v72q0 131 -76 194.5t-211 63.5q-162 0 -291 -99q-43 29 -57 80q49 47 141 87t211 40z
M205 283q0 -203 280 -203q162 0 281 53v320h-328q-233 0 -233 -170z" />
    <glyph glyph-name="aogonek.ss03" horiz-adv-x="1021" 
d="M852 -240q45 -20 45 -69q-70 -66 -170 -66q-70 0 -114 39t-44 107q0 113 127 229q-104 -25 -211 -25q-195 0 -297 78t-102 226q0 129 94 200.5t258 71.5h328v72q0 131 -76 194.5t-211 63.5q-162 0 -291 -99q-43 29 -57 80q49 47 141.5 87t210.5 40q174 0 285 -86
t111 -276v-564l-9 -4q-80 -59 -135 -129.5t-55 -128.5q0 -39 22.5 -58t55.5 -19q53 -1 94 36zM205 283q0 -203 280 -203q162 0 281 53v320h-328q-233 0 -233 -170z" />
    <glyph glyph-name="aring.ss03" horiz-adv-x="1021" 
d="M494 1044q-78 0 -133.5 55.5t-55.5 133.5t55.5 133t133 55t132 -55t54.5 -133t-55 -133.5t-131 -55.5zM494 1343q-45 0 -76 -32.5t-31 -77.5q0 -43 31 -76t76 -33q47 0 76.5 32t29.5 77t-29.5 77.5t-76.5 32.5zM483 989q174 0 285 -86t111 -276v-564q-164 -88 -394 -88
q-195 0 -297 78t-102 226q0 129 94 200.5t258 71.5h328v72q0 131 -76 194.5t-211 63.5q-162 0 -291 -99q-43 29 -57 80q49 47 141 87t211 40zM205 283q0 -203 280 -203q162 0 281 53v320h-328q-233 0 -233 -170z" />
    <glyph glyph-name="atilde.ss03" horiz-adv-x="1021" 
d="M362 1235q-84 0 -112 -92q-57 0 -88 31q49 158 192 157q57 0 146.5 -43t124.5 -43q82 0 112 90q53 0 84 -30q-20 -74 -71.5 -115t-116.5 -41q-57 0 -146.5 43t-124.5 43zM483 989q174 0 285 -86t111 -276v-564q-164 -88 -394 -88q-195 0 -297 78t-102 226q0 129 94 200.5
t258 71.5h328v72q0 131 -76 194.5t-211 63.5q-162 0 -291 -99q-43 29 -57 80q49 47 141 87t211 40zM205 283q0 -203 280 -203q162 0 281 53v320h-328q-233 0 -233 -170z" />
    <glyph glyph-name="e.ss03" horiz-adv-x="1040" 
d="M870 186q51 -25 62 -77q-158 -133 -367 -134q-207 0 -335 130.5t-128 369.5q0 227 140.5 370.5t343.5 143.5q160 0 256 -82t96 -205q0 -125 -81 -191.5t-234 -66.5h-404q8 -164 102.5 -264t243.5 -100q80 0 144.5 19.5t93 37.5t67.5 49zM586 887q-152 0 -252.5 -98.5
t-112.5 -247.5h410q90 0 140 42t50 119q0 80 -64.5 132.5t-170.5 52.5z" />
    <glyph glyph-name="eacute.ss03" horiz-adv-x="1040" 
d="M428 1077q-27 16 -35 47l293 271q49 -27 74 -95zM870 186q51 -25 62 -77q-158 -133 -367 -134q-207 0 -335 130.5t-128 369.5q0 227 140.5 370.5t343.5 143.5q160 0 256 -82t96 -205q0 -125 -81 -191.5t-234 -66.5h-404q8 -164 102.5 -264t243.5 -100q80 0 144.5 19.5
t93 37.5t67.5 49zM586 887q-152 0 -252.5 -98.5t-112.5 -247.5h410q90 0 140 42t50 119q0 80 -64.5 132.5t-170.5 52.5z" />
    <glyph glyph-name="ecaron.ss03" horiz-adv-x="1040" 
d="M614 1094q-41 -10 -82 0l-217 229q14 49 56 66l207 -195l206 190q43 -18 58 -61zM870 186q51 -25 62 -77q-158 -133 -367 -134q-207 0 -335 130.5t-128 369.5q0 227 140.5 370.5t343.5 143.5q160 0 256 -82t96 -205q0 -125 -81 -191.5t-234 -66.5h-404q8 -164 102.5 -264
t243.5 -100q80 0 144.5 19.5t93 37.5t67.5 49zM586 887q-152 0 -252.5 -98.5t-112.5 -247.5h410q90 0 140 42t50 119q0 80 -64.5 132.5t-170.5 52.5z" />
    <glyph glyph-name="ecircumflex.ss03" horiz-adv-x="1040" 
d="M367 1087q-41 16 -56 60l224 231q41 10 81 0l222 -231q-18 -47 -60 -64l-207 193zM870 186q51 -25 62 -77q-158 -133 -367 -134q-207 0 -335 130.5t-128 369.5q0 227 140.5 370.5t343.5 143.5q160 0 256 -82t96 -205q0 -125 -81 -191.5t-234 -66.5h-404
q8 -164 102.5 -264t243.5 -100q80 0 144.5 19.5t93 37.5t67.5 49zM586 887q-152 0 -252.5 -98.5t-112.5 -247.5h410q90 0 140 42t50 119q0 80 -64.5 132.5t-170.5 52.5z" />
    <glyph glyph-name="edieresis.ss03" horiz-adv-x="1040" 
d="M371 1149q-37 0 -61.5 23.5t-24.5 60.5q0 35 24.5 59.5t61.5 24.5q35 0 59.5 -24.5t24.5 -59.5q0 -37 -24.5 -60.5t-59.5 -23.5zM780 1149q-37 0 -61.5 23.5t-24.5 60.5q0 35 24.5 59.5t61.5 24.5q35 0 59.5 -24.5t24.5 -59.5q0 -37 -24.5 -60.5t-59.5 -23.5zM870 186
q51 -25 62 -77q-158 -133 -367 -134q-207 0 -335 130.5t-128 369.5q0 227 140.5 370.5t343.5 143.5q160 0 256 -82t96 -205q0 -125 -81 -191.5t-234 -66.5h-404q8 -164 102.5 -264t243.5 -100q80 0 144.5 19.5t93 37.5t67.5 49zM586 887q-152 0 -252.5 -98.5t-112.5 -247.5
h410q90 0 140 42t50 119q0 80 -64.5 132.5t-170.5 52.5z" />
    <glyph glyph-name="edotaccent.ss03" horiz-adv-x="1040" 
d="M575.5 1157q-36.5 0 -64.5 26.5t-28 63.5t27 63.5t65 26.5q37 0 63 -26.5t26 -63.5q0 -39 -26 -64.5t-62.5 -25.5zM870 186q51 -25 62 -77q-158 -133 -367 -134q-207 0 -335 130.5t-128 369.5q0 227 140.5 370.5t343.5 143.5q160 0 256 -82t96 -205q0 -125 -81 -191.5
t-234 -66.5h-404q8 -164 102.5 -264t243.5 -100q80 0 144.5 19.5t93 37.5t67.5 49zM586 887q-152 0 -252.5 -98.5t-112.5 -247.5h410q90 0 140 42t50 119q0 80 -64.5 132.5t-170.5 52.5z" />
    <glyph glyph-name="egrave.ss03" horiz-adv-x="1040" 
d="M739 1124q-4 -29 -32 -47l-332 223q25 70 74 95zM870 186q51 -25 62 -77q-158 -133 -367 -134q-207 0 -335 130.5t-128 369.5q0 227 140.5 370.5t343.5 143.5q160 0 256 -82t96 -205q0 -125 -81 -191.5t-234 -66.5h-404q8 -164 102.5 -264t243.5 -100q80 0 144.5 19.5
t93 37.5t67.5 49zM586 887q-152 0 -252.5 -98.5t-112.5 -247.5h410q90 0 140 42t50 119q0 80 -64.5 132.5t-170.5 52.5z" />
    <glyph glyph-name="emacron.ss03" horiz-adv-x="1040" 
d="M834 1165h-519q-6 16 -6 47q0 25 6 48h519q8 -23 8 -47.5t-8 -47.5zM870 186q51 -25 62 -77q-158 -133 -367 -134q-207 0 -335 130.5t-128 369.5q0 227 140.5 370.5t343.5 143.5q160 0 256 -82t96 -205q0 -125 -81 -191.5t-234 -66.5h-404q8 -164 102.5 -264t243.5 -100
q80 0 144.5 19.5t93 37.5t67.5 49zM586 887q-152 0 -252.5 -98.5t-112.5 -247.5h410q90 0 140 42t50 119q0 80 -64.5 132.5t-170.5 52.5z" />
    <glyph glyph-name="eogonek.ss03" horiz-adv-x="1040" 
d="M872 63q-82 -59 -139 -131.5t-57 -130.5q0 -39 22.5 -58t55.5 -19q53 0 94 36q45 -20 45 -69q-70 -66 -170 -66q-70 0 -114 39t-44 107q0 106 113 215q-57 -10 -113 -11q-207 0 -335 130.5t-128 369.5q0 227 140.5 370.5t343.5 143.5q160 0 256 -82t96 -205
q0 -125 -81 -191.5t-234 -66.5h-404q8 -164 102.5 -264t243.5 -100q80 0 144.5 19.5t93 38t67.5 48.5q51 -25 62 -77q-46 -36 -60 -46zM586 887q-152 0 -252.5 -98.5t-112.5 -247.5h410q90 0 140 42t50 119q0 80 -64.5 132.5t-170.5 52.5z" />
    <glyph glyph-name="g.ss03" horiz-adv-x="1071" 
d="M1018 1024q-68 -133 -225 -150q102 -113 102 -288q0 -145 -92 -258q143 -123 143 -310q0 -182 -130 -298.5t-324 -116.5q-256 0 -396 184q31 53 84 74q115 -152 312 -152q154 0 244.5 87t92.5 222q2 143 -114 234q-100 -61 -226 -62q-186 0 -292.5 112t-106.5 284
t124 283.5t304 111.5h168q104 0 155.5 20.5t84.5 85.5q59 -14 92 -63zM205 590q-2 -135 74.5 -215t214.5 -80q127 0 205.5 82t80.5 211q0 143 -108 284h-158q-135 0 -220 -74.5t-89 -207.5z" />
    <glyph glyph-name="gbreve.ss03" horiz-adv-x="1071" 
d="M504 1096q-117 0 -187.5 70.5t-78.5 185.5q39 16 84 10q27 -176 184 -176q76 0 125 46t57 130q49 4 82 -10q-4 -111 -76.5 -183.5t-189.5 -72.5zM1018 1024q-68 -133 -225 -150q102 -113 102 -288q0 -145 -92 -258q143 -123 143 -310q0 -182 -130 -298.5t-324 -116.5
q-256 0 -396 184q31 53 84 74q115 -152 312 -152q154 0 244.5 87t92.5 222q2 143 -114 234q-100 -61 -226 -62q-186 0 -292.5 112t-106.5 284t124 283.5t304 111.5h168q104 0 155.5 20.5t84.5 85.5q59 -14 92 -63zM205 590q-2 -135 74.5 -215t214.5 -80q127 0 205.5 82
t80.5 211q0 143 -108 284h-158q-135 0 -220 -74.5t-89 -207.5z" />
    <glyph glyph-name="uni0123.ss03" horiz-adv-x="1071" 
d="M496 1040q-35 0 -54 9q-10 37 -10 90q0 160 131 250q27 -6 37 -39q-63 -63 -63 -183q0 -59 20 -116q-20 -11 -61 -11zM1018 1024q-68 -133 -225 -150q102 -113 102 -288q0 -145 -92 -258q143 -123 143 -310q0 -182 -130 -298.5t-324 -116.5q-256 0 -396 184q31 53 84 74
q115 -152 312 -152q154 0 244.5 87t92.5 222q2 143 -114 234q-100 -61 -226 -62q-186 0 -292.5 112t-106.5 284t124 283.5t304 111.5h168q104 0 155.5 20.5t84.5 85.5q59 -14 92 -63zM205 590q-2 -135 74.5 -215t214.5 -80q127 0 205.5 82t80.5 211q0 143 -108 284h-158
q-135 0 -220 -74.5t-89 -207.5z" />
    <glyph glyph-name="gdotaccent.ss03" horiz-adv-x="1071" 
d="M506 1157q-37 0 -64.5 26.5t-27.5 63.5t26.5 63.5t65.5 26.5q37 0 62.5 -26.5t25.5 -63.5q0 -39 -25.5 -64.5t-62.5 -25.5zM1018 1024q-68 -133 -225 -150q102 -113 102 -288q0 -145 -92 -258q143 -123 143 -310q0 -182 -130 -298.5t-324 -116.5q-256 0 -396 184
q31 53 84 74q115 -152 312 -152q154 0 244.5 87t92.5 222q2 143 -114 234q-100 -61 -226 -62q-186 0 -292.5 112t-106.5 284t124 283.5t304 111.5h168q104 0 155.5 20.5t84.5 85.5q59 -14 92 -63zM205 590q-2 -135 74.5 -215t214.5 -80q127 0 205.5 82t80.5 211
q0 143 -108 284h-158q-135 0 -220 -74.5t-89 -207.5z" />
    <glyph glyph-name="g.ss04" horiz-adv-x="1042" 
d="M1008 1018q-63 -129 -209 -152q80 -104 80 -250q0 -152 -104.5 -251t-272.5 -99h-119q-59 0 -93 -35.5t-34 -83.5q0 -53 34 -84.5t95 -31.5h504q8 -25 8 -56q0 -33 -8 -57h-496q-129 0 -194.5 58.5t-65.5 158.5q0 66 36 118t97 81q-139 98 -139 282q0 164 110.5 264.5
t286.5 96.5l162 -2q94 -2 147.5 20.5t86.5 83.5q59 -16 88 -61zM760 614q4 135 -86 250l-154 2q-131 2 -203.5 -62.5t-72.5 -189.5q0 -115 66.5 -178t191.5 -63q121 0 188.5 64t69.5 177z" />
    <glyph glyph-name="gbreve.ss04" horiz-adv-x="1042" 
d="M512 1096q-117 0 -187.5 70.5t-78.5 185.5q39 16 84 10q27 -176 184 -176q76 0 125 46t57 130q49 4 82 -10q-4 -111 -76.5 -183.5t-189.5 -72.5zM1008 1018q-63 -129 -209 -152q80 -104 80 -250q0 -152 -104.5 -251t-272.5 -99h-119q-59 0 -93 -35.5t-34 -83.5
q0 -53 34 -84.5t95 -31.5h504q8 -25 8 -56q0 -33 -8 -57h-496q-129 0 -194.5 58.5t-65.5 158.5q0 66 36 118t97 81q-139 98 -139 282q0 164 110.5 264.5t286.5 96.5l162 -2q94 -2 147.5 20.5t86.5 83.5q59 -16 88 -61zM760 614q4 135 -86 250l-154 2q-131 2 -203.5 -62.5
t-72.5 -189.5q0 -115 66.5 -178t191.5 -63q121 0 188.5 64t69.5 177z" />
    <glyph glyph-name="uni0123.ss04" horiz-adv-x="1042" 
d="M504 1040q-35 0 -53 9q-10 37 -11 90q0 160 131 250q27 -6 37 -39q-63 -63 -63 -183q0 -59 20 -116q-20 -11 -61 -11zM1008 1018q-63 -129 -209 -152q80 -104 80 -250q0 -152 -104.5 -251t-272.5 -99h-119q-59 0 -93 -35.5t-34 -83.5q0 -53 34 -84.5t95 -31.5h504
q8 -25 8 -56q0 -33 -8 -57h-496q-129 0 -194.5 58.5t-65.5 158.5q0 66 36 118t97 81q-139 98 -139 282q0 164 110.5 264.5t286.5 96.5l162 -2q94 -2 147.5 20.5t86.5 83.5q59 -16 88 -61zM760 614q4 135 -86 250l-154 2q-131 2 -203.5 -62.5t-72.5 -189.5q0 -115 66.5 -178
t191.5 -63q121 0 188.5 64t69.5 177z" />
    <glyph glyph-name="gdotaccent.ss04" horiz-adv-x="1042" 
d="M514 1157q-37 0 -64.5 26.5t-27.5 63.5t26.5 63.5t65.5 26.5q37 0 62.5 -26.5t25.5 -63.5q0 -39 -25.5 -64.5t-62.5 -25.5zM1008 1018q-63 -129 -209 -152q80 -104 80 -250q0 -152 -104.5 -251t-272.5 -99h-119q-59 0 -93 -35.5t-34 -83.5q0 -53 34 -84.5t95 -31.5h504
q8 -25 8 -56q0 -33 -8 -57h-496q-129 0 -194.5 58.5t-65.5 158.5q0 66 36 118t97 81q-139 98 -139 282q0 164 110.5 264.5t286.5 96.5l162 -2q94 -2 147.5 20.5t86.5 83.5q59 -16 88 -61zM760 614q4 135 -86 250l-154 2q-131 2 -203.5 -62.5t-72.5 -189.5q0 -115 66.5 -178
t191.5 -63q121 0 188.5 64t69.5 177z" />
    <glyph glyph-name="zero.oldstyle" horiz-adv-x="1236" 
d="M618.5 -27q-237.5 0 -369.5 158t-132 416t131 415.5t370.5 157.5t370.5 -157.5t131 -415.5t-132 -416t-369.5 -158zM618.5 80q190.5 0 285.5 126t95 341t-95 341t-285.5 126t-285.5 -126t-95 -341t95 -341t285.5 -126z" />
    <glyph glyph-name="one.oldstyle" horiz-adv-x="641" 
d="M409.5 1110q24.5 0 39.5 -6v-1104q-27 -6 -58 -6q-27 0 -55 6v961l-238 -123q-39 35 -49 98l322 168q14 6 38.5 6z" />
    <glyph glyph-name="two.oldstyle" horiz-adv-x="1001" 
d="M913 109q8 -25 9 -54q0 -31 -9 -55h-794q-6 18 -6 43q0 70 53 111q342 260 452.5 380.5t110.5 247.5q0 104 -71.5 169t-194.5 65q-176 0 -301 -133q-47 14 -70 67q57 70 158.5 121t212.5 51q168 0 275.5 -89t107.5 -251q0 -70 -27.5 -137t-65.5 -120.5t-120 -128
t-143.5 -123t-184.5 -142.5l-37 -25l39 3h606z" />
    <glyph glyph-name="three.oldstyle" horiz-adv-x="985" 
d="M625 535q109 -29 180.5 -108t71.5 -220q0 -158 -119 -262.5t-305 -104.5q-227 0 -369 127q12 53 61 80q137 -111 308 -110q141 0 226 72.5t85 197.5q0 127 -93 197.5t-284 70.5q-8 25 -8 47q0 27 8 45q158 0 232.5 67.5t74.5 174.5q0 92 -64.5 150.5t-168.5 58.5
q-176 0 -287 -119q-55 18 -68 64q127 158 355 157q150 0 248 -79.5t98 -221.5q0 -98 -51 -170.5t-131 -113.5z" />
    <glyph glyph-name="four.oldstyle" horiz-adv-x="1069" 
d="M989 176q0 -29 -6 -55h-162v-283q-27 -6 -55.5 -6t-54.5 6v283h-635q-14 33 -15 55q0 41 27 80l629 834q20 6 51 6t53 -6v-865h162q6 -20 6 -49zM690 881l-491 -656h512v654l2 34z" />
    <glyph glyph-name="five.oldstyle" horiz-adv-x="1001" 
d="M457 -162q-217 0 -346 119q16 57 65 86q37 -39 113 -71.5t168 -32.5q147 0 234 77.5t87 219.5q0 154 -103.5 221t-346.5 67h-172v566h678q6 -29 6 -58q0 -18 -4 -51h-568v-348h60q301 0 434 -93.5t133 -297.5q0 -188 -120.5 -296t-317.5 -108z" />
    <glyph glyph-name="six.oldstyle" horiz-adv-x="1044" 
d="M565 764q170 0 278.5 -100.5t108.5 -286.5q0 -182 -116.5 -294t-300.5 -112q-195 0 -310.5 130t-115.5 360q0 340 215 568t526 308q41 -23 41 -94q-109 -29 -205 -75t-191.5 -117.5t-163 -181t-93.5 -242.5q132 137 327 137zM539 72q137 0 221 79.5t84 225.5
q0 147 -86 217t-205 70q-190 0 -330 -150q-2 -20 -2 -59q0 -178 89.5 -280.5t228.5 -102.5z" />
    <glyph glyph-name="seven.oldstyle" horiz-adv-x="964" 
d="M899 1090q4 -16 4 -39q0 -68 -39 -138l-581 -1097q-63 14 -97 55l594 1106h-698q-8 41 -8 57q0 18 8 56h817z" />
    <glyph glyph-name="eight.oldstyle" horiz-adv-x="1026" 
d="M629 686q135 -72 208.5 -152.5t73.5 -211.5q0 -172 -115.5 -262.5t-277.5 -90.5q-176 0 -289.5 78t-113.5 240q0 242 284 389q-121 66 -189.5 146.5t-68.5 197.5q0 145 107.5 240.5t269.5 95.5t261.5 -87t99.5 -233q0 -215 -250 -350zM252 1028q0 -100 70.5 -162.5
t212.5 -132.5q121 63 178 131t57 166t-70.5 159.5t-187.5 61.5q-113 0 -186.5 -62.5t-73.5 -160.5zM516 72q123 0 204 57t81 172q0 63 -22.5 112.5t-72 88.5t-92.5 63.5t-118 61.5h-2l-2 2q-266 -125 -267 -328q0 -113 83 -171t208 -58z" />
    <glyph glyph-name="nine.oldstyle" horiz-adv-x="1030" 
d="M489 1120q197 0 310.5 -147.5t113.5 -401.5q0 -195 -55 -337t-156.5 -223t-221.5 -122t-269 -49q-14 25 -14 58q0 20 6 39q258 16 409.5 128.5t182.5 374.5q-150 -102 -320 -102q-164 0 -276.5 100.5t-112.5 280.5q0 178 112.5 289.5t290.5 111.5zM487 440q164 0 314 109
v22q0 207 -86 328t-230 121q-129 0 -209.5 -81t-80.5 -220q0 -137 85.5 -208t206.5 -71z" />
    <glyph glyph-name="zero.tnum" horiz-adv-x="1107" 
d="M555 -27q-221 0 -338 183.5t-117 503t117 503t338 183.5q223 0 339 -182.5t116 -504.5q0 -317 -118 -501.5t-337 -184.5zM555 76q328 0 328 583.5t-328 583.5t-328 -583.5t328 -583.5z" />
    <glyph glyph-name="one.tnum" horiz-adv-x="1107" 
d="M961 100q8 -18 8 -49q0 -27 -8 -51h-701q-6 25 -6 49q0 27 6 51h303v1074l-327 -160q-43 39 -50 100l414 211q16 6 39 6q25 0 39 -6v-1225h283z" />
    <glyph glyph-name="two.tnum" horiz-adv-x="1107" 
d="M981 113q8 -25 8 -56q0 -33 -8 -57h-825q-8 25 -9 43q0 49 56 111q377 408 482.5 547t105.5 264q0 129 -72 202.5t-207 73.5q-178 0 -324 -145q-45 14 -67 67q63 76 167.5 130.5t227.5 54.5q176 0 285.5 -96.5t109.5 -276.5q0 -63 -22.5 -130t-48 -116t-93 -133
t-106.5 -127t-145.5 -156.5t-153.5 -165.5l-35 -36l43 2h631z" />
    <glyph glyph-name="three.tnum" horiz-adv-x="1107" 
d="M504 -25q-127 0 -221.5 37t-143.5 86q14 57 66 88q133 -109 299 -108q154 0 250 83t96 238q0 164 -106.5 246t-335.5 82h-37q-4 20 -4 27q0 29 34 69l353 377h-615q-6 31 -6 60q0 27 6 55h776q2 -6 3 -17q0 -70 -48 -122l-340 -357q188 -8 312.5 -107.5t124.5 -303.5
q0 -211 -134 -322t-329 -111z" />
    <glyph glyph-name="four.tnum" horiz-adv-x="1107" 
d="M1001 428q0 -29 -6 -53h-157v-375q-27 -6 -58 -6q-27 0 -55 6v375h-610q-23 39 -23 88q0 59 39 131l418 766q53 -10 102 -43l-405 -746q-31 -55 -27 -94h506v311q37 4 55 5q20 0 58 -5v-311h157q6 -24 6 -49z" />
    <glyph glyph-name="five.tnum" horiz-adv-x="1107" 
d="M502 -29q-209 0 -350 119q16 57 65 86q117 -104 285 -104q172 0 266 89t94 245q0 154 -90 237.5t-264 83.5q-74 0 -164 -29.5t-121 -29.5q-20 0 -41 8v639h727q6 -29 6 -55q0 -20 -4 -58h-616v-414q109 49 227 50q219 0 338 -111t119 -315q0 -203 -128 -322t-349 -119z
" />
    <glyph glyph-name="six.tnum" horiz-adv-x="1107" 
d="M590 799q178 0 293.5 -104.5t115.5 -301.5q0 -193 -121.5 -308.5t-308.5 -115.5q-197 0 -317.5 133.5t-120.5 360.5q0 188 63.5 347t171 266.5t234.5 176t266 97.5q31 -29 35 -99q-217 -45 -394 -186t-237 -387q148 121 320 121zM578 70q137 0 223 84t86 239
q0 154 -91 226.5t-218 72.5q-182 0 -326 -129q-4 -61 -4 -96q0 -182 91.5 -289.5t238.5 -107.5z" />
    <glyph glyph-name="seven.tnum" horiz-adv-x="1107" 
d="M991 1315q8 -16 8 -41q0 -63 -41 -139l-612 -1164q-66 10 -98 56l629 1175h-752q-6 27 -6 58q0 27 6 55h866z" />
    <glyph glyph-name="eight.tnum" horiz-adv-x="1107" 
d="M729 680q242 -129 242 -340q0 -186 -121 -276.5t-295 -90.5q-180 0 -300 84t-120 254q0 221 244 402q-98 53 -148.5 121.5t-50.5 177.5q0 152 106.5 247t270.5 95q168 0 270.5 -91.5t102.5 -240.5q0 -192 -201 -342zM291 1024q0 -100 66.5 -154.5t220.5 -119.5
q10 -4 30.5 -13.5t30.5 -13.5q92 66 136 134.5t44 160.5q0 106 -71.5 168.5t-190.5 62.5t-192.5 -62.5t-73.5 -162.5zM555 76q133 0 219 61.5t86 192.5q0 113 -80 179t-231 128l-80 33q-88 -55 -154.5 -149.5t-66.5 -198.5q0 -127 86 -186.5t221 -59.5z" />
    <glyph glyph-name="nine.tnum" horiz-adv-x="1107" 
d="M528 1352q203 0 320 -162t117 -457q0 -178 -37 -313t-100.5 -220t-156.5 -137.5t-193.5 -73t-225.5 -20.5q-14 23 -14 58q0 23 6 43q98 2 175 14t154.5 46t131 92.5t91.5 154.5t50 227q-147 -94 -326 -94q-182 0 -296.5 107.5t-114.5 308.5q0 190 118.5 308t300.5 118z
M524 610q166 0 328 107v16q0 250 -89 384t-241 134q-131 0 -217 -86t-86 -239q0 -156 91 -236t214 -80z" />
    <glyph glyph-name="cent.aalt" horiz-adv-x="1011" 
d="M913 147q-127 -111 -301 -118v-209q-14 -4 -47 -4q-31 0 -47 4v213q-188 20 -302 145t-114 336q0 201 117 330t299 151v222q18 6 47 6t47 -6v-218q184 -8 299 -114q-16 -53 -65 -82q-100 86 -234 94v-762q139 6 242 92q47 -31 59 -80zM219 514q0 -152 79 -253t220 -122
v752q-141 -20 -220 -125t-79 -252z" />
    <glyph glyph-name="currency.aalt" horiz-adv-x="1228" 
d="M1087 520q0 -162 -102 -295l111 -114q-31 -51 -82 -82l-113 114q-129 -96 -287 -96q-160 0 -288 96l-113 -114q-51 31 -82 82l111 114q-102 133 -102.5 295t102.5 295l-115 117q31 51 82 84l117 -119q127 98 288 98q160 0 287 -98l115 117q45 -27 84 -82l-115 -117
q102 -133 102 -295zM612.5 154q151.5 0 257 107.5t105.5 261t-105.5 260t-257 106.5t-257 -106.5t-105.5 -260t105.5 -261t257 -107.5z" />
    <glyph glyph-name="dollar.aalt" horiz-adv-x="952" 
d="M866 322q0 -141 -91 -224.5t-245 -97.5v-219q-12 -4 -45 -4q-27 0 -47 4v217q-115 6 -209 47t-147 90q16 57 70 84q111 -106 286 -117v402q-334 35 -334 282q0 129 89.5 208t244.5 91v213q10 4 47 5q39 0 45 -5v-213q180 -10 306 -104q-8 -61 -58 -88q-115 78 -248 88
v-367q336 -44 336 -292zM219 805q0 -80 50 -122t169 -58v356q-104 -8 -161.5 -55t-57.5 -121zM530 104q106 12 164 64.5t58 130.5q0 84 -47.5 131t-174.5 64v-390z" />
    <glyph glyph-name="Euro.aalt" horiz-adv-x="1165" 
d="M1016 164q47 -37 51 -80q-125 -109 -336 -109q-199 0 -329 110t-169 304h-155q-6 43 -6 45t6 45h143q-2 23 -2 68q0 29 4 78h-110q0 2 -3.5 19.5t-3.5 27.5q0 2 7 45h125q43 186 176 295.5t327 109.5q178 0 312 -96q-14 -49 -54 -78q-115 78 -258 78q-156 0 -256 -80
t-135 -229h383q6 -20 6 -45q0 -23 -6 -47h-397q-4 -49 -4 -78q0 -45 2 -68h362q8 -18 8.5 -44.5t-8.5 -45.5h-348q33 -150 133.5 -230.5t249.5 -84.5q170 -2 285 90z" />
    <glyph glyph-name="sterling.aalt" horiz-adv-x="1044" 
d="M938 100q8 -23 8 -45q0 -29 -8 -55h-782q0 80 45 211t45 238v34h-146q-4 33 -4 49q0 12 4 50h133q-20 106 -20 163q0 164 108.5 267.5t284.5 103.5q190 0 324 -112q-10 -63 -62 -91q-117 102 -262 103q-133 0 -207.5 -72t-74.5 -190q0 -45 22 -172h381q6 -29 6 -50
q0 -25 -6 -49h-373v-34q0 -55 -13 -118t-33.5 -130.5t-26.5 -100.5h657z" />
    <glyph glyph-name="yen.aalt" horiz-adv-x="1079" 
d="M862 430h-266v-143h266q6 -25 6 -45q0 -23 -6 -47h-266v-195q-25 -6 -57 -6q-29 0 -60 6v195h-268q-6 25 -6 47q0 20 6 45h268v143h-268q-6 20 -6 45t6 45h217l-362 557q35 10 69 10q39 0 68 -4l327 -518l17 -33l16 33l332 518q18 4 61 4q29 0 60 -10l-365 -557h211
q6 -20 6 -45t-6 -45z" />
    <glyph glyph-name="ampersand.aalt" horiz-adv-x="1271" 
d="M965 664v-261q-4 -82 -27 -145l227 -254q-27 -10 -67 -10q-35 0 -66 6l-145 160q-61 -86 -156.5 -134.5t-210.5 -48.5q-188 0 -303 106.5t-115 281.5q0 133 72 230t186 144q-68 76 -99.5 137.5t-31.5 135.5q0 129 93.5 217t238.5 88q176 0 287 -103q-14 -49 -64 -79
q-100 90 -219 90q-100 0 -161.5 -57.5t-61.5 -149.5q0 -66 36 -123t132 -162l350 -389q4 33 4 53v359h326q16 -47 0 -92h-225zM524 82q203 0 295 151l-387 426q-106 -31 -162.5 -109.5t-56.5 -184.5q0 -123 82 -203t229 -80z" />
    <glyph glyph-name="glyph515" 
d="M-158 995q-31 4 -45 29q39 72 39 195q0 76 -18 129q14 12 59 12q29 0 49 -10q12 -37 13 -86q0 -78 -28 -152t-69 -117z" />
    <glyph glyph-name="uni0308.aalt" 
d="M-539 1452q-37 0 -61.5 23.5t-24.5 60.5q0 35 25 58.5t61 23.5q33 0 56.5 -23.5t23.5 -58.5q0 -37 -22.5 -60.5t-57.5 -23.5zM-137 1452q-35 0 -58.5 23.5t-23.5 60.5q0 35 23.5 58.5t58.5 23.5t58.5 -24.5t23.5 -57.5q0 -37 -23.5 -60.5t-58.5 -23.5z" />
    <glyph glyph-name="uni0307.aalt" 
d="M-139 1452q-37 0 -62.5 24.5t-25.5 61.5t25.5 62.5t62.5 25.5q35 0 60.5 -25.5t25.5 -62.5t-25.5 -61.5t-60.5 -24.5z" />
    <glyph glyph-name="gravecomb.aalt" 
d="M-70 1391l-368 168q2 70 59 104l334 -221q-2 -33 -25 -51z" />
    <glyph glyph-name="acutecomb.aalt" 
d="M-420 1391q-25 20 -26 51l333 221q57 -33 60 -104z" />
    <glyph glyph-name="uni030B.aalt" 
d="M-625 1370q-31 16 -39 41l213 277q61 -14 84 -80zM-307 1370q-33 16 -41 41l215 277q63 -16 84 -80z" />
    <glyph glyph-name="uni0302.aalt" 
d="M-539 1389q-33 18 -41 59l224 197q43 12 84 0l223 -195q-12 -41 -41 -61l-229 163z" />
    <glyph glyph-name="uni030C.aalt" 
d="M-354 1399l-224 194q12 39 43 62l228 -166l219 166q33 -23 41 -62l-223 -194q-43 -12 -84 0z" />
    <glyph glyph-name="uni0306.aalt" 
d="M-317.5 1413q-108.5 0 -182 63.5t-84.5 161.5q41 16 86 11q14 -68 64.5 -106t118.5 -38q70 0 122 39t60 105q43 6 82 -11q-6 -94 -82 -159.5t-184.5 -65.5z" />
    <glyph glyph-name="uni030A.aalt" 
d="M-235.5 1341q-77.5 0 -133 55.5t-55.5 133.5t55.5 132t132.5 54q76 0 131.5 -55t55.5 -131q0 -78 -54.5 -133.5t-132 -55.5zM-235.5 1421q45.5 0 74 32t28.5 77t-28.5 76.5t-74 31.5t-75 -31.5t-29.5 -76.5t29.5 -77t75 -32z" />
    <glyph glyph-name="tildecomb.aalt" 
d="M-627 1427q-55 0 -86 31q49 158 205 158q53 0 141 -43t121 -43q94 0 121 90q61 0 86 -31q-49 -158 -201 -157q-55 0 -143 43t-121 43q-96 -1 -123 -91z" />
    <glyph glyph-name="uni0304.aalt" 
d="M-594 1475q-6 25 -6 49t6 45h531q6 -14 6 -45q0 -33 -6 -49h-531z" />
    <glyph glyph-name="uni0337.aalt" 
d="M-477 547q-35 25 -43 84l463 235q39 -35 43 -86z" />
    <glyph glyph-name="uni0338.aalt" 
d="M-1227 -31q-59 20 -73 74l1191 1305q53 -16 76 -68z" />
    <glyph glyph-name="acute.aalt" horiz-adv-x="485" 
d="M66 1391q-25 20 -27 51l334 221q57 -33 59 -104z" />
    <glyph glyph-name="breve.aalt" horiz-adv-x="632" 
d="M315.5 1413q-108.5 0 -182.5 63.5t-84 161.5q41 16 86 11q14 -68 64.5 -106t117.5 -38q70 0 122.5 39t60.5 105q43 6 82 -11q-6 -94 -82 -159.5t-184.5 -65.5z" />
    <glyph glyph-name="caron.aalt" horiz-adv-x="620" 
d="M266 1399l-223 194q12 39 43 62l227 -166l219 166q33 -23 41 -62l-223 -194q-43 -12 -84 0z" />
    <glyph glyph-name="circumflex.aalt" horiz-adv-x="616" 
d="M84 1389q-33 18 -41 59l223 197q43 12 84 0l223 -195q-12 -41 -41 -61l-229 163z" />
    <glyph glyph-name="dieresis.aalt" horiz-adv-x="677" 
d="M139 1452q-37 0 -61.5 23.5t-24.5 60.5q0 35 24.5 58.5t61.5 23.5q33 0 56.5 -23.5t23.5 -58.5q0 -37 -22.5 -60.5t-57.5 -23.5zM540.5 1452q-34.5 0 -58 23.5t-23.5 60.5q0 35 23.5 58.5t58.5 23.5q33 0 57.5 -24.5t24.5 -57.5q0 -37 -24 -60.5t-58.5 -23.5z" />
    <glyph glyph-name="dotaccent.aalt" horiz-adv-x="282" 
d="M143 1452q-37 0 -62.5 24.5t-25.5 61.5t25.5 62.5t62.5 25.5q35 0 60.5 -25.5t25.5 -62.5t-25.5 -61.5t-60.5 -24.5z" />
    <glyph glyph-name="grave.aalt" horiz-adv-x="491" 
d="M416 1391l-369 168q2 70 59 104l334 -221q-1 -33 -24 -51z" />
    <glyph glyph-name="hungarumlaut.aalt" horiz-adv-x="714" 
d="M90 1370q-31 16 -39 41l213 277q61 -14 84 -80zM408 1370q-33 16 -41 41l215 277q63 -16 84 -80z" />
    <glyph glyph-name="macron.aalt" horiz-adv-x="655" 
d="M61 1475q-6 25 -6 49t6 45h531q6 -14 6 -45q0 -33 -6 -49h-531z" />
    <glyph glyph-name="ring.aalt" horiz-adv-x="473" 
d="M237.5 1341q-77.5 0 -133 55.5t-55.5 133.5t55.5 132t133 54t132 -55t54.5 -131q0 -78 -54.5 -133.5t-132 -55.5zM238 1421q45 0 73.5 32t28.5 77t-28.5 76.5t-73.5 31.5t-75 -31.5t-30 -76.5t30 -77t75 -32z" />
    <glyph glyph-name="tilde.aalt" horiz-adv-x="749" 
d="M121 1427q-55 0 -86 31q49 158 205 158q51 0 139 -43t123 -43q94 0 121 90q61 0 86 -31q-49 -158 -201 -157q-55 0 -143.5 43t-120.5 43q-96 -1 -123 -91z" />
    <glyph glyph-name="glyph540" horiz-adv-x="1017" 
d="M90 1391q-25 20 -27 51l334 221q57 -33 60 -104zM594 1391q-25 20 -27 51l334 221q57 -33 60 -104zM240 182q-29 0 -60 6v1129q27 8 59.5 8t57.5 -8v-1129q-26 -6 -57 -6zM496 -180q-86 0 -151.5 33.5t-96.5 70.5q23 61 74 80q90 -78 174 -78q213 0 213 242v1147
q23 8 61 8q33 0 57 -8v-1145q0 -176 -95 -263t-236 -87z" />
    <glyph glyph-name="glyph541" horiz-adv-x="933" 
d="M102 1073q-27 16 -34 49l292 271q49 -29 74 -95zM555 1073q-27 16 -35 49l291 271q51 -29 76 -95zM227 -6q-27 0 -55 6v963q25 8 55 8q33 0 58 -8v-963q-27 -6 -58 -6zM461 -401q-137 0 -221 84q20 55 61 79q78 -61 160 -61q80 0 134 56.5t54 174.5v1026q29 6 58 7
q31 0 55 -7v-1026q0 -164 -90 -248.5t-211 -84.5z" />
    <glyph glyph-name="glyph542" horiz-adv-x="1163" 
d="M162 -53q-51 16 -64 63l906 1006q47 -18 63 -60z" />
    <glyph glyph-name="glyph543" horiz-adv-x="499" 
d="M70 555q-35 31 -39 78l405 209q33 -29 39 -80z" />
    <glyph glyph-name="glyph544" horiz-adv-x="593" 
d="M59 915q-6 23 -6 45.5t6 47.5h480q6 -20 6 -47q0 -20 -6 -46h-480z" />
    <glyph glyph-name="glyph545" horiz-adv-x="256" 
d="M98 995q-31 4 -45 29q39 72 39 195q0 76 -18 129q14 12 59 12q29 0 49 -10q12 -37 13 -86q0 -78 -28 -152t-69 -117z" />
    <glyph glyph-name="glyph546" horiz-adv-x="1333" 
d="M106 -31q-59 20 -73 74l1192 1305q53 -16 75 -68z" />
    <glyph glyph-name="glyph547" horiz-adv-x="573" 
d="M96 547q-35 25 -43 84l463 235q39 -35 43 -86z" />
    </font>
</defs>
</svg>
